<?xml version="1.0" encoding="UTF-8" ?>
<!DOCTYPE svg PUBLIC "-//W3C//DTD SVG 1.1//EN" "http://www.w3.org/Graphics/SVG/1.1/DTD/svg11.dtd">
<svg width="433pt" height="414pt" viewBox="0 0 433 414" version="1.1" xmlns="http://www.w3.org/2000/svg">
<g id="#ffffffff">
</g>
<g id="#ef1756ff">
<path fill="#ef1756" opacity="1.00" d=" M 213.22 26.61 C 217.43 31.85 220.02 38.31 224.87 43.05 C 226.69 44.76 227.38 47.22 228.63 49.30 C 230.02 50.87 231.92 51.87 233.70 52.93 C 233.75 51.37 233.80 49.81 233.83 48.25 C 238.05 50.54 238.71 55.81 242.35 58.67 C 245.36 61.13 248.37 63.92 252.33 64.69 C 253.44 67.15 254.63 69.58 255.93 71.95 C 257.02 71.74 258.11 71.54 259.20 71.34 C 260.00 70.23 260.80 69.12 261.61 68.02 C 263.37 71.75 264.76 75.67 266.67 79.33 C 269.87 82.41 273.89 84.50 277.18 87.51 C 277.69 89.76 278.53 92.04 280.54 93.37 C 285.65 97.30 289.97 102.34 295.84 105.18 C 298.68 106.96 301.00 109.53 304.14 110.84 C 307.49 112.29 310.54 114.59 314.13 115.37 C 319.21 115.30 324.19 116.45 329.26 116.56 C 327.60 119.60 324.82 121.74 321.74 123.18 C 322.50 124.06 323.28 124.94 324.05 125.81 C 325.96 125.20 328.16 124.38 328.36 127.32 C 331.01 125.72 333.22 123.54 335.63 121.63 C 335.19 127.97 333.90 134.21 333.34 140.54 C 334.37 141.34 335.39 142.14 336.42 142.94 C 337.14 151.28 337.29 159.64 337.64 168.00 C 337.60 169.79 338.44 171.39 339.20 172.96 C 336.60 178.39 338.56 184.70 340.08 190.18 C 341.81 189.41 343.30 188.21 344.88 187.17 C 344.68 189.61 343.11 191.46 341.45 193.13 C 342.05 198.01 342.35 203.44 345.75 207.33 C 347.68 209.50 349.04 212.08 349.66 214.92 C 347.25 213.68 344.97 212.21 342.50 211.11 C 342.72 213.74 343.30 216.34 343.35 218.99 C 342.92 221.66 342.03 224.24 341.58 226.91 C 342.89 227.51 344.20 228.13 345.52 228.75 C 345.24 232.03 344.92 235.30 344.74 238.59 C 344.09 238.76 342.81 239.10 342.17 239.27 C 341.78 242.52 342.18 245.78 341.98 249.03 C 341.73 251.43 339.44 252.84 338.46 254.90 C 338.09 257.40 337.87 259.92 337.26 262.38 C 336.29 261.11 334.39 259.97 334.85 258.10 C 335.48 256.06 337.06 254.24 336.65 251.99 C 336.04 245.19 335.15 238.42 334.31 231.65 C 332.14 231.75 329.10 234.02 327.66 231.41 C 325.73 228.85 326.25 225.42 327.97 222.91 C 327.17 222.01 326.37 221.11 325.57 220.22 C 324.27 220.48 322.98 220.74 321.69 221.01 C 321.41 216.27 321.33 211.52 320.78 206.79 C 319.91 199.31 320.53 191.48 317.49 184.41 C 318.10 184.37 319.31 184.29 319.92 184.26 C 318.98 180.94 319.74 176.57 316.57 174.36 C 311.40 170.18 308.77 163.52 308.39 157.01 C 308.23 153.75 304.94 151.99 302.80 149.99 C 300.98 148.29 298.30 149.77 296.24 148.74 C 290.33 145.75 285.63 140.95 280.06 137.44 C 278.55 139.75 276.58 141.67 273.94 142.59 C 273.59 146.06 272.93 149.49 272.29 152.92 C 271.11 154.02 269.95 155.13 268.80 156.25 C 266.58 150.41 266.92 144.17 266.37 138.07 C 264.36 130.95 261.15 124.14 256.98 118.01 C 255.05 114.93 253.22 111.04 249.21 110.47 C 249.36 114.84 250.08 119.48 247.88 123.52 C 246.62 117.30 247.48 110.49 244.24 104.76 C 242.24 102.01 240.25 99.05 237.00 97.69 C 236.88 98.29 236.63 99.48 236.51 100.08 C 236.02 99.34 235.53 98.60 235.05 97.85 C 234.56 98.08 233.59 98.53 233.10 98.76 C 232.02 98.00 230.93 97.26 229.83 96.53 C 229.76 97.58 229.70 98.62 229.67 99.67 C 229.26 99.21 228.44 98.30 228.03 97.84 C 227.28 99.24 226.68 100.70 226.06 102.16 C 224.28 96.52 219.85 92.63 215.14 89.39 C 215.85 87.33 216.39 85.23 216.74 83.09 C 216.28 83.85 215.81 84.61 215.35 85.37 C 212.50 86.27 211.23 88.93 210.31 91.55 C 208.56 96.47 202.85 97.94 200.29 102.27 C 198.51 105.15 195.83 107.23 193.37 109.47 C 191.45 111.83 190.13 114.61 188.22 116.99 C 188.60 114.36 189.14 111.75 189.68 109.15 C 187.75 109.14 184.82 110.93 184.18 108.09 C 182.58 108.44 180.99 108.78 179.40 109.12 C 180.28 107.77 181.13 106.41 181.96 105.03 C 180.45 105.98 178.96 106.99 177.51 108.03 C 177.40 107.14 177.19 105.35 177.08 104.46 C 176.05 105.01 175.05 105.60 174.08 106.24 C 174.06 108.11 176.26 108.15 177.44 108.94 C 176.98 109.33 176.06 110.13 175.60 110.53 C 171.45 109.63 167.22 109.18 162.98 108.93 C 160.30 108.63 159.78 112.05 159.81 114.02 C 159.64 118.40 163.98 120.66 166.30 123.75 C 162.64 123.68 160.07 120.57 156.56 119.91 C 159.59 125.24 166.17 125.81 170.79 129.13 C 167.76 129.72 163.52 128.39 162.27 132.16 C 166.44 133.14 170.84 133.21 174.80 134.96 C 179.20 136.78 182.70 140.17 187.08 142.04 C 186.92 139.47 185.50 137.34 184.13 135.27 C 186.37 137.30 188.86 139.08 190.90 141.32 C 192.11 142.83 193.17 144.46 194.23 146.08 C 195.15 147.48 196.10 148.87 197.11 150.21 C 195.49 155.13 199.95 158.54 202.75 161.87 C 203.64 161.50 205.43 160.75 206.32 160.38 C 204.99 159.28 203.66 158.20 202.32 157.12 C 202.72 155.75 203.12 154.37 203.52 153.00 C 204.18 153.42 204.84 153.85 205.50 154.27 C 206.16 156.30 206.07 158.82 207.90 160.25 C 212.26 163.86 214.78 169.38 220.01 171.96 C 223.79 173.82 225.17 178.42 229.05 180.08 C 233.32 181.93 236.29 185.83 238.11 190.00 C 234.28 187.72 230.42 185.37 226.00 184.41 C 227.85 186.58 231.32 187.94 231.88 190.82 C 231.50 191.05 230.75 191.51 230.37 191.74 C 230.48 192.57 230.59 193.40 230.72 194.23 C 231.82 194.65 232.91 195.07 234.01 195.51 C 233.98 194.66 233.91 192.97 233.87 192.12 C 235.40 191.62 237.25 193.04 238.92 193.14 C 239.16 193.58 239.64 194.47 239.89 194.92 C 241.26 194.83 242.63 194.76 244.00 194.68 C 243.84 193.27 243.67 191.87 243.51 190.46 C 243.98 190.46 244.91 190.46 245.37 190.46 C 248.97 193.05 252.74 195.38 256.19 198.18 C 255.55 199.48 254.89 200.77 254.22 202.06 C 256.75 205.34 260.85 206.11 264.69 206.80 C 264.00 208.21 263.32 209.63 262.64 211.04 C 264.78 211.90 266.93 212.73 269.05 213.66 C 269.73 212.70 270.35 211.71 270.99 210.72 C 273.39 212.82 275.64 215.20 276.84 218.20 C 274.99 216.69 273.48 214.82 271.90 213.06 C 271.02 214.72 270.32 216.45 269.59 218.18 C 271.57 219.28 273.61 220.29 275.70 221.19 C 281.11 219.67 285.10 224.00 288.19 227.72 C 289.05 229.32 289.35 231.16 290.17 232.79 C 292.42 235.21 295.40 236.99 297.03 239.96 C 298.92 243.40 300.44 247.04 302.87 250.16 C 303.87 251.21 303.63 252.66 303.28 253.93 C 300.43 249.32 295.54 246.86 291.51 243.48 C 287.81 240.67 283.40 239.03 279.51 236.51 C 276.82 234.55 273.48 235.49 270.48 235.86 C 270.53 236.56 270.63 237.96 270.67 238.66 C 263.16 235.70 256.38 230.22 247.97 230.15 C 244.53 230.26 241.46 228.68 238.42 227.30 C 238.18 230.70 238.57 234.31 236.91 237.43 C 235.83 232.24 236.57 225.71 231.97 222.05 C 226.44 217.43 220.38 213.51 214.41 209.51 C 211.99 208.09 209.45 205.91 206.44 206.65 C 204.25 206.88 204.05 209.86 204.60 211.51 C 207.23 216.18 212.62 218.11 216.02 222.10 C 218.04 224.43 221.05 225.40 223.58 227.03 C 214.90 226.40 207.80 220.57 201.83 214.74 C 201.12 214.97 200.41 215.20 199.71 215.44 C 198.30 214.19 196.89 212.96 195.48 211.73 C 194.85 205.80 189.75 201.94 186.25 197.57 C 185.40 197.78 183.71 198.21 182.86 198.42 C 181.80 197.70 180.74 197.00 179.67 196.31 C 177.57 190.79 171.99 187.29 170.91 181.25 C 167.33 181.83 163.88 183.74 162.17 187.04 C 160.85 188.88 160.33 191.99 157.44 191.75 C 154.97 198.69 157.65 205.93 157.18 213.00 C 157.26 214.69 155.65 215.61 154.65 216.68 C 153.40 208.51 153.52 200.21 153.52 191.97 C 153.51 186.79 151.63 181.88 149.92 177.08 C 149.55 174.11 148.71 171.25 147.52 168.51 C 144.11 167.12 141.25 164.70 137.89 163.26 C 134.68 162.79 132.69 165.85 130.92 167.99 C 127.90 171.55 125.31 175.59 124.12 180.15 C 124.45 183.83 124.93 187.51 125.60 191.15 C 126.66 196.50 124.55 201.84 125.49 207.22 C 124.52 205.59 123.08 204.05 123.27 202.02 C 123.42 196.29 123.18 190.57 122.36 184.90 C 116.98 182.40 113.30 177.67 108.75 174.06 C 107.93 175.97 106.35 177.86 106.83 180.07 C 107.43 181.71 108.69 182.98 109.94 184.16 C 110.40 183.68 111.32 182.73 111.77 182.25 C 112.44 186.77 112.72 191.39 112.14 195.93 C 109.15 201.46 103.77 205.21 100.36 210.45 C 100.44 213.55 103.52 215.75 104.26 218.76 C 105.92 224.79 109.97 230.03 109.78 236.52 C 114.26 234.18 114.32 228.87 116.40 224.86 C 117.85 220.69 117.45 216.16 117.76 211.82 C 122.50 212.62 119.19 219.05 122.72 221.34 C 121.32 226.82 122.41 232.49 121.44 238.03 C 120.86 241.66 122.88 244.95 124.35 248.10 C 124.87 246.71 125.39 245.32 125.89 243.92 C 126.86 246.52 127.57 249.40 129.72 251.32 C 132.26 253.82 135.85 255.25 137.65 258.46 C 140.32 262.87 142.40 268.19 147.42 270.47 C 147.27 266.63 146.66 262.83 146.00 259.05 C 148.32 260.80 150.53 263.01 153.55 263.42 C 154.04 259.72 150.02 257.68 149.04 254.33 C 153.66 256.59 155.89 261.52 160.06 264.32 C 158.68 261.15 156.41 258.37 155.80 254.90 C 157.31 256.43 158.48 258.33 160.25 259.58 C 161.48 259.73 162.77 259.49 163.97 259.85 C 165.93 262.12 167.41 264.75 168.98 267.30 C 168.18 267.29 166.57 267.27 165.77 267.27 C 167.43 269.59 169.39 271.66 171.49 273.60 C 171.46 274.38 171.40 275.94 171.37 276.72 C 174.98 280.50 179.68 283.33 182.19 288.09 C 180.90 287.55 179.63 286.96 178.37 286.37 C 177.86 286.84 176.86 287.79 176.36 288.26 C 175.34 288.36 174.33 288.46 173.32 288.55 C 172.66 290.76 172.05 292.99 171.52 295.24 C 175.29 294.32 176.07 288.69 180.40 289.80 C 182.44 290.30 184.63 290.50 186.46 291.61 C 188.92 293.37 190.91 295.79 193.71 297.07 C 198.24 299.10 202.51 301.64 206.76 304.21 C 211.77 307.05 213.64 313.01 218.29 316.30 C 218.26 317.59 218.23 318.88 218.20 320.18 C 221.19 319.18 225.01 318.98 226.75 315.94 C 229.01 312.49 232.23 309.84 234.73 306.58 C 237.68 302.38 243.31 302.08 247.94 301.40 C 252.17 302.27 256.53 303.13 260.82 301.98 C 260.68 301.35 260.40 300.10 260.26 299.47 C 257.23 299.63 254.26 300.26 251.25 300.56 C 251.69 299.94 252.58 298.70 253.02 298.09 C 257.06 296.46 261.32 295.48 265.36 293.86 C 265.44 293.21 265.58 291.91 265.66 291.26 C 268.22 290.84 270.82 290.66 273.42 290.60 C 273.84 291.14 274.68 292.21 275.10 292.75 C 277.41 292.89 279.72 293.08 282.02 293.27 C 280.25 294.32 278.51 295.44 276.83 296.64 C 279.55 296.93 282.29 297.00 285.01 297.34 C 287.17 297.64 289.20 299.36 291.43 298.58 C 294.99 297.36 298.27 295.45 301.80 294.16 C 306.74 295.24 312.09 294.89 316.85 293.21 C 317.09 291.70 317.33 290.19 317.59 288.69 C 319.24 290.87 320.75 293.15 322.20 295.46 C 316.41 295.95 310.48 299.70 308.27 305.20 C 307.33 310.67 306.79 316.32 304.53 321.47 C 304.00 315.78 303.78 310.02 302.12 304.51 C 299.75 305.29 298.22 307.19 297.20 309.37 C 294.23 309.45 291.08 310.07 288.89 312.23 C 287.41 317.21 287.74 322.56 287.80 327.73 C 286.53 327.36 285.26 326.99 284.00 326.61 C 284.51 326.59 285.53 326.55 286.04 326.53 C 285.77 324.30 285.70 322.04 285.36 319.82 C 283.24 318.33 280.56 319.28 278.19 319.40 C 277.71 319.07 276.74 318.41 276.26 318.09 C 269.88 320.31 263.01 321.10 256.90 324.05 C 254.35 326.03 254.23 329.75 252.32 332.26 C 249.04 336.65 245.12 340.52 241.67 344.78 C 240.40 344.77 239.14 344.77 237.87 344.76 C 237.85 346.68 237.83 348.60 237.80 350.52 C 235.59 351.25 232.63 351.05 231.32 353.35 C 229.82 355.76 227.86 357.84 225.02 358.60 C 223.17 355.86 220.25 354.24 217.47 352.61 C 216.21 351.74 214.70 352.42 213.34 352.54 C 213.31 352.01 213.24 350.97 213.21 350.44 C 209.59 352.41 205.83 354.80 203.91 358.58 C 202.95 362.73 203.61 367.17 201.98 371.20 C 200.87 370.86 200.28 370.13 200.21 369.01 C 199.41 365.04 200.48 360.97 199.75 356.99 C 199.29 354.02 198.65 351.07 198.72 348.06 C 198.92 345.04 197.12 342.47 196.06 339.78 C 195.34 339.64 193.89 339.36 193.16 339.22 C 193.33 338.03 193.49 336.84 193.67 335.65 C 189.37 334.05 185.67 331.29 181.57 329.30 C 178.66 327.84 175.37 327.70 172.21 327.28 C 169.42 329.55 166.97 326.63 165.45 324.41 C 164.31 322.93 164.71 321.00 164.55 319.28 C 160.87 317.64 157.54 315.33 153.91 313.60 C 151.80 317.56 151.99 322.12 150.92 326.37 C 149.28 322.08 150.15 317.47 149.45 313.05 C 147.85 310.68 145.41 309.02 143.86 306.60 C 144.09 303.40 142.73 300.50 140.78 298.08 C 135.11 290.62 126.51 286.50 119.55 280.52 C 118.33 279.90 117.03 279.51 115.76 279.05 C 115.58 277.74 115.41 276.44 115.23 275.14 C 112.94 276.72 110.13 276.76 107.48 276.44 C 105.78 275.17 106.46 272.95 106.32 271.15 C 101.77 269.16 96.88 267.28 93.97 262.98 C 90.24 257.52 87.16 251.49 85.46 245.07 C 85.07 242.77 82.39 242.46 80.69 241.51 C 80.97 236.26 79.47 230.98 80.69 225.78 C 81.60 221.47 85.06 218.30 86.03 214.01 C 86.26 212.24 87.79 211.28 88.99 210.17 C 89.27 208.84 89.65 207.52 90.57 206.48 C 92.52 203.97 93.43 200.89 94.87 198.11 C 92.36 192.09 89.85 185.57 90.92 178.93 C 91.56 173.04 93.91 167.44 93.89 161.47 C 92.80 163.98 91.94 166.59 90.81 169.09 C 90.71 165.77 90.26 162.30 91.46 159.12 C 92.00 157.17 94.53 157.24 95.95 156.27 C 95.16 155.61 94.36 154.97 93.56 154.34 C 93.92 153.82 94.65 152.79 95.01 152.28 C 95.76 153.12 96.51 153.96 97.30 154.77 C 100.11 150.48 99.60 145.24 99.57 140.37 C 100.27 140.32 101.67 140.23 102.37 140.18 C 102.45 139.33 102.61 137.63 102.69 136.77 C 103.01 138.14 103.36 139.51 103.86 140.83 C 107.24 141.98 108.20 137.70 109.46 135.56 C 108.66 135.54 107.06 135.50 106.26 135.48 C 106.21 133.72 106.16 131.96 106.12 130.21 C 106.88 130.23 108.40 130.26 109.16 130.28 C 111.45 124.93 114.27 119.84 117.49 114.99 C 116.82 114.05 116.16 113.11 115.50 112.17 C 116.08 111.20 116.65 110.23 117.22 109.26 C 117.30 107.68 116.67 105.49 118.54 104.69 C 121.21 102.99 123.81 101.20 126.19 99.11 C 131.26 95.77 137.37 94.49 143.26 93.43 C 143.71 92.96 144.61 92.01 145.05 91.54 C 147.02 93.32 149.74 93.62 152.25 94.04 C 150.65 92.65 148.96 91.37 147.39 89.96 C 148.36 88.81 149.26 87.60 150.08 86.33 C 151.09 87.14 152.03 88.04 153.13 88.74 C 155.16 89.22 157.07 88.00 158.97 87.46 C 158.52 87.22 157.62 86.73 157.17 86.49 C 158.00 85.49 158.83 84.48 159.64 83.46 C 160.63 83.09 161.62 82.71 162.62 82.34 C 162.77 81.25 162.94 80.16 163.11 79.08 C 164.33 79.46 165.56 79.85 166.80 80.23 C 169.02 78.72 171.55 77.76 174.12 77.00 C 177.46 76.12 179.77 73.41 182.39 71.35 C 185.67 68.42 190.58 67.85 193.25 64.15 C 196.03 61.28 196.61 56.45 200.68 54.94 C 201.94 51.72 206.23 51.75 207.33 48.47 C 208.51 48.45 209.69 48.33 210.60 47.45 C 209.66 47.49 207.79 47.58 206.85 47.62 C 207.99 45.69 209.11 43.74 210.17 41.76 C 211.52 41.37 213.46 41.80 214.17 40.26 C 216.41 35.83 213.86 31.09 213.22 26.61 M 177.21 96.31 C 176.67 97.93 177.22 98.48 178.86 97.97 C 179.40 96.36 178.85 95.80 177.21 96.31 M 167.07 101.29 C 169.40 101.40 171.74 101.36 174.08 101.29 C 174.26 100.85 174.63 99.96 174.81 99.51 C 172.19 99.85 168.99 98.91 167.07 101.29 M 260.95 118.03 C 261.66 120.10 261.96 122.88 264.60 123.28 C 264.51 122.67 264.32 121.45 264.23 120.84 C 263.14 119.90 262.05 118.96 260.95 118.03 M 271.45 124.85 C 272.17 124.75 273.62 124.55 274.34 124.45 C 274.31 123.29 274.28 122.12 274.25 120.96 C 273.28 122.23 272.35 123.52 271.45 124.85 M 272.35 127.16 C 272.35 130.60 271.89 134.31 273.74 137.40 L 273.78 136.39 C 274.36 135.39 274.95 134.38 275.53 133.37 C 276.43 133.47 277.34 133.57 278.25 133.68 C 279.12 134.37 280.00 135.06 280.88 135.75 C 282.93 135.28 284.98 134.80 287.03 134.28 C 282.90 130.49 276.89 130.34 272.35 127.16 M 121.61 167.74 C 123.68 170.40 123.97 173.62 123.73 176.89 C 126.27 173.22 129.07 169.21 128.46 164.50 C 129.06 164.49 130.25 164.47 130.85 164.46 C 132.14 163.35 133.45 162.26 134.77 161.19 C 131.85 159.30 129.91 156.42 128.06 153.55 C 126.34 158.48 123.94 163.11 121.61 167.74 M 94.72 184.22 C 94.91 185.95 95.67 187.55 96.24 189.18 C 97.13 185.74 98.11 182.30 98.65 178.78 C 96.89 180.19 95.09 181.88 94.72 184.22 M 96.83 191.78 C 96.04 193.46 97.25 195.14 97.41 196.82 C 96.56 202.70 91.62 208.22 93.91 214.33 C 95.04 212.29 95.70 210.01 96.94 208.03 C 98.99 206.68 101.95 206.03 101.84 202.99 C 104.02 201.68 105.50 198.93 104.32 196.47 C 102.28 191.38 103.88 185.84 103.60 180.55 C 100.36 183.59 98.53 187.75 96.83 191.78 M 235.87 196.65 C 237.03 198.90 238.39 201.05 239.88 203.11 C 240.69 202.83 241.50 202.55 242.32 202.28 C 243.29 202.93 244.28 203.55 245.29 204.14 C 245.52 201.35 244.14 198.63 242.01 196.89 C 240.00 196.42 237.90 196.69 235.87 196.65 M 157.17 266.95 C 157.49 269.27 158.49 271.40 159.62 273.43 C 160.19 273.52 161.33 273.68 161.91 273.77 C 160.97 271.08 159.91 268.26 157.17 266.95 M 119.55 269.92 C 118.73 275.23 122.88 279.49 126.96 282.17 C 131.11 284.93 134.68 289.01 139.86 289.77 C 139.14 284.77 137.66 279.89 136.03 275.12 C 134.26 272.11 131.68 268.66 127.90 268.42 C 125.07 268.12 121.90 268.03 119.55 269.92 M 164.15 272.78 C 164.48 276.07 164.81 279.40 165.73 282.59 C 166.10 284.00 168.06 283.71 169.11 284.26 L 168.39 283.70 C 170.60 280.70 169.47 277.34 167.22 274.81 C 166.37 273.89 165.25 273.32 164.15 272.78 M 310.21 297.33 C 308.95 297.71 308.24 299.60 309.13 300.64 C 310.83 301.41 312.16 297.58 310.21 297.33 M 271.63 305.37 C 271.63 305.99 271.64 307.22 271.64 307.83 C 273.69 306.15 275.69 304.37 277.13 302.12 C 274.97 302.57 273.20 303.88 271.63 305.37 M 202.48 347.39 C 202.62 349.96 202.73 352.54 202.89 355.12 C 205.47 352.56 208.18 350.16 210.88 347.74 C 208.50 345.69 205.23 347.16 202.48 347.39 Z" />
<path fill="#ef1756" opacity="1.00" d=" M 57.47 45.80 C 60.21 50.38 58.63 57.42 63.86 60.32 C 65.71 61.72 67.99 62.17 70.22 62.59 C 70.86 61.40 71.49 60.20 72.13 59.01 C 73.50 62.16 74.52 65.61 76.85 68.23 C 78.71 69.64 80.91 70.50 82.83 71.84 C 84.33 71.69 85.84 71.59 87.30 71.18 C 87.82 69.90 88.10 68.54 88.44 67.21 C 90.58 64.12 93.31 61.53 95.97 58.91 C 98.48 56.55 99.91 52.99 103.29 51.66 C 101.30 54.58 98.53 57.13 97.78 60.72 C 96.63 65.39 95.82 70.14 94.28 74.71 C 95.57 74.84 96.85 74.63 98.13 74.47 C 98.54 74.59 99.35 74.84 99.76 74.96 C 100.34 74.73 101.50 74.25 102.07 74.01 C 98.14 77.15 93.87 79.94 90.43 83.65 C 91.22 83.86 92.81 84.27 93.60 84.47 C 93.86 86.89 93.93 89.50 95.68 91.40 C 95.03 92.39 94.38 93.38 93.76 94.38 C 96.15 93.00 98.41 91.42 100.78 90.01 C 98.99 92.69 97.05 95.27 95.35 98.01 C 96.85 99.82 98.41 101.56 100.00 103.28 C 100.61 102.29 101.23 101.31 101.84 100.32 C 102.58 101.49 103.62 102.32 104.96 102.79 C 103.94 103.28 102.93 103.79 101.93 104.30 C 102.18 105.59 102.44 106.88 102.71 108.17 C 104.61 108.36 106.51 108.54 108.41 108.71 C 107.52 110.84 106.71 113.00 105.86 115.15 C 105.71 114.04 105.40 111.82 105.24 110.71 C 104.87 111.65 104.50 112.59 104.15 113.54 C 101.09 113.24 97.92 113.04 94.94 113.98 C 91.93 114.73 91.18 118.18 89.21 120.19 C 89.70 118.11 90.51 116.10 90.78 113.97 C 90.93 112.31 89.18 111.44 88.27 110.33 C 86.70 112.68 84.94 114.91 82.81 116.78 C 82.61 119.67 82.45 122.57 82.45 125.47 C 78.65 121.47 82.57 115.96 80.53 111.40 C 79.69 109.26 79.87 105.47 76.52 106.21 C 76.65 104.60 76.75 102.98 76.83 101.37 C 75.09 101.06 73.34 100.76 71.60 100.45 C 70.85 101.79 70.11 103.14 69.33 104.47 C 69.18 101.90 69.12 99.34 69.06 96.77 C 63.69 98.25 58.20 97.17 52.78 96.63 C 52.37 96.90 51.54 97.43 51.13 97.70 C 48.15 92.77 43.75 87.97 44.18 81.80 C 44.83 83.72 45.34 85.67 45.86 87.62 C 46.58 87.59 48.02 87.54 48.74 87.51 C 49.51 88.42 50.27 89.34 51.11 90.18 C 52.46 89.80 53.75 89.28 55.06 88.80 C 54.42 89.95 53.79 91.11 53.16 92.28 C 55.77 92.78 59.09 92.93 60.57 90.21 C 59.77 86.48 57.25 83.48 55.37 80.25 C 57.10 81.57 58.99 82.67 61.04 83.41 C 61.25 82.81 61.68 81.60 61.89 80.99 C 62.62 82.10 62.95 84.35 64.73 83.19 C 64.65 77.77 63.42 72.43 63.16 67.01 C 63.46 63.70 58.59 63.27 58.73 60.06 C 58.94 55.25 58.27 50.52 57.47 45.80 Z" />
</g>
<g id="#f01857ff">
<path fill="#f01857" opacity="1.00" d=" M 339.86 38.43 C 340.61 40.67 339.68 42.88 339.01 45.01 C 339.36 45.33 340.05 45.96 340.40 46.28 C 341.06 47.97 341.65 49.97 343.90 49.74 C 344.07 54.52 343.30 59.33 343.97 64.09 C 343.82 67.55 348.50 68.81 347.47 72.49 C 348.09 71.49 348.72 70.50 349.37 69.51 C 350.59 71.84 351.13 74.44 351.79 76.96 C 353.78 75.92 355.45 74.44 357.09 72.93 C 359.03 71.08 361.79 70.48 363.80 68.74 C 365.10 66.62 365.52 64.05 367.02 62.05 C 368.19 61.12 369.55 60.47 370.86 59.75 C 369.81 61.95 368.95 64.24 368.28 66.59 C 367.53 70.02 363.66 71.47 362.64 74.77 C 361.77 77.05 363.35 79.21 363.98 81.33 C 366.71 81.48 369.44 81.74 372.10 82.42 C 368.10 84.50 361.69 85.65 361.51 91.18 C 363.12 91.28 364.73 91.37 366.35 91.47 C 365.09 92.31 363.81 93.14 362.55 93.96 C 363.30 94.73 364.06 95.48 364.83 96.25 C 362.64 96.97 360.41 97.57 358.28 98.42 C 357.84 102.37 361.91 105.18 363.11 108.79 C 364.97 108.00 367.22 106.81 368.42 109.22 C 366.37 109.72 364.33 110.23 362.29 110.76 C 361.52 109.43 361.30 107.61 359.97 106.72 C 357.62 106.19 355.23 105.78 352.91 105.11 C 352.14 105.34 351.37 105.59 350.61 105.83 C 350.60 105.07 350.58 103.55 350.57 102.79 C 348.73 102.51 346.89 102.25 345.06 102.01 C 345.55 104.80 345.89 107.62 345.93 110.47 C 345.22 109.43 344.55 108.38 343.89 107.33 C 342.72 107.12 341.56 106.90 340.40 106.69 C 340.39 106.09 340.36 104.90 340.34 104.30 C 340.85 103.45 341.35 102.59 341.84 101.74 C 338.27 102.90 336.34 106.32 333.38 108.40 C 334.10 106.43 334.90 104.50 335.68 102.56 C 333.29 102.46 330.47 103.49 328.50 101.65 C 330.45 101.43 332.40 101.29 334.36 101.13 C 334.38 98.20 331.16 98.32 329.09 98.38 C 325.65 99.33 322.44 100.96 319.01 101.95 C 318.83 101.23 318.46 99.79 318.28 99.08 C 321.78 96.99 323.38 93.00 326.82 90.86 C 324.76 89.94 322.70 89.03 320.66 88.08 C 321.71 87.79 322.76 87.50 323.82 87.21 C 325.24 83.02 328.91 78.98 326.55 74.41 C 327.20 74.60 327.86 74.80 328.52 75.00 C 331.33 71.08 334.89 67.32 334.46 62.08 C 333.68 61.55 332.90 61.02 332.14 60.49 C 333.45 60.26 334.76 60.02 336.08 59.78 C 336.19 56.71 334.71 54.10 332.89 51.77 C 334.29 51.69 335.70 51.61 337.10 51.52 C 336.58 51.38 335.53 51.08 335.01 50.94 C 335.80 49.95 336.58 48.96 337.37 47.97 C 336.54 47.79 334.88 47.42 334.05 47.24 C 335.59 46.06 337.23 44.98 338.53 43.52 C 339.34 41.95 339.35 40.10 339.86 38.43 M 356.84 96.13 C 356.73 96.47 356.51 97.17 356.41 97.52 C 358.47 97.07 360.53 96.60 362.60 96.14 C 362.00 95.60 361.40 95.08 360.79 94.57 C 359.47 95.10 358.16 95.62 356.84 96.13 Z" />
</g>
<g id="#d18095ff">
<path fill="#d18095" opacity="1.00" d=" M 346.91 64.63 C 350.25 64.70 345.43 67.66 346.91 64.63 Z" />
</g>
<g id="#e3aebeff">
<path fill="#e3aebe" opacity="1.00" d=" M 57.20 73.23 C 58.84 72.72 59.37 73.27 58.80 74.90 C 57.16 75.41 56.63 74.86 57.20 73.23 Z" />
</g>
<g id="#e53767ff">
<path fill="#e53767" opacity="1.00" d=" M 45.30 74.48 C 46.25 73.31 48.54 74.73 47.58 76.07 C 46.62 77.31 44.35 75.81 45.30 74.48 Z" />
<path fill="#e53767" opacity="1.00" d=" M 374.31 79.07 C 375.15 78.07 377.65 77.99 377.74 79.63 C 377.40 81.47 373.06 81.20 374.31 79.07 Z" />
<path fill="#e53767" opacity="1.00" d=" M 368.61 107.73 C 370.21 106.31 372.33 106.43 374.32 106.61 C 372.67 107.88 370.64 108.25 368.61 107.73 Z" />
<path fill="#e53767" opacity="1.00" d=" M 190.90 141.32 C 194.03 140.77 197.22 140.90 200.31 141.59 C 198.43 143.34 194.07 142.82 194.23 146.08 C 193.17 144.46 192.11 142.83 190.90 141.32 Z" />
<path fill="#e53767" opacity="1.00" d=" M 283.93 145.03 C 288.99 146.93 292.20 151.66 296.11 155.17 C 291.32 152.84 286.70 149.69 283.93 145.03 Z" />
<path fill="#e53767" opacity="1.00" d=" M 140.34 170.10 C 141.15 169.03 143.58 169.02 143.76 170.62 C 143.52 172.52 139.19 172.24 140.34 170.10 Z" />
<path fill="#e53767" opacity="1.00" d=" M 282.08 213.91 C 283.59 215.39 284.49 217.34 284.44 219.47 C 283.38 217.74 282.55 215.88 282.08 213.91 Z" />
<path fill="#e53767" opacity="1.00" d=" M 310.64 282.85 C 312.37 281.67 314.25 280.71 316.19 279.91 C 315.95 282.82 312.74 282.54 310.64 282.85 Z" />
<path fill="#e53767" opacity="1.00" d=" M 327.54 296.40 C 325.06 295.03 324.95 290.90 327.55 289.60 C 327.71 291.86 327.71 294.13 327.54 296.40 Z" />
<path fill="#e53767" opacity="1.00" d=" M 61.37 297.24 C 63.03 296.69 65.01 298.83 64.61 300.45 C 63.16 300.72 60.85 298.77 61.37 297.24 Z" />
<path fill="#e53767" opacity="1.00" d=" M 50.96 297.88 C 53.15 298.76 54.37 300.68 54.73 302.95 C 53.13 301.53 51.78 299.86 50.96 297.88 Z" />
<path fill="#e53767" opacity="1.00" d=" M 319.17 312.12 C 320.67 314.02 320.45 316.48 319.49 318.56 C 319.17 316.43 319.07 314.27 319.17 312.12 Z" />
<path fill="#e53767" opacity="1.00" d=" M 61.96 329.10 C 63.49 327.55 65.26 326.25 67.18 325.22 C 65.96 327.12 64.12 328.44 61.96 329.10 Z" />
<path fill="#e53767" opacity="1.00" d=" M 110.65 329.88 C 111.96 330.79 113.19 331.83 114.34 332.96 C 115.71 333.07 117.08 333.19 118.45 333.32 C 115.55 336.40 112.01 332.56 110.65 329.88 Z" />
<path fill="#e53767" opacity="1.00" d=" M 257.52 337.35 C 259.76 335.43 262.69 336.43 265.25 337.00 C 262.71 337.55 260.10 337.38 257.52 337.35 Z" />
<path fill="#e53767" opacity="1.00" d=" M 87.35 341.33 C 90.72 341.27 86.00 344.41 87.35 341.33 Z" />
<path fill="#e53767" opacity="1.00" d=" M 366.48 361.90 C 367.70 363.19 368.89 364.52 370.09 365.85 C 369.32 365.77 367.78 365.61 367.01 365.53 C 366.35 366.84 365.69 368.15 364.98 369.44 C 365.28 366.89 365.80 364.37 366.48 361.90 Z" />
<path fill="#e53767" opacity="1.00" d=" M 373.41 365.12 C 376.46 364.94 379.39 365.85 382.11 367.15 C 379.12 366.96 376.14 366.39 373.41 365.12 Z" />
</g>
<g id="#dec2ccff">
<path fill="#dec2cc" opacity="1.00" d=" M 370.23 90.27 C 370.73 90.76 370.73 90.76 370.23 90.27 Z" />
</g>
<g id="#ffe4edff">
</g>
<g id="#f285a2ff">
</g>
<g id="#d7a3b1ff">
<path fill="#d7a3b1" opacity="1.00" d=" M 314.12 100.98 C 317.06 99.38 314.32 104.32 314.12 100.98 Z" />
</g>
<g id="#d88798ff">
<path fill="#d88798" opacity="1.00" d=" M 350.66 107.13 C 352.20 105.99 355.48 107.42 354.83 109.49 C 353.40 109.56 351.29 108.30 350.66 107.13 Z" />
</g>
<g id="#ffeff4ff">
</g>
<g id="#fef2eeff">
</g>
<g id="#d85e7dff">
<path fill="#d85e7d" opacity="1.00" d=" M 273.91 130.34 C 275.37 131.43 276.82 132.54 278.25 133.68 C 277.34 133.57 276.43 133.47 275.53 133.37 C 274.95 134.38 274.36 135.39 273.78 136.39 C 273.84 134.38 273.87 132.36 273.91 130.34 Z" />
</g>
<g id="#f1f4eeff">
</g>
<g id="#eef6f0ff">
</g>
<g id="#f7f2ebff">
</g>
<g id="#db8ba2ff">
<path fill="#db8ba2" opacity="1.00" d=" M 286.91 245.06 C 288.55 244.56 289.10 245.12 288.56 246.73 C 286.92 247.23 286.37 246.67 286.91 245.06 Z" />
</g>
<g id="#f2f3f0ff">
</g>
<g id="#e7587eff">
<path fill="#e7587e" opacity="1.00" d=" M 164.15 272.78 C 165.25 273.32 166.37 273.89 167.22 274.81 L 165.41 273.85 C 165.80 276.67 166.20 279.49 166.57 282.31 C 167.03 282.66 167.93 283.35 168.39 283.70 L 169.11 284.26 C 168.06 283.71 166.10 284.00 165.73 282.59 C 164.81 279.40 164.48 276.07 164.15 272.78 Z" />
</g>
<g id="#fff5efff">
</g>
<g id="#e6c2ceff">
<path fill="#e6c2ce" opacity="1.00" d=" M 329.45 275.25 C 330.80 274.25 332.23 276.62 330.95 277.52 C 329.59 278.48 328.17 276.15 329.45 275.25 Z" />
</g>
<g id="#ef1857ff">
<path fill="#ef1857" opacity="1.00" d=" M 94.80 297.97 C 101.70 297.23 101.94 288.64 107.42 285.66 C 106.95 289.44 108.31 293.66 106.15 297.07 C 105.24 298.72 104.23 300.31 103.25 301.92 C 105.68 304.10 104.47 307.31 104.05 310.07 C 104.44 310.43 105.24 311.15 105.64 311.51 C 105.20 312.80 103.98 314.09 104.58 315.55 C 105.51 318.93 106.67 322.24 107.53 325.64 C 107.09 325.60 106.22 325.52 105.78 325.48 C 104.89 324.32 104.02 323.14 103.03 322.08 C 99.79 322.56 99.29 326.18 99.16 328.82 C 96.73 332.31 95.90 337.03 98.00 340.88 C 99.59 343.62 99.79 346.73 99.23 349.79 C 99.91 350.03 101.26 350.50 101.93 350.74 C 101.25 351.82 100.57 352.89 99.89 353.97 C 102.81 357.21 107.27 358.52 109.89 362.08 C 106.94 359.94 104.05 357.66 100.59 356.39 C 98.15 355.61 96.31 353.83 94.71 351.91 C 92.40 353.61 92.28 356.58 91.43 359.09 C 90.70 355.33 93.02 352.32 94.29 349.02 C 93.10 347.26 91.27 346.10 89.67 344.76 C 90.77 345.02 92.96 345.55 94.06 345.82 C 92.62 344.15 91.12 342.53 89.78 340.79 C 84.83 335.03 90.09 326.43 84.82 320.94 C 83.03 325.77 83.52 332.44 78.48 335.36 C 78.27 332.89 78.17 330.42 77.98 327.96 C 75.62 327.76 73.38 327.01 72.10 324.90 C 72.95 324.87 74.63 324.80 75.47 324.77 C 75.78 322.88 76.08 320.99 76.36 319.10 C 73.10 319.29 69.84 319.45 66.58 319.41 C 67.15 321.06 67.73 322.72 68.26 324.39 C 66.55 322.54 64.97 320.57 63.15 318.83 C 62.05 317.58 59.70 317.16 58.74 318.80 C 57.51 321.29 57.61 324.57 55.19 326.33 C 55.58 322.53 58.05 319.45 59.13 315.87 C 56.35 314.61 52.26 314.16 51.01 311.02 C 51.72 308.15 54.26 306.33 56.51 304.68 C 56.73 305.67 57.17 307.66 57.38 308.65 C 57.72 308.06 58.40 306.87 58.74 306.27 C 61.35 307.36 64.01 308.61 66.92 308.40 C 69.88 308.16 73.02 310.60 75.74 308.58 C 77.81 306.16 78.45 302.89 79.75 300.05 C 81.26 301.04 82.46 304.46 84.65 303.07 C 84.94 302.27 85.53 300.66 85.82 299.86 C 86.52 300.47 87.22 301.08 87.92 301.70 C 90.12 300.64 93.52 299.99 93.65 297.00 C 93.63 293.98 91.30 291.65 90.02 289.07 C 93.01 291.11 94.37 294.48 94.80 297.97 Z" />
</g>
<g id="#fff0ebff">
</g>
<g id="#ef1656ff">
<path fill="#ef1656" opacity="1.00" d=" M 341.92 299.71 C 343.03 297.20 344.50 294.87 346.13 292.67 C 345.95 295.70 344.23 298.21 343.08 300.92 C 345.76 305.22 349.26 309.22 349.91 314.46 C 350.94 313.15 351.92 311.81 352.89 310.45 C 353.32 310.36 354.20 310.18 354.64 310.08 C 354.96 310.86 355.59 312.42 355.91 313.20 C 357.41 312.05 358.39 310.45 359.15 308.74 C 360.47 308.35 361.80 307.98 363.13 307.62 C 363.27 305.00 363.32 302.37 363.44 299.76 C 363.79 303.39 365.01 307.16 363.69 310.74 C 362.55 312.79 364.72 314.21 365.73 315.76 C 365.13 315.78 363.92 315.82 363.32 315.84 C 364.46 319.16 363.03 322.39 361.95 325.51 C 362.63 325.77 363.97 326.29 364.64 326.55 C 364.47 327.22 364.30 327.90 364.14 328.58 C 365.76 330.74 365.57 333.36 365.49 335.90 C 366.66 338.98 369.20 341.37 370.12 344.59 C 370.69 346.81 372.24 348.51 373.99 349.92 C 374.31 349.22 374.93 347.84 375.25 347.15 C 375.52 349.85 375.96 352.53 376.49 355.19 C 379.64 355.19 383.21 355.00 385.52 357.58 C 383.29 356.76 380.99 355.68 378.57 356.43 C 375.38 357.43 372.61 355.10 369.64 354.37 C 369.83 354.94 370.21 356.09 370.40 356.67 C 370.24 356.98 369.91 357.62 369.75 357.94 C 369.30 356.36 369.78 353.94 367.88 353.23 C 367.15 353.11 365.67 352.88 364.93 352.76 C 365.17 354.14 365.44 355.52 365.72 356.90 C 364.71 356.78 363.70 356.66 362.70 356.55 C 362.79 355.34 362.86 354.12 362.95 352.92 C 362.19 352.74 360.65 352.37 359.88 352.19 C 359.71 354.90 360.08 357.74 359.23 360.36 C 357.94 362.83 356.02 364.88 354.21 366.98 C 354.60 368.12 355.01 369.28 355.43 370.44 C 354.88 370.38 353.79 370.25 353.25 370.19 C 352.01 364.22 360.10 361.70 359.06 355.68 C 357.50 354.70 356.02 353.60 354.58 352.47 C 353.32 353.57 352.10 354.71 350.85 355.82 C 351.86 354.37 352.92 352.96 353.98 351.55 C 351.22 348.53 349.28 344.96 347.31 341.41 C 346.57 342.30 345.84 343.19 345.11 344.09 C 344.99 343.34 344.77 341.84 344.66 341.09 C 345.42 340.06 346.19 339.04 346.92 337.98 C 343.68 339.54 340.59 341.56 336.80 340.63 C 334.44 343.18 330.78 342.64 327.78 343.79 C 325.91 344.96 325.09 347.21 323.98 349.04 C 322.53 351.51 323.51 354.46 323.53 357.14 C 319.89 352.30 320.11 346.04 321.43 340.41 C 320.92 340.47 319.90 340.59 319.40 340.65 C 319.87 339.10 320.28 337.52 320.44 335.90 C 322.08 335.32 324.76 335.52 325.03 333.26 C 325.69 329.77 328.03 327.16 330.75 325.04 C 330.31 324.55 329.42 323.57 328.98 323.08 C 330.99 323.44 333.59 325.18 335.25 323.14 C 337.09 320.86 336.96 317.69 337.98 315.04 C 337.55 314.65 336.67 313.88 336.23 313.50 C 335.35 313.81 333.57 314.45 332.69 314.77 C 334.28 312.62 337.08 312.31 339.16 310.88 C 340.66 307.72 340.22 304.04 340.79 300.66 C 340.36 300.32 339.51 299.64 339.09 299.29 C 339.80 299.40 341.22 299.61 341.92 299.71 Z" />
</g>
<g id="#febdd8ff">
</g>
<g id="#ef7699ff">
<path fill="#ef7699" opacity="1.00" d=" M 140.78 298.08 C 142.73 300.50 144.09 303.40 143.86 306.60 C 140.78 304.84 141.12 301.11 140.78 298.08 Z" />
</g>
<g id="#fa1257ff">
<path fill="#fa1257" opacity="1.00" d=" M 216.44 308.08 C 219.05 308.18 221.66 308.33 224.27 308.56 C 223.53 310.94 223.40 313.69 221.82 315.71 C 221.44 315.81 220.69 316.02 220.31 316.12 C 220.07 313.00 218.36 310.42 216.44 308.08 Z" />
</g>
<g id="#dec1cbff">
<path fill="#dec1cb" opacity="1.00" d=" M 292.15 314.03 C 293.57 313.60 294.03 314.08 293.54 315.47 C 292.11 315.90 291.65 315.42 292.15 314.03 Z" />
</g>
<g id="#cf9ea7ff">
<path fill="#cf9ea7" opacity="1.00" d=" M 220.31 316.12 C 220.69 316.02 221.44 315.81 221.82 315.71 C 221.67 316.07 221.38 316.80 221.24 317.16 L 220.40 316.90 L 220.31 316.12 Z" />
</g>
<g id="#db8ba0ff">
<path fill="#db8ba0" opacity="1.00" d=" M 75.45 331.09 C 78.39 329.45 75.71 334.41 75.45 331.09 Z" />
</g>
<g id="#d58d9eff">
<path fill="#d58d9e" opacity="1.00" d=" M 105.08 331.12 C 106.68 330.61 107.27 331.18 106.85 332.81 C 105.24 333.31 104.65 332.75 105.08 331.12 Z" />
</g>
<g id="#edf7eeff">
</g>
</svg>
