<svg width="578" height="552" viewBox="0 0 578 552" fill="none" xmlns="http://www.w3.org/2000/svg">
<path d="M284.293 35.48C289.907 42.4666 293.36 51.08 299.827 57.4C302.253 59.68 303.173 62.96 304.84 65.7333C306.693 67.8266 309.227 69.16 311.6 70.5733C311.667 68.4933 311.733 66.4133 311.773 64.3333C317.4 67.3866 318.28 74.4133 323.133 78.2266C327.147 81.5066 331.16 85.2267 336.44 86.2533C337.92 89.5333 339.507 92.7733 341.24 95.9333C342.693 95.6533 344.147 95.3866 345.6 95.12C346.667 93.64 347.733 92.16 348.813 90.6933C351.16 95.6666 353.013 100.893 355.56 105.773C359.827 109.88 365.187 112.667 369.573 116.68C370.253 119.68 371.373 122.72 374.053 124.493C380.867 129.733 386.627 136.453 394.453 140.24C398.24 142.613 401.333 146.04 405.52 147.787C409.987 149.72 414.053 152.787 418.84 153.827C425.613 153.733 432.253 155.267 439.013 155.413C436.8 159.467 433.093 162.32 428.987 164.24C430 165.413 431.04 166.587 432.067 167.747C434.613 166.933 437.547 165.84 437.813 169.76C441.347 167.627 444.293 164.72 447.507 162.173C446.92 170.627 445.2 178.947 444.453 187.387C445.827 188.453 447.187 189.52 448.56 190.587C449.52 201.707 449.72 212.853 450.187 224C450.133 226.387 451.253 228.52 452.267 230.613C448.8 237.853 451.413 246.267 453.44 253.573C455.747 252.547 457.733 250.947 459.84 249.56C459.573 252.813 457.48 255.28 455.267 257.507C456.067 264.013 456.467 271.253 461 276.44C463.573 279.333 465.387 282.773 466.213 286.56C463 284.907 459.96 282.947 456.667 281.48C456.96 284.987 457.733 288.453 457.8 291.987C457.227 295.547 456.04 298.987 455.44 302.547C457.187 303.347 458.933 304.173 460.693 305C460.32 309.373 459.893 313.733 459.653 318.12C458.787 318.347 457.08 318.8 456.227 319.027C455.707 323.36 456.24 327.707 455.973 332.04C455.64 335.24 452.587 337.12 451.28 339.867C450.787 343.2 450.493 346.56 449.68 349.84C448.387 348.147 445.853 346.627 446.467 344.133C447.307 341.413 449.413 338.987 448.867 335.987C448.053 326.92 446.867 317.893 445.747 308.867C442.853 309 438.8 312.027 436.88 308.547C434.307 305.133 435 300.56 437.293 297.213C436.227 296.013 435.16 294.813 434.093 293.627C432.36 293.973 430.64 294.32 428.92 294.68C428.547 288.36 428.44 282.027 427.707 275.72C426.547 265.747 427.373 255.307 423.32 245.88C424.133 245.827 425.747 245.72 426.56 245.68C425.307 241.253 426.32 235.427 422.093 232.48C415.2 226.907 411.693 218.027 411.187 209.347C410.973 205 406.587 202.653 403.733 199.987C401.307 197.72 397.733 199.693 394.987 198.32C387.107 194.333 380.84 187.933 373.413 183.253C371.4 186.333 368.773 188.893 365.253 190.12C364.787 194.747 363.907 199.32 363.053 203.893C361.48 205.36 359.933 206.84 358.4 208.333C355.44 200.547 355.893 192.227 355.16 184.093C352.48 174.6 348.2 165.52 342.64 157.347C340.067 153.24 337.627 148.053 332.28 147.293C332.48 153.12 333.44 159.307 330.507 164.693C328.827 156.4 329.973 147.32 325.653 139.68C322.987 136.013 320.333 132.067 316 130.253C315.84 131.053 315.507 132.64 315.347 133.44C314.693 132.453 314.04 131.467 313.4 130.467C312.747 130.773 311.453 131.373 310.8 131.68C309.36 130.667 307.907 129.68 306.44 128.707C306.347 130.107 306.267 131.493 306.227 132.893C305.68 132.28 304.587 131.067 304.04 130.453C303.04 132.32 302.24 134.267 301.413 136.213C299.04 128.693 293.133 123.507 286.853 119.187C287.8 116.44 288.52 113.64 288.987 110.787C288.373 111.8 287.747 112.813 287.133 113.827C283.333 115.027 281.64 118.573 280.413 122.067C278.08 128.627 270.467 130.587 267.053 136.36C264.68 140.2 261.107 142.973 257.827 145.96C255.267 149.107 253.507 152.813 250.96 155.987C251.467 152.48 252.187 149 252.907 145.533C250.333 145.52 246.427 147.907 245.573 144.12C243.44 144.587 241.32 145.04 239.2 145.493C240.373 143.693 241.507 141.88 242.613 140.04C240.6 141.307 238.613 142.653 236.68 144.04C236.533 142.853 236.253 140.467 236.107 139.28C234.733 140.013 233.4 140.8 232.107 141.653C232.08 144.147 235.013 144.2 236.587 145.253C235.973 145.773 234.747 146.84 234.133 147.373C228.6 146.173 222.96 145.573 217.307 145.24C213.733 144.84 213.04 149.4 213.08 152.027C212.853 157.867 218.64 160.88 221.733 165C216.853 164.907 213.427 160.76 208.747 159.88C212.787 166.987 221.56 167.747 227.72 172.173C223.68 172.96 218.027 171.187 216.36 176.213C221.92 177.52 227.787 177.613 233.067 179.947C238.933 182.373 243.6 186.893 249.44 189.387C249.227 185.96 247.333 183.12 245.507 180.36C248.493 183.067 251.813 185.44 254.533 188.427C256.147 190.44 257.56 192.613 258.973 194.773C260.2 196.64 261.467 198.493 262.813 200.28C260.653 206.84 266.6 211.387 270.333 215.827C271.52 215.333 273.907 214.333 275.093 213.84C273.32 212.373 271.547 210.933 269.76 209.493C270.293 207.667 270.827 205.827 271.36 204C272.24 204.56 273.12 205.133 274 205.693C274.88 208.4 274.76 211.76 277.2 213.667C283.013 218.48 286.373 225.84 293.347 229.28C298.387 231.76 300.227 237.893 305.4 240.107C311.093 242.573 315.053 247.773 317.48 253.333C312.373 250.293 307.227 247.16 301.333 245.88C303.8 248.773 308.427 250.587 309.173 254.427C308.667 254.733 307.667 255.347 307.16 255.653C307.307 256.76 307.453 257.867 307.627 258.973C309.093 259.533 310.547 260.093 312.013 260.68C311.973 259.547 311.88 257.293 311.827 256.16C313.867 255.493 316.333 257.387 318.56 257.52C318.88 258.107 319.52 259.293 319.853 259.893C321.68 259.773 323.507 259.68 325.333 259.573C325.12 257.693 324.893 255.827 324.68 253.947C325.307 253.947 326.547 253.947 327.16 253.947C331.96 257.4 336.987 260.507 341.587 264.24C340.733 265.973 339.853 267.693 338.96 269.413C342.333 273.787 347.8 274.813 352.92 275.733C352 277.613 351.093 279.507 350.187 281.387C353.04 282.533 355.907 283.64 358.733 284.88C359.64 283.6 360.467 282.28 361.32 280.96C364.52 283.76 367.52 286.933 369.12 290.933C366.653 288.92 364.64 286.427 362.533 284.08C361.36 286.293 360.427 288.6 359.453 290.907C362.093 292.373 364.813 293.72 367.6 294.92C374.813 292.893 380.133 298.667 384.253 303.627C385.4 305.76 385.8 308.213 386.893 310.387C389.893 313.613 393.867 315.987 396.04 319.947C398.56 324.533 400.587 329.387 403.827 333.547C405.16 334.947 404.84 336.88 404.373 338.573C400.573 332.427 394.053 329.147 388.68 324.64C383.747 320.893 377.867 318.707 372.68 315.347C369.093 312.733 364.64 313.987 360.64 314.48C360.707 315.413 360.84 317.28 360.893 318.213C350.88 314.267 341.84 306.96 330.627 306.867C326.04 307.013 321.947 304.907 317.893 303.067C317.573 307.6 318.093 312.413 315.88 316.573C314.44 309.653 315.427 300.947 309.293 296.067C301.92 289.907 293.84 284.68 285.88 279.347C282.653 277.453 279.267 274.547 275.253 275.533C272.333 275.84 272.067 279.813 272.8 282.013C276.307 288.24 283.493 290.813 288.027 296.133C290.72 299.24 294.733 300.533 298.107 302.707C286.533 301.867 277.067 294.093 269.107 286.32C268.16 286.627 267.213 286.933 266.28 287.253C264.4 285.587 262.52 283.947 260.64 282.307C259.8 274.4 253 269.253 248.333 263.427C247.2 263.707 244.947 264.28 243.813 264.56C242.4 263.6 240.987 262.667 239.56 261.747C236.76 254.387 229.32 249.72 227.88 241.667C223.107 242.44 218.507 244.987 216.227 249.387C214.467 251.84 213.773 255.987 209.92 255.667C206.627 264.92 210.2 274.573 209.573 284C209.68 286.253 207.533 287.48 206.2 288.907C204.533 278.013 204.693 266.947 204.693 255.96C204.68 249.053 202.173 242.507 199.893 236.107C199.4 232.147 198.28 228.333 196.693 224.68C192.147 222.827 188.333 219.6 183.853 217.68C179.573 217.053 176.92 221.133 174.56 223.987C170.533 228.733 167.08 234.12 165.493 240.2C165.933 245.107 166.573 250.013 167.467 254.867C168.88 262 166.067 269.12 167.32 276.293C166.027 274.12 164.107 272.067 164.36 269.36C164.56 261.72 164.24 254.093 163.147 246.533C155.973 243.2 151.067 236.893 145 232.08C143.907 234.627 141.8 237.147 142.44 240.093C143.24 242.28 144.92 243.973 146.587 245.547C147.2 244.907 148.427 243.64 149.027 243C149.92 249.027 150.293 255.187 149.52 261.24C145.533 268.613 138.36 273.613 133.813 280.6C133.92 284.733 138.027 287.667 139.013 291.68C141.227 299.72 146.627 306.707 146.373 315.36C152.347 312.24 152.427 305.16 155.2 299.813C157.133 294.253 156.6 288.213 157.013 282.427C163.333 283.493 158.92 292.067 163.627 295.12C161.76 302.427 163.213 309.987 161.92 317.373C161.147 322.213 163.84 326.6 165.8 330.8C166.493 328.947 167.187 327.093 167.853 325.227C169.147 328.693 170.093 332.533 172.96 335.093C176.347 338.427 181.133 340.333 183.533 344.613C187.093 350.493 189.867 357.587 196.56 360.627C196.36 355.507 195.547 350.44 194.667 345.4C197.76 347.733 200.707 350.68 204.733 351.227C205.387 346.293 200.027 343.573 198.72 339.107C204.88 342.12 207.853 348.693 213.413 352.427C211.573 348.2 208.547 344.493 207.733 339.867C209.747 341.907 211.307 344.44 213.667 346.107C215.307 346.307 217.027 345.987 218.627 346.467C221.24 349.493 223.213 353 225.307 356.4C224.24 356.387 222.093 356.36 221.027 356.36C223.24 359.453 225.853 362.213 228.653 364.8C228.613 365.84 228.533 367.92 228.493 368.96C233.307 374 239.573 377.773 242.92 384.12C241.2 383.4 239.507 382.613 237.827 381.827C237.147 382.453 235.813 383.72 235.147 384.347C233.787 384.48 232.44 384.613 231.093 384.733C230.213 387.68 229.4 390.653 228.693 393.653C233.72 392.427 234.76 384.92 240.533 386.4C243.253 387.067 246.173 387.333 248.613 388.813C251.893 391.16 254.547 394.387 258.28 396.093C264.32 398.8 270.013 402.187 275.68 405.613C282.36 409.4 284.853 417.347 291.053 421.733C291.013 423.453 290.973 425.173 290.933 426.907C294.92 425.573 300.013 425.307 302.333 421.253C305.347 416.653 309.64 413.12 312.973 408.773C316.907 403.173 324.413 402.773 330.587 401.867C336.227 403.027 342.04 404.173 347.76 402.64C347.573 401.8 347.2 400.133 347.013 399.293C342.973 399.507 339.013 400.347 335 400.747C335.587 399.92 336.773 398.267 337.36 397.453C342.747 395.28 348.427 393.973 353.813 391.813C353.92 390.947 354.107 389.213 354.213 388.347C357.627 387.787 361.093 387.547 364.56 387.467C365.12 388.187 366.24 389.613 366.8 390.333C369.88 390.52 372.96 390.773 376.027 391.027C373.667 392.427 371.347 393.92 369.107 395.52C372.733 395.907 376.387 396 380.013 396.453C382.893 396.853 385.6 399.147 388.573 398.107C393.32 396.48 397.693 393.933 402.4 392.213C408.987 393.653 416.12 393.187 422.467 390.947C422.787 388.933 423.107 386.92 423.453 384.92C425.653 387.827 427.667 390.867 429.6 393.947C421.88 394.6 413.973 399.6 411.027 406.933C409.773 414.227 409.053 421.76 406.04 428.627C405.333 421.04 405.04 413.36 402.827 406.013C399.667 407.053 397.627 409.587 396.267 412.493C392.307 412.6 388.107 413.427 385.187 416.307C383.213 422.947 383.653 430.08 383.733 436.973C382.04 436.48 380.347 435.987 378.667 435.48C379.347 435.453 380.707 435.4 381.387 435.373C381.027 432.4 380.933 429.387 380.48 426.427C377.653 424.44 374.08 425.707 370.92 425.867C370.28 425.427 368.987 424.547 368.347 424.12C359.84 427.08 350.68 428.133 342.533 432.067C339.133 434.707 338.973 439.667 336.427 443.013C332.053 448.867 326.827 454.027 322.227 459.707C320.533 459.693 318.853 459.693 317.16 459.68C317.133 462.24 317.107 464.8 317.067 467.36C314.12 468.333 310.173 468.067 308.427 471.133C306.427 474.347 303.813 477.12 300.027 478.133C297.56 474.48 293.667 472.32 289.96 470.147C288.28 468.987 286.267 469.893 284.453 470.053C284.413 469.347 284.32 467.96 284.28 467.253C279.453 469.88 274.44 473.067 271.88 478.107C270.6 483.64 271.48 489.56 269.307 494.933C267.827 494.48 267.04 493.507 266.947 492.013C265.88 486.72 267.307 481.293 266.333 475.987C265.72 472.027 264.867 468.093 264.96 464.08C265.227 460.053 262.827 456.627 261.413 453.04C260.453 452.853 258.52 452.48 257.547 452.293C257.773 450.707 257.987 449.12 258.227 447.533C252.493 445.4 247.56 441.72 242.093 439.067C238.213 437.12 233.827 436.933 229.613 436.373C225.893 439.4 222.627 435.507 220.6 432.547C219.08 430.573 219.613 428 219.4 425.707C214.493 423.52 210.053 420.44 205.213 418.133C202.4 423.413 202.653 429.493 201.227 435.16C199.04 429.44 200.2 423.293 199.267 417.4C197.133 414.24 193.88 412.027 191.813 408.8C192.12 404.533 190.307 400.667 187.707 397.44C180.147 387.493 168.68 382 159.4 374.027C157.773 373.2 156.04 372.68 154.347 372.067C154.107 370.32 153.88 368.587 153.64 366.853C150.587 368.96 146.84 369.013 143.307 368.587C141.04 366.893 141.947 363.933 141.76 361.533C135.693 358.88 129.173 356.373 125.293 350.64C120.32 343.36 116.213 335.32 113.947 326.76C113.427 323.693 109.853 323.28 107.587 322.013C107.96 315.013 105.96 307.973 107.587 301.04C108.8 295.293 113.413 291.067 114.707 285.347C115.013 282.987 117.053 281.707 118.653 280.227C119.027 278.453 119.533 276.693 120.76 275.307C123.36 271.96 124.573 267.853 126.493 264.147C123.147 256.12 119.8 247.427 121.227 238.573C122.08 230.72 125.213 223.253 125.187 215.293C123.733 218.64 122.587 222.12 121.08 225.453C120.947 221.027 120.347 216.4 121.947 212.16C122.667 209.56 126.04 209.653 127.933 208.36C126.88 207.48 125.813 206.627 124.747 205.787C125.227 205.093 126.2 203.72 126.68 203.04C127.68 204.16 128.68 205.28 129.733 206.36C133.48 200.64 132.8 193.653 132.76 187.16C133.693 187.093 135.56 186.973 136.493 186.907C136.6 185.773 136.813 183.507 136.92 182.36C137.347 184.187 137.813 186.013 138.48 187.773C142.987 189.307 144.267 183.6 145.947 180.747C144.88 180.72 142.747 180.667 141.68 180.64C141.613 178.293 141.547 175.947 141.493 173.613C142.507 173.64 144.533 173.68 145.547 173.707C148.6 166.573 152.36 159.787 156.653 153.32C155.76 152.067 154.88 150.813 154 149.56C154.773 148.267 155.533 146.973 156.293 145.68C156.4 143.573 155.56 140.653 158.053 139.587C161.613 137.32 165.08 134.933 168.253 132.147C175.013 127.693 183.16 125.987 191.013 124.573C191.613 123.947 192.813 122.68 193.4 122.053C196.027 124.427 199.653 124.827 203 125.387C200.867 123.533 198.613 121.827 196.52 119.947C197.813 118.413 199.013 116.8 200.107 115.107C201.453 116.187 202.707 117.387 204.173 118.32C206.88 118.96 209.427 117.333 211.96 116.613C211.36 116.293 210.16 115.64 209.56 115.32C210.667 113.987 211.773 112.64 212.853 111.28C214.173 110.787 215.493 110.28 216.827 109.787C217.027 108.333 217.253 106.88 217.48 105.44C219.107 105.947 220.747 106.467 222.4 106.973C225.36 104.96 228.733 103.68 232.16 102.667C236.613 101.493 239.693 97.88 243.187 95.1333C247.56 91.2266 254.107 90.4667 257.667 85.5333C261.373 81.7066 262.147 75.2666 267.573 73.2533C269.253 68.96 274.973 69 276.44 64.6266C278.013 64.6 279.587 64.44 280.8 63.2666C279.547 63.32 277.053 63.44 275.8 63.4933C277.32 60.92 278.813 58.32 280.227 55.68C282.027 55.16 284.613 55.7333 285.56 53.68C288.547 47.7733 285.147 41.4533 284.293 35.48ZM236.28 128.413C235.56 130.573 236.293 131.307 238.48 130.627C239.2 128.48 238.467 127.733 236.28 128.413ZM222.76 135.053C225.867 135.2 228.987 135.147 232.107 135.053C232.347 134.467 232.84 133.28 233.08 132.68C229.587 133.133 225.32 131.88 222.76 135.053ZM347.933 157.373C348.88 160.133 349.28 163.84 352.8 164.373C352.68 163.56 352.427 161.933 352.307 161.12C350.853 159.867 349.4 158.613 347.933 157.373ZM361.933 166.467C362.893 166.333 364.827 166.067 365.787 165.933C365.747 164.387 365.707 162.827 365.667 161.28C364.373 162.973 363.133 164.693 361.933 166.467ZM363.133 169.547C363.133 174.133 362.52 179.08 364.987 183.2L365.04 181.853C365.813 180.52 366.6 179.173 367.373 177.827C368.573 177.96 369.787 178.093 371 178.24C372.16 179.16 373.333 180.08 374.507 181C377.24 180.373 379.973 179.733 382.707 179.04C377.2 173.987 369.187 173.787 363.133 169.547ZM162.147 223.653C164.907 227.2 165.293 231.493 164.973 235.853C168.36 230.96 172.093 225.613 171.28 219.333C172.08 219.32 173.667 219.293 174.467 219.28C176.187 217.8 177.933 216.347 179.693 214.92C175.8 212.4 173.213 208.56 170.747 204.733C168.453 211.307 165.253 217.48 162.147 223.653ZM126.293 245.627C126.547 247.933 127.56 250.067 128.32 252.24C129.507 247.653 130.813 243.067 131.533 238.373C129.187 240.253 126.787 242.507 126.293 245.627ZM129.107 255.707C128.053 257.947 129.667 260.187 129.88 262.427C128.747 270.267 122.16 277.627 125.213 285.773C126.72 283.053 127.6 280.013 129.253 277.373C131.987 275.573 135.933 274.707 135.787 270.653C138.693 268.907 140.667 265.24 139.093 261.96C136.373 255.173 138.507 247.787 138.133 240.733C133.813 244.787 131.373 250.333 129.107 255.707ZM314.493 262.2C316.04 265.2 317.853 268.067 319.84 270.813C320.92 270.44 322 270.067 323.093 269.707C324.387 270.573 325.707 271.4 327.053 272.187C327.36 268.467 325.52 264.84 322.68 262.52C320 261.893 317.2 262.253 314.493 262.2ZM209.56 355.933C209.987 359.027 211.32 361.867 212.827 364.573C213.587 364.693 215.107 364.907 215.88 365.027C214.627 361.44 213.213 357.68 209.56 355.933ZM159.4 359.893C158.307 366.973 163.84 372.653 169.28 376.227C174.813 379.907 179.573 385.347 186.48 386.36C185.52 379.693 183.547 373.187 181.373 366.827C179.013 362.813 175.573 358.213 170.533 357.893C166.76 357.493 162.533 357.373 159.4 359.893ZM218.867 363.707C219.307 368.093 219.747 372.533 220.973 376.787C221.467 378.667 224.08 378.28 225.48 379.013L224.52 378.267C227.467 374.267 225.96 369.787 222.96 366.413C221.827 365.187 220.333 364.427 218.867 363.707ZM413.613 396.44C411.933 396.947 410.987 399.467 412.173 400.853C414.44 401.88 416.213 396.773 413.613 396.44ZM362.173 407.16C362.173 407.987 362.187 409.627 362.187 410.44C364.92 408.2 367.587 405.827 369.507 402.827C366.627 403.427 364.267 405.173 362.173 407.16ZM269.973 463.187C270.16 466.613 270.307 470.053 270.52 473.493C273.96 470.08 277.573 466.88 281.173 463.653C278 460.92 273.64 462.88 269.973 463.187Z" fill="#07B4F0"/>
<path d="M76.6266 61.0667C80.2799 67.1733 78.1733 76.56 85.1466 80.4267C87.6133 82.2933 90.6533 82.8933 93.6266 83.4533C94.4799 81.8667 95.3199 80.2666 96.1733 78.68C97.9999 82.88 99.3599 87.48 102.467 90.9733C104.947 92.8533 107.88 94 110.44 95.7866C112.44 95.5866 114.453 95.4533 116.4 94.9067C117.093 93.2 117.467 91.3867 117.92 89.6133C120.773 85.4933 124.413 82.04 127.96 78.5467C131.307 75.4 133.213 70.6533 137.72 68.88C135.067 72.7733 131.373 76.1733 130.373 80.96C128.84 87.1867 127.76 93.52 125.707 99.6133C127.427 99.7867 129.133 99.5067 130.84 99.2933C131.387 99.4533 132.467 99.7867 133.013 99.9467C133.787 99.64 135.333 99 136.093 98.68C130.853 102.867 125.16 106.587 120.573 111.533C121.627 111.813 123.747 112.36 124.8 112.627C125.147 115.853 125.24 119.333 127.573 121.867C126.707 123.187 125.84 124.507 125.013 125.84C128.2 124 131.213 121.893 134.373 120.013C131.987 123.587 129.4 127.027 127.133 130.68C129.133 133.093 131.213 135.413 133.333 137.707C134.147 136.387 134.973 135.08 135.787 133.76C136.773 135.32 138.16 136.427 139.947 137.053C138.587 137.707 137.24 138.387 135.907 139.067C136.24 140.787 136.587 142.507 136.947 144.227C139.48 144.48 142.013 144.72 144.547 144.947C143.36 147.787 142.28 150.667 141.147 153.533C140.947 152.053 140.533 149.093 140.32 147.613C139.827 148.867 139.333 150.12 138.867 151.387C134.787 150.987 130.56 150.72 126.587 151.973C122.573 152.973 121.573 157.573 118.947 160.253C119.6 157.48 120.68 154.8 121.04 151.96C121.24 149.747 118.907 148.587 117.693 147.107C115.6 150.24 113.253 153.213 110.413 155.707C110.147 159.56 109.933 163.427 109.933 167.293C104.867 161.96 110.093 154.613 107.373 148.533C106.253 145.68 106.493 140.627 102.027 141.613C102.2 139.467 102.333 137.307 102.44 135.16C100.12 134.747 97.7866 134.347 95.4666 133.933C94.4666 135.72 93.4799 137.52 92.4399 139.293C92.2399 135.867 92.1599 132.453 92.0799 129.027C84.9199 131 77.5999 129.56 70.3733 128.84C69.8266 129.2 68.7199 129.907 68.1733 130.267C64.1999 123.693 58.3333 117.293 58.9066 109.067C59.7733 111.627 60.4533 114.227 61.1466 116.827C62.1066 116.787 64.0266 116.72 64.9866 116.68C66.0133 117.893 67.0266 119.12 68.1466 120.24C69.9466 119.733 71.6666 119.04 73.4133 118.4C72.5599 119.933 71.7199 121.48 70.8799 123.04C74.3599 123.707 78.7866 123.907 80.7599 120.28C79.6933 115.307 76.3333 111.307 73.8266 107C76.1333 108.76 78.6533 110.227 81.3866 111.213C81.6666 110.413 82.2399 108.8 82.5199 107.987C83.4933 109.467 83.9333 112.467 86.3066 110.92C86.1999 103.693 84.5599 96.5733 84.2133 89.3467C84.6133 84.9333 78.1199 84.36 78.3066 80.08C78.5866 73.6667 77.6933 67.36 76.6266 61.0667Z" fill="#07B4F0"/>
<path d="M453.147 51.24C454.147 54.2267 452.907 57.1733 452.013 60.0133C452.48 60.44 453.4 61.28 453.867 61.7067C454.747 63.96 455.533 66.6267 458.533 66.32C458.76 72.6933 457.733 79.1067 458.627 85.4533C458.427 90.0667 464.667 91.7467 463.293 96.6533C464.12 95.32 464.96 94 465.827 92.68C467.453 95.7867 468.173 99.2533 469.053 102.613C471.707 101.227 473.933 99.2533 476.12 97.24C478.707 94.7733 482.387 93.9733 485.067 91.6533C486.8 88.8267 487.36 85.4 489.36 82.7333C490.92 81.4933 492.733 80.6267 494.48 79.6667C493.08 82.6 491.933 85.6533 491.04 88.7867C490.04 93.36 484.88 95.2933 483.52 99.6933C482.36 102.733 484.467 105.613 485.307 108.44C488.947 108.64 492.587 108.987 496.133 109.893C490.8 112.667 482.253 114.2 482.013 121.573C484.16 121.707 486.307 121.827 488.467 121.96C486.787 123.08 485.08 124.187 483.4 125.28C484.4 126.307 485.413 127.307 486.44 128.333C483.52 129.293 480.547 130.093 477.707 131.227C477.12 136.493 482.547 140.24 484.147 145.053C486.627 144 489.627 142.413 491.227 145.627C488.493 146.293 485.773 146.973 483.053 147.68C482.027 145.907 481.733 143.48 479.96 142.293C476.827 141.587 473.64 141.04 470.547 140.147C469.52 140.453 468.493 140.787 467.48 141.107C467.467 140.093 467.44 138.067 467.427 137.053C464.973 136.68 462.52 136.333 460.08 136.013C460.733 139.733 461.187 143.493 461.24 147.293C460.293 145.907 459.4 144.507 458.52 143.107C456.96 142.827 455.413 142.533 453.867 142.253C453.853 141.453 453.813 139.867 453.787 139.067C454.467 137.933 455.133 136.787 455.787 135.653C451.027 137.2 448.453 141.76 444.507 144.533C445.467 141.907 446.533 139.333 447.573 136.747C444.387 136.613 440.627 137.987 438 135.533C440.6 135.24 443.2 135.053 445.813 134.84C445.84 130.933 441.547 131.093 438.787 131.173C434.2 132.44 429.92 134.613 425.347 135.933C425.107 134.973 424.613 133.053 424.373 132.107C429.04 129.32 431.173 124 435.76 121.147C433.013 119.92 430.267 118.707 427.547 117.44C428.947 117.053 430.347 116.667 431.76 116.28C433.653 110.693 438.547 105.307 435.4 99.2133C436.267 99.4667 437.147 99.7333 438.027 100C441.773 94.7733 446.52 89.76 445.947 82.7733C444.907 82.0667 443.867 81.36 442.853 80.6533C444.6 80.3467 446.347 80.0267 448.107 79.7067C448.253 75.6133 446.28 72.1333 443.853 69.0267C445.72 68.92 447.6 68.8133 449.467 68.6933C448.773 68.5067 447.373 68.1067 446.68 67.92C447.733 66.6 448.773 65.28 449.827 63.96C448.72 63.72 446.507 63.2267 445.4 62.9867C447.453 61.4133 449.64 59.9733 451.373 58.0267C452.453 55.9333 452.467 53.4667 453.147 51.24ZM475.787 128.173C475.64 128.627 475.347 129.56 475.213 130.027C477.96 129.427 480.707 128.8 483.467 128.187C482.667 127.467 481.867 126.773 481.053 126.093C479.293 126.8 477.547 127.493 475.787 128.173Z" fill="#07B4F0"/>
<path d="M462.547 86.1733C467 86.2667 460.573 90.2133 462.547 86.1733Z" fill="#07B4F0"/>
<path d="M76.2667 97.64C78.4534 96.96 79.16 97.6934 78.4 99.8667C76.2134 100.547 75.5067 99.8134 76.2667 97.64Z" fill="#07B4F0"/>
<path d="M60.4 99.3066C61.6666 97.7466 64.72 99.64 63.44 101.427C62.16 103.08 59.1333 101.08 60.4 99.3066Z" fill="#07B4F0"/>
<path d="M499.08 105.427C500.2 104.093 503.533 103.987 503.653 106.173C503.2 108.627 497.413 108.267 499.08 105.427Z" fill="#07B4F0"/>
<path d="M491.48 143.64C493.613 141.747 496.44 141.907 499.093 142.147C496.893 143.84 494.187 144.333 491.48 143.64Z" fill="#07B4F0"/>
<path d="M254.533 188.427C258.707 187.693 262.96 187.867 267.08 188.787C264.573 191.12 258.76 190.427 258.973 194.773C257.56 192.613 256.147 190.44 254.533 188.427Z" fill="#07B4F0"/>
<path d="M378.573 193.373C385.32 195.907 389.6 202.213 394.813 206.893C388.427 203.787 382.267 199.587 378.573 193.373Z" fill="#07B4F0"/>
<path d="M187.12 226.8C188.2 225.373 191.44 225.36 191.68 227.493C191.36 230.027 185.587 229.653 187.12 226.8Z" fill="#07B4F0"/>
<path d="M376.107 285.213C378.12 287.187 379.32 289.787 379.253 292.627C377.84 290.32 376.733 287.84 376.107 285.213Z" fill="#07B4F0"/>
<path d="M414.187 377.133C416.493 375.56 419 374.28 421.587 373.213C421.267 377.093 416.987 376.72 414.187 377.133Z" fill="#07B4F0"/>
<path d="M436.72 395.2C433.413 393.373 433.267 387.867 436.733 386.133C436.947 389.147 436.947 392.173 436.72 395.2Z" fill="#07B4F0"/>
<path d="M81.8267 396.32C84.04 395.587 86.68 398.44 86.1467 400.6C84.2134 400.96 81.1333 398.36 81.8267 396.32Z" fill="#07B4F0"/>
<path d="M67.9467 397.173C70.8667 398.347 72.4933 400.907 72.9733 403.933C70.84 402.04 69.04 399.813 67.9467 397.173Z" fill="#07B4F0"/>
<path d="M425.56 416.16C427.56 418.693 427.267 421.973 425.987 424.747C425.56 421.907 425.427 419.027 425.56 416.16Z" fill="#07B4F0"/>
<path d="M82.6133 438.8C84.6533 436.733 87.0133 435 89.5733 433.627C87.9466 436.16 85.4933 437.92 82.6133 438.8Z" fill="#07B4F0"/>
<path d="M147.533 439.84C149.28 441.053 150.92 442.44 152.453 443.947C154.28 444.093 156.107 444.253 157.933 444.427C154.067 448.533 149.347 443.413 147.533 439.84Z" fill="#07B4F0"/>
<path d="M343.36 449.8C346.347 447.24 350.253 448.573 353.667 449.333C350.28 450.067 346.8 449.84 343.36 449.8Z" fill="#07B4F0"/>
<path d="M116.467 455.107C120.96 455.027 114.667 459.213 116.467 455.107Z" fill="#07B4F0"/>
<path d="M488.64 482.533C490.267 484.253 491.853 486.027 493.453 487.8C492.427 487.693 490.373 487.48 489.347 487.373C488.467 489.12 487.587 490.867 486.64 492.587C487.04 489.187 487.733 485.827 488.64 482.533Z" fill="#07B4F0"/>
<path d="M497.88 486.827C501.947 486.587 505.853 487.8 509.48 489.533C505.493 489.28 501.52 488.52 497.88 486.827Z" fill="#07B4F0"/>
<path d="M493.64 120.36C494.307 121.013 494.307 121.013 493.64 120.36Z" fill="#07B4F0"/>
<path d="M418.827 134.64C422.747 132.507 419.093 139.093 418.827 134.64Z" fill="#07B4F0"/>
<path d="M467.547 142.84C469.6 141.32 473.973 143.227 473.107 145.987C471.2 146.08 468.387 144.4 467.547 142.84Z" fill="#07B4F0"/>
<path d="M365.213 173.787C367.16 175.24 369.093 176.72 371 178.24C369.787 178.093 368.573 177.96 367.373 177.827C366.6 179.173 365.813 180.52 365.04 181.853C365.12 179.173 365.16 176.48 365.213 173.787Z" fill="#07B4F0"/>
<path d="M382.547 326.747C384.733 326.08 385.467 326.827 384.747 328.973C382.56 329.64 381.827 328.893 382.547 326.747Z" fill="#07B4F0"/>
<path d="M218.867 363.707C220.333 364.427 221.827 365.187 222.96 366.413L220.547 365.133C221.067 368.893 221.6 372.653 222.093 376.413C222.707 376.88 223.907 377.8 224.52 378.267L225.48 379.013C224.08 378.28 221.467 378.667 220.973 376.787C219.747 372.533 219.307 368.093 218.867 363.707Z" fill="#07B4F0"/>
<path d="M439.267 367C441.067 365.667 442.973 368.827 441.267 370.027C439.453 371.307 437.56 368.2 439.267 367Z" fill="#07B4F0"/>
<path d="M126.4 397.293C135.6 396.307 135.92 384.853 143.227 380.88C142.6 385.92 144.413 391.547 141.533 396.093C140.32 398.293 138.973 400.413 137.667 402.56C140.907 405.467 139.293 409.747 138.733 413.427C139.253 413.907 140.32 414.867 140.853 415.347C140.267 417.067 138.64 418.787 139.44 420.733C140.68 425.24 142.227 429.653 143.373 434.187C142.787 434.133 141.627 434.027 141.04 433.973C139.853 432.427 138.693 430.853 137.373 429.44C133.053 430.08 132.387 434.907 132.213 438.427C128.973 443.08 127.867 449.373 130.667 454.507C132.787 458.16 133.053 462.307 132.307 466.387C133.213 466.707 135.013 467.333 135.907 467.653C135 469.093 134.093 470.52 133.187 471.96C137.08 476.28 143.027 478.027 146.52 482.773C142.587 479.92 138.733 476.88 134.12 475.187C130.867 474.147 128.413 471.773 126.28 469.213C123.2 471.48 123.04 475.44 121.907 478.787C120.933 473.773 124.027 469.76 125.72 465.36C124.133 463.013 121.693 461.467 119.56 459.68C121.027 460.027 123.947 460.733 125.413 461.093C123.493 458.867 121.493 456.707 119.707 454.387C113.107 446.707 120.12 435.24 113.093 427.92C110.707 434.36 111.36 443.253 104.64 447.147C104.36 443.853 104.227 440.56 103.973 437.28C100.827 437.013 97.84 436.013 96.1333 433.2C97.2666 433.16 99.5066 433.067 100.627 433.027C101.04 430.507 101.44 427.987 101.813 425.467C97.4666 425.72 93.12 425.933 88.7733 425.88C89.5333 428.08 90.3066 430.293 91.0133 432.52C88.7333 430.053 86.6266 427.427 84.2 425.107C82.7333 423.44 79.6 422.88 78.32 425.067C76.68 428.387 76.8133 432.76 73.5866 435.107C74.1066 430.04 77.4 425.933 78.84 421.16C75.1333 419.48 69.68 418.88 68.0133 414.693C68.96 410.867 72.3466 408.44 75.3466 406.24C75.64 407.56 76.2266 410.213 76.5066 411.533C76.96 410.747 77.8666 409.16 78.32 408.36C81.8 409.813 85.3466 411.48 89.2266 411.2C93.1733 410.88 97.36 414.133 100.987 411.44C103.747 408.213 104.6 403.853 106.333 400.067C108.347 401.387 109.947 405.947 112.867 404.093C113.253 403.027 114.04 400.88 114.427 399.813C115.36 400.627 116.293 401.44 117.227 402.267C120.16 400.853 124.693 399.987 124.867 396C124.84 391.973 121.733 388.867 120.027 385.427C124.013 388.147 125.827 392.64 126.4 397.293Z" fill="#07B4F0"/>
<path d="M455.893 399.613C457.373 396.267 459.333 393.16 461.507 390.227C461.267 394.267 458.973 397.613 457.44 401.227C461.013 406.96 465.68 412.293 466.547 419.28C467.92 417.533 469.227 415.747 470.52 413.933C471.093 413.813 472.267 413.573 472.853 413.44C473.28 414.48 474.12 416.56 474.547 417.6C476.547 416.067 477.853 413.933 478.867 411.653C480.627 411.133 482.4 410.64 484.173 410.16C484.36 406.667 484.427 403.16 484.587 399.68C485.053 404.52 486.68 409.547 484.92 414.32C483.4 417.053 486.293 418.947 487.64 421.013C486.84 421.04 485.227 421.093 484.427 421.12C485.947 425.547 484.04 429.853 482.6 434.013C483.507 434.36 485.293 435.053 486.187 435.4C485.96 436.293 485.733 437.2 485.52 438.107C487.68 440.987 487.427 444.48 487.32 447.867C488.88 451.973 492.267 455.16 493.493 459.453C494.253 462.413 496.32 464.68 498.653 466.56C499.08 465.627 499.907 463.787 500.333 462.867C500.693 466.467 501.28 470.04 501.987 473.587C506.187 473.587 510.947 473.333 514.027 476.773C511.053 475.68 507.987 474.24 504.76 475.24C500.507 476.573 496.813 473.467 492.853 472.493C493.107 473.253 493.613 474.787 493.867 475.56C493.653 475.973 493.213 476.827 493 477.253C492.4 475.147 493.04 471.92 490.507 470.973C489.533 470.813 487.56 470.507 486.573 470.347C486.893 472.187 487.253 474.027 487.627 475.867C486.28 475.707 484.933 475.547 483.6 475.4C483.72 473.787 483.813 472.16 483.933 470.56C482.92 470.32 480.867 469.827 479.84 469.587C479.613 473.2 480.107 476.987 478.973 480.48C477.253 483.773 474.693 486.507 472.28 489.307C472.8 490.827 473.347 492.373 473.907 493.92C473.173 493.84 471.72 493.667 471 493.587C469.347 485.627 480.133 482.267 478.747 474.24C476.667 472.933 474.693 471.467 472.773 469.96C471.093 471.427 469.467 472.947 467.8 474.427C469.147 472.493 470.56 470.613 471.973 468.733C468.293 464.707 465.707 459.947 463.08 455.213C462.093 456.4 461.12 457.587 460.147 458.787C459.987 457.787 459.693 455.787 459.547 454.787C460.56 453.413 461.587 452.053 462.56 450.64C458.24 452.72 454.12 455.413 449.067 454.173C445.92 457.573 441.04 456.853 437.04 458.387C434.547 459.947 433.453 462.947 431.973 465.387C430.04 468.68 431.347 472.613 431.373 476.187C426.52 469.733 426.813 461.387 428.573 453.88C427.893 453.96 426.533 454.12 425.867 454.2C426.493 452.133 427.04 450.027 427.253 447.867C429.44 447.093 433.013 447.36 433.373 444.347C434.253 439.693 437.373 436.213 441 433.387C440.413 432.733 439.227 431.427 438.64 430.773C441.32 431.253 444.787 433.573 447 430.853C449.453 427.813 449.28 423.587 450.64 420.053C450.067 419.533 448.893 418.507 448.307 418C447.133 418.413 444.76 419.267 443.587 419.693C445.707 416.827 449.44 416.413 452.213 414.507C454.213 410.293 453.627 405.387 454.387 400.88C453.813 400.427 452.68 399.52 452.12 399.053C453.067 399.2 454.96 399.48 455.893 399.613Z" fill="#07B4F0"/>
<path d="M187.707 397.44C190.307 400.667 192.12 404.533 191.813 408.8C187.707 406.453 188.16 401.48 187.707 397.44Z" fill="#07B4F0"/>
<path d="M288.587 410.773C292.067 410.907 295.547 411.107 299.027 411.413C298.04 414.587 297.867 418.253 295.76 420.947C295.253 421.08 294.253 421.36 293.747 421.493C293.427 417.333 291.147 413.893 288.587 410.773Z" fill="#07B4F0"/>
<path d="M389.533 418.707C391.427 418.133 392.04 418.773 391.387 420.627C389.48 421.2 388.867 420.56 389.533 418.707Z" fill="#07B4F0"/>
<path d="M293.747 421.493C294.253 421.36 295.253 421.08 295.76 420.947C295.56 421.427 295.173 422.4 294.987 422.88L293.867 422.533L293.747 421.493Z" fill="#07B4F0"/>
<path d="M100.6 441.453C104.52 439.267 100.947 445.88 100.6 441.453Z" fill="#07B4F0"/>
<path d="M140.107 441.493C142.24 440.813 143.027 441.573 142.467 443.747C140.32 444.413 139.533 443.667 140.107 441.493Z" fill="#07B4F0"/>
</svg>
