<?xml version="1.0" encoding="UTF-8" ?>
<!DOCTYPE svg PUBLIC "-//W3C//DTD SVG 1.1//EN" "http://www.w3.org/Graphics/SVG/1.1/DTD/svg11.dtd">
<svg width="282pt" height="121pt" viewBox="0 0 282 121" version="1.1" xmlns="http://www.w3.org/2000/svg">
<g id="#000000ff">
</g>
<g id="#fefefeff">
<path fill="#fefefe" opacity="1.00" d=" M 15.78 63.16 C 25.31 48.89 35.25 34.90 44.90 20.70 C 66.73 20.76 88.56 20.73 110.40 20.72 C 107.48 25.05 104.47 29.32 101.54 33.64 C 88.90 33.60 76.26 33.66 63.62 33.61 C 63.12 34.46 62.63 35.30 62.12 36.15 C 74.67 36.17 87.22 36.16 99.77 36.16 C 97.26 39.57 95.07 43.21 92.50 46.58 C 79.92 47.01 67.29 46.68 54.69 46.74 C 50.73 52.13 47.08 57.75 43.16 63.18 C 34.03 63.14 24.91 63.17 15.78 63.16 Z" />
<path fill="#fefefe" opacity="1.00" d=" M 125.07 20.73 C 146.92 20.73 168.77 20.75 190.62 20.72 C 187.61 25.00 184.66 29.33 181.67 33.63 C 169.04 33.63 156.42 33.64 143.80 33.62 C 143.39 34.25 142.59 35.52 142.18 36.15 C 154.77 36.20 167.35 36.08 179.93 36.21 C 177.41 39.61 175.21 43.25 172.62 46.60 C 160.05 47.00 147.44 46.67 134.86 46.75 C 130.85 52.11 127.28 57.79 123.32 63.19 C 114.18 63.13 105.05 63.18 95.91 63.17 C 105.48 48.92 115.39 34.90 125.07 20.73 Z" />
<path fill="#fefefe" opacity="1.00" d=" M 205.18 20.74 C 227.32 20.71 249.46 20.75 271.61 20.72 C 265.54 29.34 259.60 38.06 253.62 46.74 C 241.13 46.96 228.63 46.46 216.16 47.01 C 220.57 43.51 226.10 41.91 230.83 38.93 C 232.43 37.38 233.56 35.42 234.91 33.66 C 231.27 33.61 227.63 33.63 223.99 33.65 C 217.91 42.34 211.90 51.03 205.98 59.84 C 204.89 61.10 204.10 63.37 202.07 63.15 C 193.40 63.21 184.73 63.12 176.06 63.17 C 185.61 48.92 195.57 34.95 205.18 20.74 Z" />
<path fill="#fefefe" opacity="1.00" d=" M 17.19 98.84 C 20.77 93.66 24.41 88.51 27.91 83.26 C 35.37 83.21 42.83 83.20 50.29 83.27 C 48.00 86.38 45.80 89.56 43.64 92.76 C 41.76 92.80 39.89 92.81 38.01 92.83 C 38.94 94.20 39.88 95.57 40.81 96.94 C 39.94 98.16 39.08 99.39 38.23 100.62 C 36.59 100.61 34.95 100.61 33.31 100.60 C 32.19 98.99 31.10 97.35 29.99 95.73 C 29.20 96.71 28.46 97.73 27.59 98.64 C 24.15 99.08 20.65 98.73 17.19 98.84 M 35.09 87.81 C 34.31 89.10 33.52 90.39 32.77 91.69 C 35.20 90.85 37.99 90.23 39.40 87.84 C 37.96 87.81 36.53 87.81 35.09 87.81 Z" />
<path fill="#fefefe" opacity="1.00" d=" M 61.51 83.38 C 69.26 83.00 77.05 83.35 84.82 83.22 C 83.76 84.74 82.69 86.25 81.62 87.76 C 76.17 88.19 70.48 86.91 65.19 88.53 C 70.41 89.06 75.67 88.68 80.91 88.78 C 80.03 90.07 79.19 91.39 78.20 92.59 C 72.67 93.31 66.93 91.86 61.52 93.45 C 66.86 94.02 72.23 93.61 77.59 93.73 C 76.20 95.53 75.09 97.61 73.32 99.09 C 65.76 99.40 58.19 98.74 50.64 99.11 C 54.14 93.78 57.68 88.47 61.51 83.38 Z" />
<path fill="#fefefe" opacity="1.00" d=" M 96.13 83.36 C 102.22 83.03 108.34 83.33 114.44 83.24 C 112.62 85.70 110.90 88.22 109.16 90.73 C 106.74 90.72 104.32 90.72 101.90 90.70 C 102.36 90.04 103.27 88.73 103.73 88.07 C 102.45 88.12 101.17 88.21 99.89 88.33 C 98.24 90.17 97.02 92.35 95.71 94.44 C 97.87 94.62 99.89 94.21 101.01 92.23 C 103.43 92.17 105.86 92.18 108.28 92.21 C 106.68 94.38 105.13 96.59 103.57 98.80 C 97.43 98.87 91.29 98.79 85.14 98.85 C 88.89 93.75 92.20 88.30 96.13 83.36 Z" />
<path fill="#fefefe" opacity="1.00" d=" M 123.87 85.80 C 125.14 82.28 129.01 83.31 131.94 83.22 C 138.16 83.26 144.38 83.20 150.60 83.24 C 146.94 88.39 143.35 93.59 139.81 98.81 C 131.49 98.84 123.16 98.85 114.84 98.80 C 117.90 94.51 120.93 90.18 123.87 85.80 M 128.66 93.80 C 130.03 93.79 131.39 93.73 132.76 93.60 C 134.37 91.86 135.55 89.76 136.87 87.79 C 135.87 87.79 133.88 87.78 132.88 87.77 C 131.45 89.77 130.05 91.78 128.66 93.80 Z" />
<path fill="#fefefe" opacity="1.00" d=" M 163.04 83.24 C 170.48 83.23 177.92 83.20 185.36 83.26 C 183.08 86.38 180.89 89.57 178.71 92.76 C 176.85 92.81 174.98 92.83 173.12 92.85 C 174.03 94.21 174.94 95.57 175.86 96.93 C 175.00 98.14 174.16 99.36 173.33 100.58 C 171.69 100.60 170.06 100.61 168.42 100.62 C 167.26 98.96 166.12 97.27 164.97 95.60 C 164.23 96.67 163.49 97.73 162.75 98.80 C 159.25 98.85 155.74 98.82 152.24 98.85 C 155.90 93.69 159.46 88.46 163.04 83.24 M 170.66 87.86 C 169.36 88.79 168.72 90.35 167.86 91.66 C 170.39 90.87 173.06 90.07 174.74 87.86 C 173.38 87.79 172.01 87.70 170.66 87.86 Z" />
<path fill="#fefefe" opacity="1.00" d=" M 196.56 83.44 C 204.99 82.93 213.48 83.36 221.94 83.26 C 219.52 86.40 217.67 90.00 214.93 92.88 C 212.01 94.97 208.98 96.97 205.79 98.64 C 199.13 99.03 192.44 98.75 185.77 98.80 C 189.48 93.77 192.85 88.48 196.56 83.44 M 200.48 93.10 C 201.94 92.97 203.41 92.83 204.88 92.68 C 205.90 91.06 206.95 89.45 207.97 87.83 C 206.96 87.81 204.94 87.77 203.94 87.75 C 202.82 89.56 201.64 91.33 200.48 93.10 Z" />
<path fill="#fefefe" opacity="1.00" d=" M 233.21 83.26 C 239.32 83.19 245.44 83.24 251.56 83.24 C 250.45 84.74 249.44 86.31 248.33 87.81 C 245.60 87.77 242.87 87.77 240.14 87.78 C 241.45 89.80 243.21 91.62 243.97 93.93 C 243.09 95.63 241.98 97.23 240.70 98.66 C 234.63 99.09 228.51 98.70 222.42 98.83 C 223.61 97.17 224.69 95.42 226.06 93.89 C 228.73 93.62 231.42 93.78 234.10 93.74 C 232.77 91.84 231.28 90.04 230.18 88.00 C 231.06 86.34 232.19 84.83 233.21 83.26 Z" />
</g>
</svg>
