<?xml version="1.0" encoding="UTF-8" ?>
<!DOCTYPE svg PUBLIC "-//W3C//DTD SVG 1.1//EN" "http://www.w3.org/Graphics/SVG/1.1/DTD/svg11.dtd">
<svg width="302pt" height="304pt" viewBox="0 0 302 304" version="1.1" xmlns="http://www.w3.org/2000/svg">
<g id="#000000ff">
</g>
<g id="#fefefeff">
<path fill="#fefefe" opacity="1.00" d=" M 7.69 7.79 C 103.51 7.86 199.34 7.72 295.17 7.78 C 295.14 104.26 295.12 200.75 295.17 297.23 C 199.34 297.23 103.50 297.25 7.66 297.22 C 7.74 200.74 7.69 104.27 7.69 7.79 M 67.72 43.70 C 89.91 65.55 111.65 87.86 133.66 109.89 C 133.69 87.87 133.73 65.85 133.64 43.83 C 131.10 43.81 128.55 43.79 126.02 44.05 C 120.36 43.72 114.66 43.73 109.00 44.05 C 102.34 43.73 95.64 43.72 88.99 44.05 C 81.91 43.41 74.79 44.33 67.72 43.70 M 168.93 48.26 C 169.54 53.51 168.73 58.76 168.94 64.01 C 169.58 71.34 168.48 78.70 169.15 86.03 C 169.19 93.97 169.01 101.88 168.86 109.80 C 170.75 108.44 172.31 106.71 173.94 105.05 C 194.30 84.59 214.48 63.94 235.03 43.66 C 213.15 43.50 191.27 43.75 169.39 43.74 C 169.04 45.22 168.67 46.74 168.93 48.26 M 43.73 69.08 C 43.76 90.83 43.76 112.57 43.73 134.32 C 65.19 134.28 86.65 134.35 108.11 134.29 C 107.83 133.95 107.27 133.28 106.99 132.94 C 85.86 111.70 64.84 90.33 43.73 69.08 M 232.03 96.20 C 219.29 108.78 207.10 121.94 194.13 134.29 C 215.68 134.37 237.23 134.24 258.78 134.35 C 258.84 112.70 258.84 91.06 258.77 69.41 C 249.82 78.30 240.93 87.25 232.03 96.20 M 43.73 170.34 C 43.76 192.24 43.77 214.15 43.72 236.05 C 65.35 214.07 87.26 192.34 108.91 170.37 C 87.18 170.21 65.45 170.28 43.73 170.34 M 169.13 170.27 C 169.03 176.51 169.42 182.77 168.92 188.99 C 169.60 194.05 168.41 199.13 168.95 204.21 C 169.61 210.50 168.52 216.78 168.89 223.08 C 169.69 234.03 168.27 245.00 169.08 255.95 C 168.92 257.75 168.83 259.55 168.79 261.36 C 198.80 261.45 228.81 261.35 258.82 261.41 C 258.82 231.03 258.80 200.66 258.83 170.28 C 228.93 170.29 199.03 170.31 169.13 170.27 M 109.56 219.56 C 95.60 233.47 81.75 247.50 67.73 261.37 C 89.72 261.44 111.71 261.36 133.69 261.41 C 133.61 239.32 133.82 217.22 133.59 195.13 C 125.84 203.52 117.54 211.39 109.56 219.56 Z" />
</g>
</svg>
