<?xml version="1.0" encoding="UTF-8" ?>
<!DOCTYPE svg PUBLIC "-//W3C//DTD SVG 1.1//EN" "http://www.w3.org/Graphics/SVG/1.1/DTD/svg11.dtd">
<svg width="548pt" height="280pt" viewBox="0 0 548 280" version="1.1" xmlns="http://www.w3.org/2000/svg">
<g id="#a9a8adff">
<path fill="#a9a8ad" opacity="1.00" d=" M 485.58 0.00 L 488.91 0.00 C 490.62 1.61 492.23 3.34 493.87 5.03 C 498.92 10.04 496.48 18.04 492.56 22.99 C 491.21 25.17 490.18 27.52 489.02 29.80 C 488.31 31.03 487.54 32.23 486.72 33.40 C 481.44 40.38 477.48 48.21 473.16 55.78 C 471.41 58.14 470.53 60.94 469.45 63.62 C 467.45 67.02 465.07 70.18 462.39 73.08 C 462.58 74.02 462.77 74.97 462.97 75.92 C 461.48 78.07 460.17 80.33 458.90 82.62 C 456.41 85.71 453.90 88.82 452.07 92.37 C 451.01 94.84 447.97 95.52 446.94 98.00 C 445.34 101.54 443.42 104.91 441.01 107.97 C 439.18 110.01 439.69 112.94 438.35 115.21 C 436.51 118.76 435.05 122.54 432.58 125.73 C 431.13 127.72 429.75 129.78 428.80 132.07 C 428.17 133.77 427.59 135.49 426.84 137.13 C 425.11 139.98 423.25 142.75 421.37 145.49 C 419.34 148.48 418.37 152.07 416.14 154.95 L 415.24 155.65 C 414.29 157.14 413.59 158.78 412.97 160.43 C 411.94 163.72 409.99 166.63 407.57 169.07 C 405.62 169.99 404.10 171.46 403.77 173.66 C 402.80 178.39 399.46 182.02 396.76 185.85 C 391.36 192.54 385.93 199.31 381.84 206.91 C 380.10 209.94 378.16 212.85 376.42 215.89 C 374.40 219.04 372.03 221.98 370.36 225.35 C 368.91 228.25 367.66 231.34 365.36 233.70 C 364.23 233.16 363.11 232.61 361.99 232.07 C 361.50 230.16 360.97 228.26 360.42 226.37 C 364.04 217.92 368.53 209.88 372.56 201.62 C 376.81 193.90 381.61 186.48 385.85 178.75 C 389.27 172.65 392.75 166.59 396.83 160.91 C 398.99 155.50 401.70 150.31 404.45 145.16 C 406.19 144.49 408.20 144.03 409.41 142.47 C 410.88 140.85 410.23 138.32 411.63 136.64 C 416.08 130.55 420.37 123.74 420.91 116.02 L 421.37 115.22 C 423.76 110.99 426.93 106.92 427.44 101.93 C 427.99 98.54 430.13 95.74 431.90 92.89 C 434.93 88.45 436.98 83.46 439.46 78.70 C 440.38 76.89 441.28 75.07 442.14 73.23 C 444.33 68.48 447.03 64.00 449.47 59.38 C 453.34 52.73 455.65 45.26 460.25 39.03 C 458.25 40.43 456.58 42.22 455.40 44.36 C 452.72 48.87 448.65 52.30 445.75 56.64 C 443.50 60.07 440.03 62.45 437.76 65.86 C 435.58 69.17 433.41 72.50 431.03 75.67 C 426.94 80.46 422.96 85.37 419.99 90.95 C 415.12 96.84 411.38 103.53 406.94 109.71 C 410.06 109.86 413.18 110.00 416.30 110.00 C 415.98 110.17 415.34 110.51 415.02 110.68 C 412.07 110.56 408.95 109.85 406.10 110.86 C 404.19 113.24 402.65 115.90 401.00 118.46 C 400.22 119.74 399.49 121.04 398.73 122.33 C 395.75 126.99 392.54 131.51 389.37 136.05 C 387.18 139.41 384.47 142.37 382.11 145.60 C 379.10 151.83 373.76 156.36 369.50 161.68 C 368.40 163.02 367.43 164.44 366.54 165.92 C 365.67 167.35 364.84 168.80 363.92 170.19 C 362.71 171.27 361.52 172.38 360.36 173.51 C 357.08 176.87 352.99 180.00 348.14 180.34 C 346.91 179.89 345.16 179.77 344.79 178.24 C 343.22 174.21 345.66 170.06 346.31 166.05 C 348.66 163.76 351.30 161.32 352.06 158.00 C 352.96 152.01 353.67 145.94 353.02 139.88 C 355.00 132.62 356.49 125.25 358.36 117.97 C 360.69 110.71 362.44 103.28 365.23 96.17 C 367.31 90.21 369.11 84.13 370.46 77.97 C 364.88 86.29 358.85 94.38 354.42 103.42 C 354.00 104.60 353.63 105.81 353.33 107.03 C 351.73 110.13 350.08 113.21 349.11 116.59 C 346.45 121.92 342.40 126.44 339.24 131.50 C 337.71 133.54 335.97 135.42 334.24 137.29 C 333.29 138.46 332.47 139.73 331.63 140.97 C 328.72 144.91 326.35 149.19 324.17 153.56 C 326.85 153.59 329.54 153.66 332.23 153.75 L 331.73 154.61 C 328.59 154.87 325.29 154.52 322.30 155.70 C 321.44 156.63 320.79 157.73 320.03 158.74 L 319.45 159.38 C 318.47 160.43 317.49 161.49 316.58 162.60 C 314.76 164.92 312.80 167.11 310.66 169.14 C 308.39 171.41 306.01 173.64 304.38 176.44 C 301.93 181.11 297.66 184.39 294.76 188.75 C 292.89 191.61 289.67 193.02 287.17 195.21 C 281.40 201.99 274.96 208.80 266.48 212.15 C 263.90 213.48 261.40 215.19 258.36 215.16 C 257.13 215.02 255.91 214.76 254.85 214.09 C 255.58 211.25 256.06 208.24 257.76 205.76 C 263.93 198.62 271.30 192.59 277.26 185.24 C 280.01 181.76 282.87 178.37 285.77 175.01 C 286.13 174.51 286.84 173.52 287.20 173.02 C 292.60 166.63 296.57 159.14 302.35 153.07 C 305.20 151.84 308.67 151.04 309.93 147.82 C 311.28 144.57 314.61 143.26 317.62 141.98 C 315.98 141.35 314.35 140.72 312.72 140.10 C 314.12 139.08 315.65 138.18 316.83 136.89 C 317.39 134.86 317.55 132.76 317.89 130.69 C 327.47 118.58 336.40 105.99 345.76 93.72 C 348.37 90.86 350.62 87.72 352.41 84.29 C 360.18 74.31 366.98 63.62 374.18 53.22 C 375.65 51.54 377.63 50.11 377.99 47.74 L 378.24 46.95 C 379.87 46.45 381.03 44.58 380.03 42.99 C 380.43 43.03 381.24 43.12 381.64 43.16 C 381.92 43.31 382.47 43.60 382.74 43.75 C 383.77 47.55 388.67 47.45 389.97 51.02 C 392.07 54.36 391.01 58.39 390.77 62.06 C 390.42 66.25 388.46 70.05 387.11 73.97 C 387.42 74.60 388.03 75.86 388.34 76.49 C 388.24 76.78 388.03 77.36 387.92 77.65 C 386.91 80.64 387.14 84.35 384.46 86.51 C 382.57 88.16 381.34 90.35 380.51 92.68 C 376.51 101.46 374.28 110.88 371.62 120.12 C 369.68 126.73 367.62 133.31 365.97 140.01 C 364.76 145.09 362.34 149.92 362.25 155.22 C 363.42 154.37 364.45 153.34 365.24 152.12 C 368.42 147.39 371.63 142.67 374.65 137.84 C 376.27 135.19 378.00 132.62 379.65 129.98 C 384.33 121.48 390.76 114.12 395.47 105.65 C 395.51 105.59 395.59 105.47 395.63 105.41 C 398.39 101.31 401.42 97.39 404.39 93.43 C 407.42 87.99 412.00 83.65 415.39 78.45 C 417.12 75.58 419.95 73.57 421.53 70.60 C 423.63 66.84 427.10 64.12 429.47 60.56 C 431.70 57.15 434.84 54.52 437.36 51.36 C 447.11 39.55 457.81 28.55 467.48 16.67 C 467.53 16.62 467.62 16.51 467.67 16.45 C 471.31 13.11 473.43 7.64 478.65 6.42 C 481.80 5.43 483.48 2.31 485.58 0.00 Z" />
<path fill="#a9a8ad" opacity="1.00" d=" M 223.08 24.93 C 227.50 23.54 232.20 24.18 236.76 24.00 C 236.93 25.89 237.47 27.71 238.02 29.52 C 238.12 29.89 238.31 30.61 238.41 30.98 C 236.64 32.42 234.79 33.76 232.83 34.93 C 228.91 35.84 224.95 36.63 221.05 37.66 C 215.99 39.06 210.63 38.62 205.57 40.05 C 200.45 41.04 194.86 40.71 190.47 43.96 C 185.77 43.98 181.00 43.42 176.40 44.71 L 176.01 44.63 C 175.07 44.45 174.12 44.28 173.18 44.12 C 170.72 46.09 167.41 45.38 164.72 46.75 C 160.84 48.53 156.47 48.94 152.74 51.09 C 149.53 51.74 144.27 50.81 143.51 55.18 C 139.99 68.71 131.11 79.81 125.40 92.36 C 122.27 98.45 117.89 103.84 115.24 110.20 C 121.57 109.10 127.98 108.57 134.28 107.30 C 146.41 105.12 158.71 103.70 170.97 102.72 C 173.08 101.57 175.13 103.04 177.03 103.93 C 175.74 105.16 174.34 106.42 172.49 106.62 C 172.16 106.71 171.50 106.89 171.18 106.98 C 169.37 109.41 167.56 111.92 164.99 113.61 C 162.50 115.44 159.50 115.87 156.50 115.44 C 156.12 115.72 155.35 116.28 154.97 116.56 C 152.62 116.63 150.27 116.68 147.94 116.99 C 144.23 118.21 140.46 119.26 136.72 120.39 C 136.32 120.24 135.50 119.93 135.10 119.77 C 133.00 121.81 130.31 122.72 127.39 122.24 C 123.46 122.94 119.87 124.97 115.91 125.47 C 114.04 125.11 112.27 124.43 110.46 123.89 C 110.61 125.65 111.96 126.88 112.95 128.22 C 114.23 127.46 115.51 126.71 116.81 125.97 C 119.04 126.97 121.43 127.57 123.87 127.82 C 123.69 128.00 123.34 128.36 123.16 128.53 C 118.44 129.12 114.11 131.46 109.30 131.51 C 108.24 133.64 105.85 133.16 104.40 131.74 C 102.26 132.08 100.14 132.52 98.05 133.05 C 97.56 134.13 97.08 135.21 96.60 136.30 C 94.72 135.61 92.80 135.04 90.89 134.45 C 89.90 137.20 88.92 139.95 88.01 142.73 C 87.86 143.14 87.56 143.97 87.42 144.39 C 86.93 144.66 85.95 145.20 85.46 145.47 C 84.50 148.19 81.12 149.59 81.75 152.84 C 82.98 152.53 84.21 152.21 85.44 151.89 C 84.48 153.85 83.55 155.82 82.62 157.79 C 82.50 158.00 82.26 158.43 82.14 158.65 C 80.58 159.53 78.86 159.46 77.18 159.07 C 76.06 160.04 75.65 161.56 74.89 162.81 C 72.42 165.99 72.17 170.60 68.49 172.80 C 69.04 173.35 69.58 173.90 70.13 174.45 C 71.22 173.44 72.32 172.44 73.45 171.47 C 72.94 172.57 72.41 173.65 71.85 174.73 C 70.83 176.49 69.53 178.07 68.08 179.50 C 68.32 177.93 68.79 176.44 69.49 175.02 C 68.91 174.96 67.76 174.84 67.18 174.78 C 64.68 179.68 61.98 184.52 60.07 189.69 C 61.64 187.75 63.15 185.71 65.29 184.36 C 62.59 190.04 58.31 194.91 56.14 200.83 C 54.43 201.49 52.44 202.09 53.04 204.42 C 56.11 201.71 59.40 199.18 63.55 198.44 C 69.93 197.11 75.96 194.58 82.32 193.17 C 92.54 191.58 102.63 188.97 113.06 189.01 C 126.09 186.90 139.40 188.29 152.16 190.85 C 156.11 186.97 158.16 181.67 161.02 177.02 C 162.85 174.48 164.57 171.87 166.32 169.28 C 167.79 168.06 169.30 166.79 170.04 164.98 C 173.96 159.33 178.86 154.38 182.49 148.52 C 187.72 142.08 192.44 135.25 197.77 128.89 C 203.92 119.61 212.01 111.80 218.59 102.84 C 218.63 102.78 218.72 102.66 218.77 102.60 C 221.23 99.74 224.11 97.25 226.20 94.08 C 228.07 91.75 230.04 89.41 230.89 86.48 C 225.88 84.83 220.60 85.23 215.63 86.75 C 211.86 87.53 208.12 88.43 204.35 89.13 C 198.81 89.36 192.89 89.66 187.92 86.77 C 187.59 86.51 186.94 85.97 186.61 85.70 C 187.95 83.80 189.30 81.91 190.64 80.01 C 193.80 80.05 196.98 80.20 200.13 79.93 C 203.48 79.14 206.77 78.07 210.19 77.56 C 215.31 77.03 220.00 74.44 224.46 72.04 L 225.16 71.69 L 226.06 71.67 C 227.74 71.89 229.47 71.96 231.11 71.45 C 235.54 70.17 240.42 69.59 244.04 66.47 C 245.44 66.77 246.84 67.08 248.24 67.38 C 248.82 66.46 249.41 65.55 250.00 64.63 C 253.94 64.38 256.88 61.63 258.35 58.13 C 258.99 56.96 260.07 56.14 261.01 55.23 C 261.78 55.05 263.32 54.70 264.09 54.52 C 265.52 55.74 267.20 56.62 269.02 57.11 C 269.15 58.58 269.31 60.05 269.49 61.51 C 268.98 61.59 267.95 61.75 267.44 61.82 C 267.80 64.35 268.31 66.94 267.70 69.47 C 266.56 71.38 265.61 73.40 264.96 75.54 C 267.00 75.60 269.06 75.66 271.11 75.73 L 271.21 76.87 L 270.01 76.65 C 266.63 75.78 262.48 75.85 260.71 79.41 C 258.34 84.11 252.43 84.28 249.48 88.35 C 247.58 90.54 246.25 93.15 244.85 95.67 C 244.18 96.93 243.54 98.21 242.93 99.50 C 244.54 99.57 246.15 99.63 247.77 99.69 C 247.51 100.12 247.25 100.54 247.00 100.96 C 245.00 100.61 242.97 100.30 240.94 100.36 C 240.56 100.37 239.79 100.40 239.41 100.42 C 237.95 102.62 236.31 104.74 233.90 105.97 C 233.76 106.46 233.48 107.46 233.34 107.96 C 232.08 108.75 230.83 109.57 229.66 110.49 C 226.70 112.72 224.08 115.33 221.68 118.13 C 221.24 118.65 220.81 119.18 220.40 119.72 C 219.07 121.66 217.59 123.48 216.10 125.29 C 213.03 130.91 207.81 134.87 204.42 140.27 C 202.41 143.08 200.44 145.93 198.18 148.55 C 194.87 152.26 191.56 156.01 188.68 160.06 C 188.83 160.85 189.14 162.44 189.29 163.23 C 188.21 164.14 187.12 165.03 186.08 165.97 C 182.80 169.11 179.93 172.70 176.22 175.36 C 173.64 177.40 170.45 178.91 168.84 181.91 C 175.24 177.49 182.13 173.84 189.06 170.31 C 192.52 168.48 196.24 167.14 199.50 164.94 C 213.45 158.45 227.87 152.98 242.07 147.03 C 248.11 145.33 254.08 143.30 259.78 140.64 C 261.71 139.86 263.83 140.09 265.87 139.94 C 263.69 141.01 262.14 142.97 260.00 144.10 C 255.67 146.37 251.86 149.52 247.38 151.50 C 245.21 152.45 243.23 153.75 241.36 155.18 C 235.10 159.45 228.11 162.56 221.89 166.91 C 220.57 167.73 219.24 168.52 217.95 169.38 C 213.25 173.14 208.15 176.31 202.59 178.66 C 196.84 180.63 192.33 184.84 186.97 187.59 C 185.60 188.43 184.22 189.23 182.84 190.04 C 181.95 190.56 181.07 191.09 180.19 191.63 C 181.49 191.97 182.79 192.31 184.09 192.65 C 178.38 191.37 173.50 194.95 168.96 197.84 C 167.51 198.62 165.99 199.28 164.46 199.89 C 163.37 200.24 162.27 200.56 161.16 200.83 C 158.83 201.19 156.49 201.39 154.15 201.56 C 153.03 199.66 150.96 198.73 149.17 197.61 C 138.79 198.65 128.30 197.70 117.95 199.01 C 112.95 200.32 107.39 200.00 102.91 202.86 C 100.22 204.39 97.01 204.39 94.03 204.96 C 94.40 205.54 95.15 206.68 95.52 207.25 C 94.35 205.85 92.64 205.52 90.93 205.37 C 87.31 207.24 83.08 207.16 79.22 208.32 C 76.21 208.68 74.09 211.00 71.41 212.12 C 69.41 212.37 67.38 212.22 65.37 212.27 C 65.09 212.65 64.51 213.42 64.23 213.81 C 61.92 215.29 59.11 215.45 56.60 216.44 C 53.52 217.52 51.21 219.94 48.38 221.46 C 45.54 222.98 42.63 224.39 39.90 226.11 C 41.79 227.54 44.04 226.49 46.13 226.29 C 43.50 227.98 40.42 228.67 37.55 229.83 C 35.38 230.73 33.22 231.68 31.08 232.66 C 27.34 234.57 25.47 238.59 22.90 241.71 C 20.54 244.17 19.87 247.85 16.93 249.76 C 17.23 247.96 17.75 246.21 18.25 244.46 C 19.20 241.41 19.69 238.25 19.85 235.07 C 17.25 234.53 14.60 234.45 11.97 234.14 C 9.35 233.24 7.01 231.71 4.57 230.43 C 2.23 227.46 1.13 223.62 0.49 219.94 C 6.27 219.13 11.84 217.42 17.56 216.38 C 21.42 215.15 25.00 213.19 28.89 212.07 C 32.96 211.40 35.94 208.09 36.35 204.01 L 36.47 203.52 L 36.98 203.05 C 38.06 202.27 38.58 201.02 38.95 199.79 C 44.49 189.44 49.83 178.96 55.79 168.83 C 60.16 160.56 64.27 152.13 69.06 144.09 C 71.80 140.36 73.20 135.90 75.32 131.83 C 73.41 126.50 68.04 124.17 63.60 121.42 C 62.35 118.81 62.98 115.71 62.94 112.90 C 63.63 112.97 65.00 113.11 65.69 113.18 C 71.70 114.41 77.91 114.27 84.00 113.81 C 85.73 113.97 86.22 112.22 86.94 111.05 C 88.37 108.46 89.61 105.77 91.18 103.26 C 91.44 102.75 91.97 101.73 92.23 101.22 C 92.46 101.00 92.91 100.57 93.14 100.36 C 94.68 97.46 96.48 94.72 98.37 92.04 C 100.72 89.27 101.92 85.78 103.86 82.75 C 105.52 80.15 107.22 77.57 108.55 74.78 C 108.59 74.73 108.66 74.61 108.70 74.55 C 112.22 71.12 114.61 66.88 116.77 62.55 C 119.93 59.12 122.05 54.65 122.37 49.98 C 119.56 49.66 116.73 49.43 113.98 48.72 C 110.85 46.48 106.83 45.64 104.05 42.95 C 104.40 39.38 101.71 36.43 102.00 32.88 C 102.77 32.99 104.32 33.23 105.09 33.35 C 107.13 34.41 109.45 34.29 111.68 34.10 C 121.83 33.47 132.01 32.72 142.05 30.98 C 147.29 30.18 152.67 30.51 157.82 29.14 C 164.89 29.20 171.90 28.00 178.97 28.00 C 189.82 25.86 201.01 26.24 212.02 25.25 C 215.70 24.91 219.40 25.16 223.08 24.93 M 225.20 84.80 C 228.83 86.76 233.90 85.58 235.64 81.67 C 232.03 82.02 228.17 82.56 225.20 84.80 M 57.46 192.35 C 56.70 192.95 53.94 194.54 56.01 195.24 C 57.84 196.18 59.34 192.92 57.46 192.35 Z" />
<path fill="#a9a8ad" opacity="1.00" d=" M 479.76 98.39 C 483.47 97.24 486.62 100.58 488.83 103.15 C 489.14 104.87 489.86 106.46 490.73 107.96 C 492.93 116.34 489.96 125.77 484.09 132.03 C 481.66 134.36 482.00 138.24 479.30 140.38 C 476.25 143.33 473.81 146.92 473.31 151.24 C 471.90 154.88 469.92 158.26 467.93 161.60 C 466.66 164.20 464.44 166.12 462.85 168.47 C 461.38 173.19 459.38 177.72 457.41 182.26 C 457.09 183.61 456.86 184.98 456.61 186.36 C 455.57 186.81 454.53 187.26 453.50 187.71 C 453.24 188.62 453.00 189.53 452.77 190.45 C 452.30 192.17 452.32 193.96 452.48 195.72 C 451.36 196.15 450.24 196.58 449.13 197.02 C 449.90 198.50 450.49 200.06 450.87 201.69 C 449.82 201.50 448.77 201.31 447.73 201.12 C 447.63 202.19 447.55 203.28 447.47 204.36 C 446.83 204.76 445.56 205.55 444.92 205.95 C 445.36 206.44 446.25 207.42 446.69 207.90 C 446.02 209.13 445.36 210.35 444.70 211.58 C 443.92 211.67 442.35 211.85 441.56 211.94 C 441.84 213.12 442.14 214.31 442.44 215.50 C 442.22 216.13 441.80 217.40 441.58 218.03 C 441.47 216.85 441.36 215.68 441.26 214.50 C 439.31 217.12 436.92 219.35 434.38 221.38 C 432.63 221.35 430.87 221.44 429.13 221.51 C 428.25 220.73 427.37 219.94 426.49 219.17 C 428.63 204.76 436.20 191.92 441.36 178.48 C 443.29 173.02 446.29 168.01 448.53 162.67 C 448.55 162.61 448.61 162.49 448.64 162.43 C 449.12 161.32 449.66 160.23 450.26 159.18 C 451.42 157.56 452.29 155.75 452.93 153.86 C 456.10 146.81 460.12 140.18 463.18 133.08 C 466.32 127.23 468.98 121.11 472.59 115.52 C 475.57 110.08 477.83 104.27 479.76 98.39 M 444.42 208.31 C 442.78 208.90 442.66 209.47 444.05 210.02 C 445.68 209.44 445.80 208.87 444.42 208.31 Z" />
<path fill="#a9a8ad" opacity="1.00" d=" M 354.75 238.79 C 356.82 239.10 358.90 239.43 360.98 239.76 C 360.63 240.30 359.93 241.38 359.57 241.93 C 358.99 242.93 358.46 243.96 357.95 245.00 C 356.18 244.62 353.95 245.00 352.76 243.33 C 353.38 241.80 354.07 240.29 354.75 238.79 Z" />
</g>
<g id="#424444ff">
<path fill="#424444" opacity="1.00" d=" M 493.87 5.03 C 495.88 7.05 497.95 9.12 500.67 10.15 C 501.24 13.45 502.03 16.74 502.00 20.10 C 501.68 24.12 498.69 27.06 496.43 30.13 C 496.56 27.32 496.39 24.50 496.10 21.71 C 495.19 22.67 494.29 23.63 493.41 24.59 C 493.20 24.19 492.77 23.39 492.56 22.99 C 496.48 18.04 498.92 10.04 493.87 5.03 Z" />
<path fill="#424444" opacity="1.00" d=" M 238.02 29.52 C 239.29 29.77 240.56 29.94 241.85 30.07 C 244.66 33.86 241.71 38.42 237.99 40.14 C 236.43 38.24 234.74 36.47 232.83 34.93 C 234.79 33.76 236.64 32.42 238.41 30.98 C 238.31 30.61 238.12 29.89 238.02 29.52 Z" />
<path fill="#424444" opacity="1.00" d=" M 486.72 33.40 C 487.37 33.72 488.67 34.38 489.33 34.70 C 487.06 36.96 484.51 39.24 483.58 42.41 C 483.74 44.97 484.66 47.41 485.22 49.91 C 483.24 53.17 481.29 56.44 479.53 59.83 C 478.91 56.79 475.57 56.61 473.16 55.78 C 477.48 48.21 481.44 40.38 486.72 33.40 Z" />
<path fill="#424444" opacity="1.00" d=" M 455.40 44.36 C 456.58 42.22 458.25 40.43 460.25 39.03 C 455.65 45.26 453.34 52.73 449.47 59.38 C 447.03 64.00 444.33 68.48 442.14 73.23 C 439.45 71.66 438.46 68.72 437.76 65.86 C 440.03 62.45 443.50 60.07 445.75 56.64 C 448.65 52.30 452.72 48.87 455.40 44.36 Z" />
<path fill="#424444" opacity="1.00" d=" M 113.98 48.72 C 116.73 49.43 119.56 49.66 122.37 49.98 C 122.05 54.65 119.93 59.12 116.77 62.55 C 117.59 60.05 118.50 57.57 119.14 55.00 C 117.28 53.01 113.34 52.04 113.98 48.72 Z" />
<path fill="#424444" opacity="1.00" d=" M 143.51 55.18 C 144.27 50.81 149.53 51.74 152.74 51.09 C 153.26 51.92 153.79 52.76 154.33 53.60 C 153.54 54.40 152.74 55.19 151.95 55.99 C 152.41 56.17 153.31 56.54 153.76 56.72 C 152.23 57.87 150.48 58.74 149.02 59.99 C 146.84 65.49 146.24 71.77 142.45 76.55 C 140.09 79.67 138.41 83.21 136.89 86.80 C 134.99 88.81 133.26 90.96 132.74 93.77 C 130.31 98.61 127.13 103.10 124.96 108.08 C 128.07 107.87 131.16 107.47 134.28 107.30 C 127.98 108.57 121.57 109.10 115.24 110.20 C 117.89 103.84 122.27 98.45 125.40 92.36 C 131.11 79.81 139.99 68.71 143.51 55.18 Z" />
<path fill="#424444" opacity="1.00" d=" M 469.45 63.62 C 471.05 65.38 472.79 67.03 474.69 68.47 C 470.56 75.06 467.08 81.98 463.67 88.96 C 462.78 88.05 462.20 86.64 460.86 86.33 C 459.90 86.64 458.99 87.09 458.09 87.51 C 458.87 85.99 459.43 84.33 458.90 82.62 C 460.17 80.33 461.48 78.07 462.97 75.92 C 462.77 74.97 462.58 74.02 462.39 73.08 C 465.07 70.18 467.45 67.02 469.45 63.62 Z" />
<path fill="#424444" opacity="1.00" d=" M 419.99 90.95 C 422.96 85.37 426.94 80.46 431.03 75.67 C 432.26 77.08 433.49 78.48 434.74 79.87 C 435.93 79.37 437.13 78.87 438.38 78.51 C 432.17 84.72 427.78 92.38 422.46 99.32 C 421.93 99.10 420.87 98.66 420.33 98.45 C 420.44 97.58 420.66 95.86 420.77 95.00 C 420.30 94.39 419.84 93.79 419.38 93.18 C 419.53 92.63 419.84 91.51 419.99 90.95 Z" />
<path fill="#424444" opacity="1.00" d=" M 354.42 103.42 C 358.85 94.38 364.88 86.29 370.46 77.97 C 369.11 84.13 367.31 90.21 365.23 96.17 C 362.44 103.28 360.69 110.71 358.36 117.97 C 357.24 119.49 356.13 121.03 354.99 122.54 C 355.04 117.42 358.95 113.43 359.10 108.31 C 358.47 108.75 357.85 109.18 357.23 109.63 C 355.93 108.75 354.63 107.88 353.33 107.03 C 353.63 105.81 354.00 104.60 354.42 103.42 Z" />
<path fill="#424444" opacity="1.00" d=" M 204.35 89.13 C 208.12 88.43 211.86 87.53 215.63 86.75 C 215.74 89.14 215.52 91.58 214.22 93.66 C 209.53 95.19 204.58 95.20 199.85 93.87 C 202.41 93.65 204.99 93.60 207.57 93.76 C 207.33 93.51 206.84 92.99 206.60 92.74 C 206.82 92.33 207.05 91.91 207.27 91.51 C 206.29 90.72 205.32 89.92 204.35 89.13 Z" />
<path fill="#424444" opacity="1.00" d=" M 452.07 92.37 C 454.61 92.65 457.06 93.42 459.31 94.65 C 457.73 97.51 455.70 100.09 453.16 102.16 C 450.45 104.52 450.48 108.55 447.99 111.05 C 445.99 113.19 445.51 116.16 444.65 118.84 C 442.46 117.80 440.14 116.90 438.35 115.21 C 439.69 112.94 439.18 110.01 441.01 107.97 C 443.42 104.91 445.34 101.54 446.94 98.00 C 447.97 95.52 451.01 94.84 452.07 92.37 Z" />
<path fill="#424444" opacity="1.00" d=" M 371.62 120.12 C 374.28 110.88 376.51 101.46 380.51 92.68 C 381.83 93.01 383.16 93.33 384.48 93.66 C 385.12 94.56 385.77 95.46 386.42 96.36 C 382.81 105.08 380.52 114.28 377.23 123.09 C 377.12 122.79 376.89 122.20 376.78 121.91 C 374.93 121.72 373.13 121.26 371.62 120.12 Z" />
<path fill="#424444" opacity="1.00" d=" M 535.99 94.68 C 538.45 97.02 541.22 99.45 541.96 102.92 C 542.00 106.95 541.46 110.96 541.02 114.95 L 540.84 114.75 C 539.17 112.81 537.44 110.94 535.67 109.11 C 537.24 104.45 536.68 99.44 535.99 94.68 Z" />
<path fill="#424444" opacity="1.00" d=" M 239.41 100.42 C 239.79 100.40 240.56 100.37 240.94 100.36 C 241.46 101.00 241.98 101.66 242.49 102.32 C 241.94 104.25 241.53 106.29 242.74 108.09 C 239.24 112.01 235.35 115.56 231.58 119.21 C 230.83 118.49 230.09 117.78 229.35 117.07 C 230.30 116.05 231.26 115.03 232.22 114.02 C 231.37 112.84 230.51 111.67 229.66 110.49 C 230.83 109.57 232.08 108.75 233.34 107.96 C 233.48 107.46 233.76 106.46 233.90 105.97 C 236.31 104.74 237.95 102.62 239.41 100.42 Z" />
<path fill="#424444" opacity="1.00" d=" M 490.73 107.96 C 494.98 109.74 497.55 114.46 497.03 118.99 C 497.54 123.89 493.86 127.67 491.82 131.77 C 490.22 135.47 488.50 139.12 486.49 142.62 C 484.22 146.61 480.96 150.03 479.41 154.41 C 477.19 153.75 475.03 152.84 473.31 151.24 C 473.81 146.92 476.25 143.33 479.30 140.38 C 482.00 138.24 481.66 134.36 484.09 132.03 C 489.96 125.77 492.93 116.34 490.73 107.96 Z" />
<path fill="#424444" opacity="1.00" d=" M 516.47 113.70 C 516.51 113.63 516.58 113.48 516.61 113.41 C 516.58 113.48 516.51 113.63 516.47 113.70 Z" />
<path fill="#424444" opacity="1.00" d=" M 533.49 115.16 C 534.69 115.08 535.90 115.00 537.10 114.88 C 537.83 115.77 538.56 116.66 539.32 117.56 L 539.44 117.72 C 538.46 120.29 538.02 123.10 536.49 125.44 C 532.18 132.39 529.38 140.14 525.40 147.25 C 525.24 146.45 524.92 144.85 524.77 144.05 C 523.58 144.58 522.40 145.11 521.23 145.65 C 520.51 144.64 519.80 143.63 519.10 142.63 C 520.10 141.16 521.13 139.69 522.06 138.17 C 523.34 138.36 524.63 138.56 525.92 138.75 C 526.82 136.24 527.64 133.70 528.34 131.12 C 527.96 130.46 527.20 129.14 526.82 128.47 C 528.57 123.80 531.41 119.67 533.49 115.16 Z" />
<path fill="#424444" opacity="1.00" d=" M 147.94 116.99 C 150.27 116.68 152.62 116.63 154.97 116.56 C 155.46 117.30 155.94 118.04 156.44 118.79 C 155.93 119.89 155.43 121.00 154.93 122.11 C 151.13 122.63 147.61 124.39 143.87 124.87 C 145.13 123.49 146.30 122.02 147.49 120.57 C 147.27 120.25 146.83 119.62 146.61 119.31 C 147.05 118.53 147.49 117.76 147.94 116.99 Z" />
<path fill="#424444" opacity="1.00" d=" M 349.11 116.59 C 350.79 118.93 352.50 121.25 354.28 123.51 C 351.37 127.13 348.68 130.93 346.39 134.98 C 343.85 134.16 341.17 133.45 339.24 131.50 C 342.40 126.44 346.45 121.92 349.11 116.59 Z" />
<path fill="#424444" opacity="1.00" d=" M 127.39 122.24 C 130.31 122.72 133.00 121.81 135.10 119.77 C 135.50 119.93 136.32 120.24 136.72 120.39 C 138.39 121.39 140.25 121.89 142.19 121.95 C 142.50 122.99 142.80 124.02 143.10 125.06 C 140.46 124.69 138.59 127.09 136.04 126.97 C 133.59 126.71 131.47 127.91 129.37 128.96 C 128.45 126.80 127.70 124.57 127.39 122.24 Z" />
<path fill="#424444" opacity="1.00" d=" M 389.37 136.05 C 392.54 131.51 395.75 126.99 398.73 122.33 C 399.46 123.57 400.19 124.82 400.92 126.07 C 400.76 127.09 400.59 128.11 400.44 129.13 C 401.07 129.24 402.33 129.45 402.95 129.56 C 398.95 132.76 397.35 137.93 394.17 141.83 C 392.02 140.40 390.41 138.40 389.37 136.05 Z" />
<path fill="#424444" opacity="1.00" d=" M 216.10 125.29 C 218.33 127.86 218.15 131.01 216.53 133.83 C 216.87 134.36 217.54 135.43 217.88 135.96 L 217.93 136.05 C 215.35 138.85 212.91 141.77 210.66 144.83 C 208.53 143.38 206.44 141.87 204.42 140.27 C 207.81 134.87 213.03 130.91 216.10 125.29 Z" />
<path fill="#424444" opacity="1.00" d=" M 428.80 132.07 C 429.75 129.78 431.13 127.72 432.58 125.73 C 435.28 126.09 437.92 126.79 440.36 128.03 C 437.55 131.22 434.88 134.59 433.46 138.67 C 431.07 137.14 429.25 134.93 428.80 132.07 Z" />
<path fill="#424444" opacity="1.00" d=" M 109.30 131.51 C 114.11 131.46 118.44 129.12 123.16 128.53 C 123.46 128.94 124.05 129.76 124.35 130.17 C 124.23 130.62 124.00 131.54 123.88 132.00 C 124.43 132.20 125.53 132.60 126.09 132.79 C 124.32 133.76 122.59 134.78 120.90 135.86 C 118.02 135.93 115.25 136.69 112.63 137.82 C 111.88 137.61 111.13 137.40 110.39 137.19 C 108.65 137.90 106.78 138.00 104.93 138.08 C 103.87 139.08 102.81 140.08 101.73 141.06 C 100.07 139.42 98.43 137.75 96.60 136.30 C 97.08 135.21 97.56 134.13 98.05 133.05 C 100.14 132.52 102.26 132.08 104.40 131.74 C 105.85 133.16 108.24 133.64 109.30 131.51 Z" />
<path fill="#424444" opacity="1.00" d=" M 374.65 137.84 C 372.96 134.80 376.09 131.72 376.90 128.80 C 377.19 129.68 377.78 131.45 378.08 132.33 C 378.47 131.74 379.25 130.57 379.65 129.98 C 378.00 132.62 376.27 135.19 374.65 137.84 Z" />
<path fill="#424444" opacity="1.00" d=" M 88.01 142.73 C 89.56 144.69 91.59 146.11 94.04 146.70 C 92.31 148.82 90.61 150.99 89.40 153.47 C 87.32 155.17 84.96 156.49 82.62 157.79 C 83.55 155.82 84.48 153.85 85.44 151.89 C 84.21 152.21 82.98 152.53 81.75 152.84 C 81.12 149.59 84.50 148.19 85.46 145.47 C 85.95 145.20 86.93 144.66 87.42 144.39 C 87.56 143.97 87.86 143.14 88.01 142.73 Z" />
<path fill="#424444" opacity="1.00" d=" M 247.38 151.50 C 251.86 149.52 255.67 146.37 260.00 144.10 C 258.82 145.30 257.67 146.54 256.55 147.80 C 259.63 148.04 263.23 147.83 265.58 145.56 C 266.40 145.95 268.06 146.72 268.88 147.11 C 264.97 148.95 261.93 152.12 257.95 153.85 C 257.89 152.49 257.82 151.14 257.76 149.79 C 254.20 149.78 250.89 152.74 247.38 151.50 Z" />
<path fill="#424444" opacity="1.00" d=" M 369.50 161.68 C 373.76 156.36 379.10 151.83 382.11 145.60 C 383.87 147.35 385.55 149.18 387.15 151.08 C 383.73 158.24 377.75 163.58 373.25 170.00 C 371.52 168.11 369.88 166.13 368.34 164.08 C 368.63 163.48 369.21 162.28 369.50 161.68 Z" />
<path fill="#424444" opacity="1.00" d=" M 198.18 148.55 C 200.32 149.73 202.39 151.05 204.36 152.51 C 200.67 156.84 197.45 161.51 193.84 165.90 C 195.73 165.57 197.61 165.25 199.50 164.94 C 196.24 167.14 192.52 168.48 189.06 170.31 C 188.41 168.65 187.32 167.23 186.08 165.97 C 187.12 165.03 188.21 164.14 189.29 163.23 C 189.14 162.44 188.83 160.85 188.68 160.06 C 191.56 156.01 194.87 152.26 198.18 148.55 Z" />
<path fill="#424444" opacity="1.00" d=" M 512.75 152.58 C 513.82 152.54 514.89 152.51 515.96 152.46 C 516.91 153.66 517.50 155.07 517.86 156.56 C 518.42 156.36 519.00 156.16 519.58 155.96 C 518.31 157.88 517.29 160.01 515.64 161.64 C 514.69 162.20 514.14 163.02 513.97 164.10 C 513.15 166.97 511.20 169.34 510.13 172.12 C 508.60 176.04 505.39 178.98 503.73 182.82 C 503.11 184.20 502.05 185.31 501.11 186.45 C 500.92 182.78 500.64 179.10 500.02 175.47 C 505.43 168.48 507.10 159.39 512.75 152.58 Z" />
<path fill="#424444" opacity="1.00" d=" M 241.36 155.18 C 242.31 155.25 243.25 155.33 244.20 155.41 C 244.91 156.77 245.61 158.14 246.31 159.51 C 247.23 159.44 248.15 159.36 249.07 159.27 C 241.32 163.99 233.24 168.23 225.74 173.40 C 224.44 171.25 223.16 169.08 221.89 166.91 C 228.11 162.56 235.10 159.45 241.36 155.18 Z" />
<path fill="#424444" opacity="1.00" d=" M 471.16 160.52 C 472.65 161.48 474.15 162.44 475.66 163.39 L 475.72 163.44 C 472.04 168.76 468.60 174.28 466.06 180.21 C 465.22 180.90 464.83 181.78 464.86 182.86 C 464.85 184.26 464.12 185.51 463.66 186.80 C 463.44 186.54 463.02 186.01 462.81 185.75 C 460.41 185.62 458.38 184.55 457.41 182.26 C 459.38 177.72 461.38 173.19 462.85 168.47 C 464.44 166.12 466.66 164.20 467.93 161.60 C 468.47 162.26 469.02 162.91 469.58 163.56 C 470.10 162.55 470.62 161.53 471.16 160.52 Z" />
<path fill="#424444" opacity="1.00" d=" M 491.38 160.64 C 491.41 160.58 491.48 160.45 491.52 160.38 C 491.48 160.45 491.41 160.58 491.38 160.64 Z" />
<path fill="#424444" opacity="1.00" d=" M 310.66 169.14 C 312.80 167.11 314.76 164.92 316.58 162.60 C 318.77 163.90 321.01 165.12 323.29 166.28 C 319.75 170.24 315.96 173.97 312.64 178.13 C 312.14 175.10 311.32 172.13 310.66 169.14 Z" />
<path fill="#424444" opacity="1.00" d=" M 202.59 178.66 C 208.15 176.31 213.25 173.14 217.95 169.38 C 217.98 171.10 218.33 172.89 217.86 174.59 C 217.07 176.48 215.49 178.05 215.40 180.20 C 212.05 182.53 208.52 184.74 206.06 188.08 C 205.61 184.71 205.22 181.12 202.59 178.66 Z" />
<path fill="#424444" opacity="1.00" d=" M 403.77 173.66 C 404.10 171.46 405.62 169.99 407.57 169.07 C 409.34 171.97 408.50 175.31 407.85 178.40 C 408.10 178.83 408.61 179.70 408.87 180.13 C 407.32 184.97 403.81 188.86 400.96 192.96 C 397.05 195.95 395.77 200.92 392.24 204.24 C 389.76 206.62 388.62 209.89 386.88 212.77 C 386.11 212.49 384.59 211.93 383.83 211.65 C 381.32 213.10 379.15 215.01 377.10 217.03 L 376.42 215.89 C 378.16 212.85 380.10 209.94 381.84 206.91 C 385.93 199.31 391.36 192.54 396.76 185.85 C 399.46 182.02 402.80 178.39 403.77 173.66 Z" />
<path fill="#424444" opacity="1.00" d=" M 67.18 174.78 C 67.76 174.84 68.91 174.96 69.49 175.02 C 68.79 176.44 68.32 177.93 68.08 179.50 C 69.53 178.07 70.83 176.49 71.85 174.73 C 72.90 175.78 73.98 176.82 75.14 177.77 C 75.28 178.18 75.56 179.02 75.70 179.44 C 71.60 183.13 69.07 188.25 68.07 193.63 C 72.78 195.04 77.60 193.87 82.32 193.17 C 75.96 194.58 69.93 197.11 63.55 198.44 C 59.40 199.18 56.11 201.71 53.04 204.42 C 52.44 202.09 54.43 201.49 56.14 200.83 C 58.31 194.91 62.59 190.04 65.29 184.36 C 63.15 185.71 61.64 187.75 60.07 189.69 C 61.98 184.52 64.68 179.68 67.18 174.78 M 65.46 181.31 C 64.16 181.97 64.60 185.21 66.24 183.52 C 67.59 182.86 67.15 179.78 65.46 181.31 Z" />
<path fill="#424444" opacity="1.00" d=" M 304.38 176.44 C 306.35 179.13 305.46 182.81 306.83 185.80 C 302.12 191.08 297.35 196.31 292.23 201.19 C 288.50 204.78 285.45 209.07 281.26 212.16 C 281.11 211.70 280.82 210.79 280.68 210.33 C 278.74 211.64 276.96 213.24 274.82 214.19 C 271.89 214.49 269.03 213.51 266.48 212.15 C 274.96 208.80 281.40 201.99 287.17 195.21 C 289.67 193.02 292.89 191.61 294.76 188.75 C 297.66 184.39 301.93 181.11 304.38 176.44 Z" />
<path fill="#424444" opacity="1.00" d=" M 493.08 188.24 C 493.61 188.12 494.68 187.86 495.22 187.74 C 495.46 189.73 495.71 191.73 495.85 193.74 C 491.72 199.02 488.51 204.92 484.73 210.43 C 480.31 212.00 475.99 213.80 471.69 215.64 C 471.56 215.08 471.30 213.95 471.17 213.39 C 478.82 206.51 484.34 197.65 489.22 188.69 C 490.50 188.55 491.79 188.44 493.08 188.24 Z" />
<path fill="#424444" opacity="1.00" d=" M 452.77 190.45 C 455.78 189.95 458.50 191.45 461.18 192.58 C 459.88 194.19 458.51 195.76 457.41 197.52 C 456.61 199.78 456.97 202.48 455.32 204.42 C 451.43 208.49 449.92 214.11 446.65 218.62 C 445.24 217.57 443.84 216.53 442.44 215.50 C 442.14 214.31 441.84 213.12 441.56 211.94 C 442.35 211.85 443.92 211.67 444.70 211.58 C 445.36 210.35 446.02 209.13 446.69 207.90 C 446.25 207.42 445.36 206.44 444.92 205.95 C 445.56 205.55 446.83 204.76 447.47 204.36 C 447.55 203.28 447.63 202.19 447.73 201.12 C 448.77 201.31 449.82 201.50 450.87 201.69 C 450.49 200.06 449.90 198.50 449.13 197.02 C 450.24 196.58 451.36 196.15 452.48 195.72 C 452.32 193.96 452.30 192.17 452.77 190.45 Z" />
<path fill="#424444" opacity="1.00" d=" M 117.95 199.01 C 128.30 197.70 138.79 198.65 149.17 197.61 C 150.96 198.73 153.03 199.66 154.15 201.56 C 154.44 202.12 155.02 203.22 155.31 203.78 C 152.53 203.56 149.75 202.90 146.96 203.26 C 139.30 204.27 131.56 203.75 123.87 204.11 C 121.59 204.75 119.34 205.48 116.99 205.84 C 110.65 206.81 105.06 210.24 98.82 211.57 C 98.61 210.19 98.41 208.80 98.21 207.42 C 97.53 207.71 96.85 208.01 96.17 208.31 C 96.01 208.05 95.68 207.52 95.52 207.25 C 95.15 206.68 94.40 205.54 94.03 204.96 C 97.01 204.39 100.22 204.39 102.91 202.86 C 107.39 200.00 112.95 200.32 117.95 199.01 Z" />
<path fill="#424444" opacity="1.00" d=" M 30.67 210.95 C 32.06 208.27 34.51 206.37 36.35 204.01 C 35.94 208.09 32.96 211.40 28.89 212.07 C 29.34 211.79 30.23 211.23 30.67 210.95 Z" />
<path fill="#424444" opacity="1.00" d=" M 520.33 206.26 C 521.94 205.47 523.99 202.34 525.47 205.17 C 525.71 206.40 525.90 207.64 526.00 208.89 C 527.73 209.22 529.46 209.56 531.20 209.82 C 525.97 211.29 521.20 214.04 515.97 215.51 C 511.70 216.65 507.53 218.11 503.39 219.63 C 498.68 221.66 494.17 224.32 489.08 225.33 C 479.70 230.19 470.36 238.99 458.97 236.09 C 461.29 236.15 463.63 236.34 465.94 236.00 C 467.31 235.34 467.82 233.76 468.65 232.57 C 468.18 232.02 467.25 230.92 466.78 230.37 C 474.06 228.01 479.26 221.52 486.89 220.00 C 489.90 219.44 491.75 216.62 494.57 215.62 C 497.52 214.60 500.67 214.05 503.32 212.31 C 506.23 210.19 510.41 211.75 513.03 209.08 C 515.04 207.20 517.85 207.10 520.33 206.26 Z" />
<path fill="#424444" opacity="1.00" d=" M 444.42 208.31 C 445.80 208.87 445.68 209.44 444.05 210.02 C 442.66 209.47 442.78 208.90 444.42 208.31 Z" />
<path fill="#424444" opacity="1.00" d=" M 56.60 216.44 C 59.11 215.45 61.92 215.29 64.23 213.81 C 64.94 214.91 65.64 216.02 66.35 217.13 C 68.83 216.30 71.41 216.80 73.90 217.27 L 73.71 218.08 L 72.75 217.87 C 71.69 217.62 70.84 217.99 70.22 218.98 C 69.13 220.17 67.53 220.73 65.96 220.86 C 63.79 220.85 62.23 222.60 60.17 222.96 C 59.08 223.08 58.25 223.62 57.69 224.58 C 54.14 226.79 50.48 229.20 46.42 230.52 C 46.24 230.87 45.88 231.56 45.70 231.90 C 47.17 232.13 48.64 232.38 50.10 232.64 C 47.35 234.63 43.68 234.95 40.56 236.24 C 40.83 233.65 38.93 231.77 37.55 229.83 C 40.42 228.67 43.50 227.98 46.13 226.29 C 44.04 226.49 41.79 227.54 39.90 226.11 C 42.63 224.39 45.54 222.98 48.38 221.46 C 51.21 219.94 53.52 217.52 56.60 216.44 Z" />
<path fill="#424444" opacity="1.00" d=" M 429.13 221.51 C 430.87 221.44 432.63 221.35 434.38 221.38 C 436.94 222.35 439.53 223.27 442.20 223.91 C 440.20 224.77 438.21 225.80 436.01 225.95 C 433.44 224.95 431.35 223.08 429.13 221.51 Z" />
<path fill="#424444" opacity="1.00" d=" M 4.57 230.43 C 7.01 231.71 9.35 233.24 11.97 234.14 C 14.60 234.45 17.25 234.53 19.85 235.07 C 19.69 238.25 19.20 241.41 18.25 244.46 C 18.01 242.78 17.76 241.12 17.44 239.46 C 14.66 239.90 12.49 237.75 10.07 236.78 C 7.26 235.74 6.16 232.70 4.57 230.43 Z" />
<path fill="#424444" opacity="1.00" d=" M 22.90 241.71 C 25.47 238.59 27.34 234.57 31.08 232.66 C 31.62 233.55 32.16 234.45 32.70 235.35 C 31.21 237.41 29.84 239.57 28.88 241.94 C 30.59 241.38 32.29 240.79 33.88 239.94 C 30.79 243.90 27.82 247.95 24.89 252.03 C 23.74 249.81 23.62 247.17 24.73 244.92 C 25.51 243.67 24.63 241.36 22.90 241.71 Z" />
<path fill="#424444" opacity="1.00" d=" M 348.51 280.00 C 347.66 275.90 350.44 271.99 350.74 267.87 C 351.80 268.59 352.86 269.31 353.93 270.03 C 352.37 273.37 350.59 276.60 349.15 280.00 L 348.51 280.00 Z" />
</g>
<g id="#1b23277f">
<path fill="#1b2327" opacity="0.50" d=" M 467.57 16.55 L 467.67 16.45 C 467.62 16.51 467.53 16.62 467.48 16.67 L 467.57 16.55 Z" />
<path fill="#1b2327" opacity="0.50" d=" M 105.09 33.35 C 106.85 32.15 110.47 32.53 111.68 34.10 C 109.45 34.29 107.13 34.41 105.09 33.35 Z" />
<path fill="#1b2327" opacity="0.50" d=" M 374.18 53.22 C 375.38 51.34 376.73 49.58 377.99 47.74 C 377.63 50.11 375.65 51.54 374.18 53.22 Z" />
<path fill="#1b2327" opacity="0.50" d=" M 393.84 51.00 C 394.75 51.71 395.67 52.41 396.59 53.12 C 396.63 53.84 396.72 55.29 396.76 56.02 C 395.94 54.18 394.17 54.03 392.39 54.15 L 391.96 53.70 C 393.07 53.69 395.30 53.65 396.41 53.64 C 395.77 52.98 394.48 51.66 393.84 51.00 Z" />
<path fill="#1b2327" opacity="0.50" d=" M 232.27 68.20 L 233.25 67.73 L 234.07 68.18 C 233.60 68.41 232.64 68.87 232.16 69.10 L 232.27 68.20 Z" />
<path fill="#1b2327" opacity="0.50" d=" M 108.55 74.78 C 108.59 74.73 108.66 74.61 108.70 74.55 C 108.66 74.61 108.59 74.73 108.55 74.78 Z" />
<path fill="#1b2327" opacity="0.50" d=" M 526.53 88.51 C 526.56 88.46 526.61 88.36 526.64 88.31 C 526.61 88.36 526.56 88.46 526.53 88.51 Z" />
<path fill="#1b2327" opacity="0.50" d=" M 91.71 101.68 C 92.06 97.57 94.88 94.03 98.37 92.04 C 96.48 94.72 94.68 97.46 93.14 100.36 C 92.91 100.57 92.46 101.00 92.23 101.22 L 91.71 101.68 Z" />
<path fill="#1b2327" opacity="0.50" d=" M 218.59 102.84 C 218.63 102.78 218.72 102.66 218.77 102.60 C 218.72 102.66 218.63 102.78 218.59 102.84 Z" />
<path fill="#1b2327" opacity="0.50" d=" M 395.56 105.52 L 395.63 105.41 C 395.59 105.47 395.51 105.59 395.47 105.65 L 395.56 105.52 Z" />
<path fill="#1b2327" opacity="0.50" d=" M 178.24 111.62 C 179.17 111.09 180.10 110.57 181.03 110.05 C 179.55 111.60 177.78 112.82 175.93 113.88 C 176.68 113.10 177.43 112.33 178.24 111.62 Z" />
<path fill="#1b2327" opacity="0.50" d=" M 450.26 159.18 C 449.05 157.45 450.87 153.77 452.93 153.86 C 452.29 155.75 451.42 157.56 450.26 159.18 Z" />
<path fill="#1b2327" opacity="0.50" d=" M 448.53 162.67 C 448.55 162.61 448.61 162.49 448.64 162.43 C 448.61 162.49 448.55 162.61 448.53 162.67 Z" />
<path fill="#1b2327" opacity="0.50" d=" M 513.97 164.10 C 514.14 163.02 514.69 162.20 515.64 161.64 C 516.22 163.31 515.66 164.13 513.97 164.10 Z" />
<path fill="#1b2327" opacity="0.50" d=" M 166.32 169.28 C 165.25 167.35 168.22 164.71 170.04 164.98 C 169.30 166.79 167.79 168.06 166.32 169.28 Z" />
<path fill="#1b2327" opacity="0.50" d=" M 285.77 175.01 C 286.13 174.51 286.84 173.52 287.20 173.02 C 286.84 173.52 286.13 174.51 285.77 175.01 Z" />
<path fill="#1b2327" opacity="0.50" d=" M 464.86 182.86 C 464.83 181.78 465.22 180.90 466.06 180.21 C 466.94 181.76 466.54 182.64 464.86 182.86 Z" />
<path fill="#1b2327" opacity="0.50" d=" M 532.38 197.01 C 532.86 195.31 537.60 194.94 537.85 196.98 C 536.02 197.06 534.20 197.05 532.38 197.01 Z" />
<path fill="#1b2327" opacity="0.50" d=" M 36.98 203.05 C 35.97 201.87 37.40 199.19 38.95 199.79 C 38.58 201.02 38.06 202.27 36.98 203.05 Z" />
<path fill="#1b2327" opacity="0.50" d=" M 70.22 218.98 C 70.84 217.99 71.69 217.62 72.75 217.87 C 72.53 219.47 71.68 219.84 70.22 218.98 Z" />
<path fill="#1b2327" opacity="0.50" d=" M 57.69 224.58 C 58.25 223.62 59.08 223.08 60.17 222.96 C 60.23 224.59 59.40 225.13 57.69 224.58 Z" />
<path fill="#1b2327" opacity="0.50" d=" M 353.46 253.08 C 354.23 251.48 355.10 249.92 356.03 248.40 C 356.49 252.97 353.58 256.86 352.98 261.27 C 353.19 257.75 354.24 254.38 355.41 251.07 C 354.92 251.57 353.95 252.58 353.46 253.08 Z" />
</g>
<g id="#465e6aff">
<path fill="#465e6a" opacity="1.00" d=" M 493.41 24.59 C 494.29 23.63 495.19 22.67 496.10 21.71 C 496.39 24.50 496.56 27.32 496.43 30.13 C 495.88 31.33 495.32 32.53 494.75 33.72 C 493.63 32.32 492.56 30.89 491.51 29.44 C 490.67 29.56 489.84 29.68 489.02 29.80 C 490.18 27.52 491.21 25.17 492.56 22.99 C 492.77 23.39 493.20 24.19 493.41 24.59 Z" />
<path fill="#465e6a" opacity="1.00" d=" M 164.72 46.75 C 167.41 45.38 170.72 46.09 173.18 44.12 C 174.12 44.28 175.07 44.45 176.01 44.63 C 174.84 45.37 173.67 46.11 172.52 46.87 C 173.12 47.00 174.33 47.27 174.93 47.41 C 172.81 49.11 170.83 50.96 168.80 52.77 C 165.49 53.94 161.98 54.52 158.74 55.92 C 157.18 56.56 155.47 57.61 153.76 56.72 C 153.31 56.54 152.41 56.17 151.95 55.99 C 152.74 55.19 153.54 54.40 154.33 53.60 C 153.79 52.76 153.26 51.92 152.74 51.09 C 156.47 48.94 160.84 48.53 164.72 46.75 Z" />
<path fill="#465e6a" opacity="1.00" d=" M 469.45 63.62 C 470.53 60.94 471.41 58.14 473.16 55.78 C 475.57 56.61 478.91 56.79 479.53 59.83 C 477.82 62.66 476.18 65.52 474.69 68.47 C 472.79 67.03 471.05 65.38 469.45 63.62 Z" />
<path fill="#465e6a" opacity="1.00" d=" M 431.03 75.67 C 433.41 72.50 435.58 69.17 437.76 65.86 C 438.46 68.72 439.45 71.66 442.14 73.23 C 441.28 75.07 440.38 76.89 439.46 78.70 C 439.19 78.65 438.65 78.56 438.38 78.51 C 437.13 78.87 435.93 79.37 434.74 79.87 C 433.49 78.48 432.26 77.08 431.03 75.67 Z" />
<path fill="#465e6a" opacity="1.00" d=" M 387.92 77.65 C 389.35 77.76 390.78 77.88 392.21 77.99 C 391.83 78.43 391.07 79.30 390.69 79.73 C 390.86 81.90 390.55 84.04 389.81 86.08 C 390.26 86.76 390.71 87.44 391.17 88.11 C 389.97 91.07 387.99 93.60 386.42 96.36 C 385.77 95.46 385.12 94.56 384.48 93.66 C 383.16 93.33 381.83 93.01 380.51 92.68 C 381.34 90.35 382.57 88.16 384.46 86.51 C 387.14 84.35 386.91 80.64 387.92 77.65 Z" />
<path fill="#465e6a" opacity="1.00" d=" M 452.07 92.37 C 453.90 88.82 456.41 85.71 458.90 82.62 C 459.43 84.33 458.87 85.99 458.09 87.51 C 458.99 87.09 459.90 86.64 460.86 86.33 C 462.20 86.64 462.78 88.05 463.67 88.96 C 462.11 90.77 460.47 92.54 459.31 94.65 C 457.06 93.42 454.61 92.65 452.07 92.37 Z" />
<path fill="#465e6a" opacity="1.00" d=" M 187.92 86.77 C 192.89 89.66 198.81 89.36 204.35 89.13 C 205.32 89.92 206.29 90.72 207.27 91.51 C 207.05 91.91 206.82 92.33 206.60 92.74 C 206.84 92.99 207.33 93.51 207.57 93.76 C 204.99 93.60 202.41 93.65 199.85 93.87 C 197.19 93.77 194.76 92.26 192.16 91.73 C 190.33 90.52 189.28 88.44 187.92 86.77 Z" />
<path fill="#465e6a" opacity="1.00" d=" M 353.33 107.03 C 354.63 107.88 355.93 108.75 357.23 109.63 C 357.85 109.18 358.47 108.75 359.10 108.31 C 358.95 113.43 355.04 117.42 354.99 122.54 C 354.82 122.79 354.46 123.27 354.28 123.51 C 352.50 121.25 350.79 118.93 349.11 116.59 C 350.08 113.21 351.73 110.13 353.33 107.03 Z" />
<path fill="#465e6a" opacity="1.00" d=" M 432.58 125.73 C 435.05 122.54 436.51 118.76 438.35 115.21 C 440.14 116.90 442.46 117.80 444.65 118.84 C 444.14 120.20 443.31 121.38 442.44 122.52 C 441.82 124.38 441.20 126.25 440.36 128.03 C 437.92 126.79 435.28 126.09 432.58 125.73 Z" />
<path fill="#465e6a" opacity="1.00" d=" M 398.73 122.33 C 399.49 121.04 400.22 119.74 401.00 118.46 C 401.91 119.26 402.84 120.06 403.76 120.86 C 403.23 122.24 402.76 123.65 402.27 125.04 C 403.34 125.64 404.42 126.25 405.51 126.85 C 404.84 127.91 403.91 128.77 402.95 129.56 C 402.33 129.45 401.07 129.24 400.44 129.13 C 400.59 128.11 400.76 127.09 400.92 126.07 C 400.19 124.82 399.46 123.57 398.73 122.33 Z" />
<path fill="#465e6a" opacity="1.00" d=" M 371.62 120.12 C 373.13 121.26 374.93 121.72 376.78 121.91 C 376.89 122.20 377.12 122.79 377.23 123.09 C 377.06 124.99 376.97 126.89 376.90 128.80 C 376.09 131.72 372.96 134.80 374.65 137.84 C 371.63 142.67 368.42 147.39 365.24 152.12 C 364.45 153.34 363.42 154.37 362.25 155.22 C 362.34 149.92 364.76 145.09 365.97 140.01 C 367.62 133.31 369.68 126.73 371.62 120.12 Z" />
<path fill="#465e6a" opacity="1.00" d=" M 115.91 125.47 C 119.87 124.97 123.46 122.94 127.39 122.24 C 127.70 124.57 128.45 126.80 129.37 128.96 C 127.57 128.76 125.93 129.41 124.35 130.17 C 124.05 129.76 123.46 128.94 123.16 128.53 C 123.34 128.36 123.69 128.00 123.87 127.82 C 121.43 127.57 119.04 126.97 116.81 125.97 C 115.51 126.71 114.23 127.46 112.95 128.22 C 111.96 126.88 110.61 125.65 110.46 123.89 C 112.27 124.43 114.04 125.11 115.91 125.47 Z" />
<path fill="#465e6a" opacity="1.00" d=" M 88.01 142.73 C 88.92 139.95 89.90 137.20 90.89 134.45 C 92.80 135.04 94.72 135.61 96.60 136.30 C 98.43 137.75 100.07 139.42 101.73 141.06 C 100.12 141.01 98.51 140.94 96.90 140.86 C 95.19 142.36 94.75 144.64 94.04 146.70 C 91.59 146.11 89.56 144.69 88.01 142.73 Z" />
<path fill="#465e6a" opacity="1.00" d=" M 382.11 145.60 C 384.47 142.37 387.18 139.41 389.37 136.05 C 390.41 138.40 392.02 140.40 394.17 141.83 C 392.02 145.06 389.36 147.90 387.15 151.08 C 385.55 149.18 383.87 147.35 382.11 145.60 Z" />
<path fill="#465e6a" opacity="1.00" d=" M 198.18 148.55 C 200.44 145.93 202.41 143.08 204.42 140.27 C 206.44 141.87 208.53 143.38 210.66 144.83 C 208.77 147.56 207.00 150.43 204.36 152.51 C 202.39 151.05 200.32 149.73 198.18 148.55 Z" />
<path fill="#465e6a" opacity="1.00" d=" M 512.75 152.58 C 514.84 149.24 516.78 145.81 519.10 142.63 C 519.80 143.63 520.51 144.64 521.23 145.65 C 522.40 145.11 523.58 144.58 524.77 144.05 C 524.92 144.85 525.24 146.45 525.40 147.25 C 523.78 150.36 521.66 153.15 519.58 155.96 C 519.00 156.16 518.42 156.36 517.86 156.56 C 517.50 155.07 516.91 153.66 515.96 152.46 C 514.89 152.51 513.82 152.54 512.75 152.58 Z" />
<path fill="#465e6a" opacity="1.00" d=" M 247.38 151.50 C 250.89 152.74 254.20 149.78 257.76 149.79 C 257.82 151.14 257.89 152.49 257.95 153.85 L 257.97 154.17 C 254.95 155.76 252.12 157.71 249.07 159.27 C 248.15 159.36 247.23 159.44 246.31 159.51 C 245.61 158.14 244.91 156.77 244.20 155.41 C 243.25 155.33 242.31 155.25 241.36 155.18 C 243.23 153.75 245.21 152.45 247.38 151.50 Z" />
<path fill="#465e6a" opacity="1.00" d=" M 467.93 161.60 C 469.92 158.26 471.90 154.88 473.31 151.24 C 475.03 152.84 477.19 153.75 479.41 154.41 C 478.07 157.37 477.12 160.49 475.66 163.39 C 474.15 162.44 472.65 161.48 471.16 160.52 C 470.62 161.53 470.10 162.55 469.58 163.56 C 469.02 162.91 468.47 162.26 467.93 161.60 Z" />
<path fill="#465e6a" opacity="1.00" d=" M 320.03 158.74 C 320.79 157.73 321.44 156.63 322.30 155.70 C 325.29 154.52 328.59 154.87 331.73 154.61 C 330.64 156.43 329.64 158.30 328.59 160.15 C 325.99 158.60 322.98 158.32 320.03 158.74 Z" />
<path fill="#465e6a" opacity="1.00" d=" M 316.58 162.60 C 317.49 161.49 318.47 160.43 319.45 159.38 C 322.26 160.05 325.10 160.59 327.97 160.93 C 326.45 162.75 324.87 164.52 323.29 166.28 C 321.01 165.12 318.77 163.90 316.58 162.60 Z" />
<path fill="#465e6a" opacity="1.00" d=" M 74.89 162.81 C 76.65 164.56 78.35 166.90 81.18 166.39 C 78.88 170.05 77.15 173.98 75.14 177.77 C 73.98 176.82 72.90 175.78 71.85 174.73 C 72.41 173.65 72.94 172.57 73.45 171.47 C 72.32 172.44 71.22 173.44 70.13 174.45 C 69.58 173.90 69.04 173.35 68.49 172.80 C 72.17 170.60 72.42 165.99 74.89 162.81 Z" />
<path fill="#465e6a" opacity="1.00" d=" M 217.95 169.38 C 219.24 168.52 220.57 167.73 221.89 166.91 C 223.16 169.08 224.44 171.25 225.74 173.40 C 222.50 175.97 218.89 178.00 215.40 180.20 C 215.49 178.05 217.07 176.48 217.86 174.59 C 218.33 172.89 217.98 171.10 217.95 169.38 Z" />
<path fill="#465e6a" opacity="1.00" d=" M 304.38 176.44 C 306.01 173.64 308.39 171.41 310.66 169.14 C 311.32 172.13 312.14 175.10 312.64 178.13 C 310.60 180.60 308.76 183.23 306.83 185.80 C 305.46 182.81 306.35 179.13 304.38 176.44 Z" />
<path fill="#465e6a" opacity="1.00" d=" M 360.36 173.51 C 361.52 172.38 362.71 171.27 363.92 170.19 L 365.22 169.85 C 365.08 170.39 364.80 171.49 364.66 172.04 C 364.59 172.34 364.44 172.96 364.37 173.27 C 365.75 173.95 367.14 174.63 368.53 175.32 C 366.55 177.25 364.47 179.07 362.27 180.74 C 361.71 180.19 360.58 179.11 360.02 178.56 C 360.79 176.94 362.44 176.45 364.07 176.08 C 363.08 174.89 361.72 174.16 360.36 173.51 Z" />
<path fill="#465e6a" opacity="1.00" d=" M 492.97 182.97 C 495.36 180.51 497.88 178.16 500.02 175.47 C 500.64 179.10 500.92 182.78 501.11 186.45 C 499.40 188.92 498.02 191.63 495.85 193.74 C 495.71 191.73 495.46 189.73 495.22 187.74 C 494.68 187.86 493.61 188.12 493.08 188.24 C 493.04 186.48 493.00 184.73 492.97 182.97 Z" />
<path fill="#465e6a" opacity="1.00" d=" M 456.61 186.36 C 456.86 184.98 457.09 183.61 457.41 182.26 C 458.38 184.55 460.41 185.62 462.81 185.75 C 463.02 186.01 463.44 186.54 463.66 186.80 C 463.08 188.83 462.14 190.72 461.18 192.58 C 458.50 191.45 455.78 189.95 452.77 190.45 C 453.00 189.53 453.24 188.62 453.50 187.71 C 454.53 187.26 455.57 186.81 456.61 186.36 Z" />
<path fill="#465e6a" opacity="1.00" d=" M 180.19 191.63 C 181.07 191.09 181.95 190.56 182.84 190.04 C 184.43 190.69 186.03 191.34 187.62 192.01 C 186.55 192.92 185.48 193.83 184.41 194.75 C 184.41 195.35 184.42 196.55 184.43 197.14 L 184.43 198.16 L 183.69 197.77 C 180.83 195.67 177.22 196.35 173.97 196.77 C 174.68 197.60 175.39 198.44 176.11 199.29 C 173.63 199.38 171.06 199.38 168.96 197.84 C 173.50 194.95 178.38 191.37 184.09 192.65 C 182.79 192.31 181.49 191.97 180.19 191.63 Z" />
<path fill="#465e6a" opacity="1.00" d=" M 161.16 200.83 C 162.27 200.56 163.37 200.24 164.46 199.89 C 166.44 201.57 168.46 203.21 170.51 204.80 C 167.81 206.19 164.72 206.22 161.83 206.96 L 161.77 206.42 C 161.58 204.55 161.37 202.69 161.16 200.83 Z" />
<path fill="#465e6a" opacity="1.00" d=" M 254.59 209.36 C 255.66 208.17 256.72 206.98 257.76 205.76 C 256.06 208.24 255.58 211.25 254.85 214.09 C 254.69 213.83 254.37 213.31 254.21 213.06 C 254.40 212.50 254.78 211.39 254.97 210.83 C 254.87 210.47 254.68 209.73 254.59 209.36 Z" />
<path fill="#465e6a" opacity="1.00" d=" M 95.52 207.25 C 95.68 207.52 96.01 208.05 96.17 208.31 C 96.85 208.01 97.53 207.71 98.21 207.42 C 98.41 208.80 98.61 210.19 98.82 211.57 L 98.84 211.74 C 93.31 212.03 88.00 213.45 82.66 214.72 C 83.84 212.96 84.70 210.82 86.57 209.66 C 89.49 208.62 92.59 208.26 95.52 207.25 Z" />
<path fill="#465e6a" opacity="1.00" d=" M 71.41 212.12 C 74.09 211.00 76.21 208.68 79.22 208.32 C 78.80 209.79 78.37 211.27 77.92 212.73 C 78.91 213.57 79.90 214.42 80.90 215.27 C 78.62 216.00 76.35 217.50 73.90 217.27 C 71.41 216.80 68.83 216.30 66.35 217.13 C 65.64 216.02 64.94 214.91 64.23 213.81 C 64.51 213.42 65.09 212.65 65.37 212.27 C 67.38 212.22 69.41 212.37 71.41 212.12 Z" />
<path fill="#465e6a" opacity="1.00" d=" M 274.82 214.19 C 276.96 213.24 278.74 211.64 280.68 210.33 C 280.82 210.79 281.11 211.70 281.26 212.16 C 277.73 215.78 272.15 215.92 268.93 219.86 C 266.80 219.97 264.68 220.16 262.58 220.51 C 261.21 218.69 259.84 216.88 258.36 215.16 C 261.40 215.19 263.90 213.48 266.48 212.15 C 269.03 213.51 271.89 214.49 274.82 214.19 Z" />
<path fill="#465e6a" opacity="1.00" d=" M 377.10 217.03 C 379.15 215.01 381.32 213.10 383.83 211.65 C 384.59 211.93 386.11 212.49 386.88 212.77 C 383.03 220.38 377.73 227.12 373.72 234.64 C 370.67 234.90 367.61 234.91 364.56 234.66 C 364.76 234.42 365.16 233.94 365.36 233.70 C 367.66 231.34 368.91 228.25 370.36 225.35 C 372.03 221.98 374.40 219.04 376.42 215.89 L 377.10 217.03 Z" />
<path fill="#465e6a" opacity="1.00" d=" M 434.38 221.38 C 436.92 219.35 439.31 217.12 441.26 214.50 C 441.36 215.68 441.47 216.85 441.58 218.03 C 441.80 217.40 442.22 216.13 442.44 215.50 C 443.84 216.53 445.24 217.57 446.65 218.62 C 445.31 220.50 443.79 222.24 442.20 223.91 C 439.53 223.27 436.94 222.35 434.38 221.38 Z" />
<path fill="#465e6a" opacity="1.00" d=" M 31.08 232.66 C 33.22 231.68 35.38 230.73 37.55 229.83 C 38.93 231.77 40.83 233.65 40.56 236.24 C 38.09 236.98 35.70 238.04 33.88 239.94 C 32.29 240.79 30.59 241.38 28.88 241.94 C 29.84 239.57 31.21 237.41 32.70 235.35 C 32.16 234.45 31.62 233.55 31.08 232.66 Z" />
<path fill="#465e6a" opacity="1.00" d=" M 461.12 232.97 C 463.09 232.31 464.85 231.15 466.78 230.37 C 467.25 230.92 468.18 232.02 468.65 232.57 C 467.82 233.76 467.31 235.34 465.94 236.00 C 463.63 236.34 461.29 236.15 458.97 236.09 L 458.16 236.06 C 458.12 235.31 458.06 233.82 458.02 233.08 C 457.50 232.81 456.45 232.29 455.92 232.02 C 457.62 232.45 459.35 232.88 461.12 232.97 Z" />
<path fill="#465e6a" opacity="1.00" d=" M 356.71 247.25 C 359.24 248.17 361.90 248.58 364.58 248.67 C 363.77 251.08 362.79 253.46 361.23 255.50 C 359.57 254.89 357.83 254.77 356.10 254.96 C 356.00 255.68 355.81 257.11 355.71 257.82 C 357.14 257.59 358.58 257.37 360.01 257.10 C 357.00 260.90 356.07 265.77 353.93 270.03 C 352.86 269.31 351.80 268.59 350.74 267.87 C 351.51 265.67 352.48 263.55 352.98 261.27 C 353.58 256.86 356.49 252.97 356.03 248.40 C 356.20 248.11 356.54 247.54 356.71 247.25 M 356.88 251.22 C 358.07 252.06 359.46 252.56 360.86 252.95 C 361.35 252.44 362.33 251.42 362.81 250.90 C 361.09 249.17 358.14 248.56 356.88 251.22 Z" />
</g>
<g id="#444f55ff">
<path fill="#444f55" opacity="1.00" d=" M 489.02 29.80 C 489.84 29.68 490.67 29.56 491.51 29.44 C 492.56 30.89 493.63 32.32 494.75 33.72 C 491.95 39.34 488.51 44.58 485.22 49.91 C 484.66 47.41 483.74 44.97 483.58 42.41 C 484.51 39.24 487.06 36.96 489.33 34.70 C 488.67 34.38 487.37 33.72 486.72 33.40 C 487.54 32.23 488.31 31.03 489.02 29.80 Z" />
<path fill="#444f55" opacity="1.00" d=" M 269.02 57.11 C 269.96 58.03 270.02 59.40 270.48 60.56 C 271.38 61.74 272.81 62.33 274.02 63.13 C 274.29 65.94 273.00 68.49 272.68 71.23 C 272.29 70.55 271.91 69.86 271.53 69.18 C 271.43 69.88 271.22 71.28 271.11 71.98 C 269.97 71.15 268.83 70.31 267.70 69.47 C 268.31 66.94 267.80 64.35 267.44 61.82 C 267.95 61.75 268.98 61.59 269.49 61.51 C 269.31 60.05 269.15 58.58 269.02 57.11 Z" />
<path fill="#444f55" opacity="1.00" d=" M 177.94 108.01 C 179.38 108.00 180.83 108.01 182.27 108.04 C 181.96 108.54 181.34 109.55 181.03 110.05 C 180.10 110.57 179.17 111.09 178.24 111.62 C 178.17 110.71 178.02 108.91 177.94 108.01 Z" />
<path fill="#444f55" opacity="1.00" d=" M 533.49 115.16 C 534.27 113.16 535.00 111.15 535.67 109.11 C 537.44 110.94 539.17 112.81 540.84 114.75 C 540.46 115.45 539.70 116.86 539.32 117.56 C 538.56 116.66 537.83 115.77 537.10 114.88 C 535.90 115.00 534.69 115.08 533.49 115.16 Z" />
<path fill="#444f55" opacity="1.00" d=" M 221.68 118.13 C 224.08 115.33 226.70 112.72 229.66 110.49 C 230.51 111.67 231.37 112.84 232.22 114.02 C 231.26 115.03 230.30 116.05 229.35 117.07 C 230.09 117.78 230.83 118.49 231.58 119.21 C 229.41 121.48 227.36 123.86 225.25 126.19 C 224.97 123.91 224.58 121.64 224.24 119.36 C 223.39 118.95 222.53 118.54 221.68 118.13 Z" />
<path fill="#444f55" opacity="1.00" d=" M 156.50 115.44 C 159.50 115.87 162.50 115.44 164.99 113.61 C 165.83 114.78 166.67 115.95 167.52 117.12 C 167.00 117.86 166.49 118.60 165.97 119.35 C 166.67 119.88 167.37 120.41 168.08 120.95 C 163.62 120.69 159.42 122.56 154.93 122.11 C 155.43 121.00 155.93 119.89 156.44 118.79 C 155.94 118.04 155.46 117.30 154.97 116.56 C 155.35 116.28 156.12 115.72 156.50 115.44 Z" />
<path fill="#444f55" opacity="1.00" d=" M 136.72 120.39 C 140.46 119.26 144.23 118.21 147.94 116.99 C 147.49 117.76 147.05 118.53 146.61 119.31 C 146.83 119.62 147.27 120.25 147.49 120.57 C 146.30 122.02 145.13 123.49 143.87 124.87 L 143.10 125.06 C 142.80 124.02 142.50 122.99 142.19 121.95 C 140.25 121.89 138.39 121.39 136.72 120.39 Z" />
<path fill="#444f55" opacity="1.00" d=" M 216.10 125.29 C 217.59 123.48 219.07 121.66 220.40 119.72 C 221.14 120.59 221.90 121.45 222.66 122.32 C 222.08 122.62 220.94 123.23 220.36 123.53 C 220.23 126.32 220.35 129.12 220.79 131.89 L 220.80 131.95 C 219.78 133.26 218.83 134.61 217.88 135.96 C 217.54 135.43 216.87 134.36 216.53 133.83 C 218.15 131.01 218.33 127.86 216.10 125.29 Z" />
<path fill="#444f55" opacity="1.00" d=" M 522.06 138.17 C 523.84 135.04 525.36 131.77 526.82 128.47 C 527.20 129.14 527.96 130.46 528.34 131.12 C 527.64 133.70 526.82 136.24 525.92 138.75 C 524.63 138.56 523.34 138.36 522.06 138.17 Z" />
<path fill="#444f55" opacity="1.00" d=" M 426.84 137.13 C 427.59 135.49 428.17 133.77 428.80 132.07 C 429.25 134.93 431.07 137.14 433.46 138.67 C 433.03 141.75 431.43 144.41 429.83 147.02 C 428.49 146.67 427.16 146.32 425.83 146.02 C 425.60 144.30 425.37 142.58 425.14 140.87 C 427.47 140.49 430.27 141.41 432.28 140.01 C 431.45 137.87 428.65 138.02 426.84 137.13 Z" />
<path fill="#444f55" opacity="1.00" d=" M 77.18 159.07 C 78.86 159.46 80.58 159.53 82.14 158.65 C 83.36 161.25 82.03 163.91 81.18 166.39 C 78.35 166.90 76.65 164.56 74.89 162.81 C 75.65 161.56 76.06 160.04 77.18 159.07 M 79.37 161.13 C 78.50 161.02 75.84 162.49 77.77 163.06 C 79.30 163.83 82.46 160.63 79.37 161.13 Z" />
<path fill="#444f55" opacity="1.00" d=" M 423.18 159.35 L 423.56 159.08 C 422.69 160.76 421.50 162.24 420.45 163.80 C 420.46 163.30 420.47 162.29 420.48 161.79 C 419.86 161.74 418.63 161.63 418.02 161.58 L 418.93 161.27 C 420.42 160.84 422.00 160.44 423.18 159.35 Z" />
<path fill="#444f55" opacity="1.00" d=" M 348.14 180.34 C 352.99 180.00 357.08 176.87 360.36 173.51 C 361.72 174.16 363.08 174.89 364.07 176.08 C 362.44 176.45 360.79 176.94 360.02 178.56 C 360.58 179.11 361.71 180.19 362.27 180.74 C 359.24 183.06 355.86 184.86 352.52 186.69 C 350.66 184.87 349.06 182.80 348.14 180.34 Z" />
<path fill="#444f55" opacity="1.00" d=" M 182.84 190.04 C 184.22 189.23 185.60 188.43 186.97 187.59 C 188.03 188.49 189.10 189.40 190.17 190.31 C 195.01 189.09 200.01 189.32 204.95 189.35 C 201.85 193.41 196.39 192.63 191.99 193.94 C 189.23 194.45 187.13 196.53 184.43 197.14 C 184.42 196.55 184.41 195.35 184.41 194.75 C 185.48 193.83 186.55 192.92 187.62 192.01 C 186.03 191.34 184.43 190.69 182.84 190.04 Z" />
<path fill="#444f55" opacity="1.00" d=" M 57.46 192.35 C 59.34 192.92 57.84 196.18 56.01 195.24 C 53.94 194.54 56.70 192.95 57.46 192.35 Z" />
<path fill="#444f55" opacity="1.00" d=" M 164.46 199.89 C 165.99 199.28 167.51 198.62 168.96 197.84 C 171.06 199.38 173.63 199.38 176.11 199.29 C 177.51 199.29 178.92 199.28 180.33 199.28 C 177.25 201.44 173.68 202.78 170.51 204.80 C 168.46 203.21 166.44 201.57 164.46 199.89 Z" />
<path fill="#444f55" opacity="1.00" d=" M 154.15 201.56 C 156.49 201.39 158.83 201.19 161.16 200.83 C 161.37 202.69 161.58 204.55 161.77 206.42 C 159.51 205.86 157.25 205.08 155.31 203.78 C 155.02 203.22 154.44 202.12 154.15 201.56 Z" />
<path fill="#444f55" opacity="1.00" d=" M 525.47 205.17 C 531.20 204.63 537.00 204.40 542.64 203.17 L 542.92 203.11 C 543.87 205.38 546.16 206.43 547.90 208.00 C 542.42 209.15 536.80 210.06 531.20 209.82 C 529.46 209.56 527.73 209.22 526.00 208.89 C 525.90 207.64 525.71 206.40 525.47 205.17 Z" />
<path fill="#444f55" opacity="1.00" d=" M 79.22 208.32 C 83.08 207.16 87.31 207.24 90.93 205.37 C 92.64 205.52 94.35 205.85 95.52 207.25 C 92.59 208.26 89.49 208.62 86.57 209.66 C 84.70 210.82 83.84 212.96 82.66 214.72 C 82.29 214.92 81.56 215.32 81.19 215.52 L 80.90 215.27 C 79.90 214.42 78.91 213.57 77.92 212.73 C 78.37 211.27 78.80 209.79 79.22 208.32 Z" />
</g>
<g id="#3f7189fe">
<path fill="#3f7189" opacity="1.00" d=" M 221.05 37.66 C 224.95 36.63 228.91 35.84 232.83 34.93 C 234.74 36.47 236.43 38.24 237.99 40.14 C 235.19 42.61 231.74 43.50 228.06 43.03 C 228.76 42.14 229.46 41.26 230.17 40.37 C 221.97 40.19 213.72 41.45 205.57 40.05 C 210.63 38.62 215.99 39.06 221.05 37.66 Z" />
<path fill="#3f7189" opacity="1.00" d=" M 379.40 42.93 L 380.03 42.99 C 381.03 44.58 379.87 46.45 378.24 46.95 C 378.51 45.59 378.60 44.12 379.40 42.93 Z" />
<path fill="#3f7189" opacity="1.00" d=" M 176.40 44.71 C 181.00 43.42 185.77 43.98 190.47 43.96 C 186.22 46.07 180.87 46.25 176.40 44.71 Z" />
<path fill="#3f7189" opacity="1.00" d=" M 386.48 45.16 C 387.36 45.13 389.12 45.08 390.00 45.05 C 391.18 46.99 392.35 48.93 393.62 50.81 C 390.90 51.37 390.53 49.04 390.01 47.07 C 388.84 46.41 387.67 45.76 386.48 45.16 Z" />
<path fill="#3f7189" opacity="1.00" d=" M 174.93 47.41 C 177.95 47.82 180.93 48.41 183.94 48.92 C 183.78 49.79 183.62 50.66 183.48 51.54 C 180.41 51.24 176.80 49.52 174.03 51.61 C 172.37 52.24 170.53 52.37 168.80 52.77 C 170.83 50.96 172.81 49.11 174.93 47.41 Z" />
<path fill="#3f7189" opacity="1.00" d=" M 271.53 69.18 C 271.91 69.86 272.29 70.55 272.68 71.23 C 272.34 72.74 271.96 74.24 271.59 75.75 L 271.11 75.73 C 269.06 75.66 267.00 75.60 264.96 75.54 C 265.61 73.40 266.56 71.38 267.70 69.47 C 268.83 70.31 269.97 71.15 271.11 71.98 C 271.22 71.28 271.43 69.88 271.53 69.18 Z" />
<path fill="#3f7189" opacity="1.00" d=" M 390.07 71.95 C 392.05 72.25 394.08 72.63 395.70 73.91 C 393.88 75.92 391.24 75.55 388.85 75.20 C 389.27 74.13 389.68 73.04 390.07 71.95 Z" />
<path fill="#3f7189" opacity="1.00" d=" M 260.71 79.41 C 262.48 75.85 266.63 75.78 270.01 76.65 C 270.05 77.50 270.13 79.19 270.17 80.03 C 267.01 79.87 263.86 79.69 260.71 79.41 Z" />
<path fill="#3f7189" opacity="1.00" d=" M 215.63 86.75 C 220.60 85.23 225.88 84.83 230.89 86.48 C 230.04 89.41 228.07 91.75 226.20 94.08 C 226.26 93.27 226.39 91.66 226.45 90.86 C 222.47 92.21 218.16 92.37 214.22 93.66 C 215.52 91.58 215.74 89.14 215.63 86.75 Z" />
<path fill="#3f7189" opacity="1.00" d=" M 244.85 95.67 C 247.71 96.33 250.60 96.83 253.51 97.24 C 250.08 101.01 246.87 105.04 242.74 108.09 C 241.53 106.29 241.94 104.25 242.49 102.32 C 241.98 101.66 241.46 101.00 240.94 100.36 C 242.97 100.30 245.00 100.61 247.00 100.96 C 247.25 100.54 247.51 100.12 247.77 99.69 C 246.15 99.63 244.54 99.57 242.93 99.50 C 243.54 98.21 244.18 96.93 244.85 95.67 Z" />
<path fill="#3f7189" opacity="1.00" d=" M 171.18 106.98 C 171.50 106.89 172.16 106.71 172.49 106.62 C 172.77 109.26 176.19 107.56 177.94 108.01 C 178.02 108.91 178.17 110.71 178.24 111.62 C 177.43 112.33 176.68 113.10 175.93 113.88 L 175.76 114.07 C 173.09 113.41 170.33 113.36 167.70 114.19 C 169.31 115.82 171.50 116.27 173.72 116.24 C 172.24 117.46 171.46 119.18 170.94 120.98 C 170.23 120.97 168.79 120.96 168.08 120.95 C 167.37 120.41 166.67 119.88 165.97 119.35 C 166.49 118.60 167.00 117.86 167.52 117.12 C 166.67 115.95 165.83 114.78 164.99 113.61 C 167.56 111.92 169.37 109.41 171.18 106.98 Z" />
<path fill="#3f7189" opacity="1.00" d=" M 401.00 118.46 C 402.65 115.90 404.19 113.24 406.10 110.86 C 408.95 109.85 412.07 110.56 415.02 110.68 C 413.89 111.95 412.79 113.23 411.78 114.59 C 409.59 113.63 407.18 113.67 404.87 114.06 C 403.62 117.27 408.39 116.08 410.29 116.83 C 410.08 117.15 409.67 117.78 409.46 118.09 C 407.42 118.71 405.14 119.06 403.76 120.86 C 402.84 120.06 401.91 119.26 401.00 118.46 Z" />
<path fill="#3f7189" opacity="1.00" d=" M 220.40 119.72 C 220.81 119.18 221.24 118.65 221.68 118.13 C 222.53 118.54 223.39 118.95 224.24 119.36 C 224.58 121.64 224.97 123.91 225.25 126.19 C 225.12 128.87 222.51 130.25 220.79 131.89 C 220.35 129.12 220.23 126.32 220.36 123.53 C 220.94 123.23 222.08 122.62 222.66 122.32 C 221.90 121.45 221.14 120.59 220.40 119.72 Z" />
<path fill="#3f7189" opacity="1.00" d=" M 334.24 137.29 C 335.97 135.42 337.71 133.54 339.24 131.50 C 341.17 133.45 343.85 134.16 346.39 134.98 C 344.13 138.08 341.19 140.63 339.01 143.80 C 336.27 142.24 332.72 142.24 330.87 145.13 C 332.90 145.71 334.98 146.03 337.08 146.21 C 335.02 148.42 333.06 150.77 332.23 153.75 C 329.54 153.66 326.85 153.59 324.17 153.56 C 326.35 149.19 328.72 144.91 331.63 140.97 C 334.51 140.84 337.37 140.49 340.21 139.93 C 338.21 139.06 336.21 138.19 334.24 137.29 Z" />
<path fill="#3f7189" opacity="1.00" d=" M 420.72 147.35 C 421.39 145.12 424.10 145.98 425.83 146.02 C 427.16 146.32 428.49 146.67 429.83 147.02 C 428.65 149.15 427.47 151.40 425.31 152.70 C 424.64 154.80 424.15 156.96 423.56 159.08 L 423.18 159.35 C 420.83 157.41 417.15 158.03 415.24 155.65 L 416.14 154.95 C 418.52 155.05 420.91 155.06 423.29 154.77 C 421.88 153.84 420.44 152.94 419.02 152.04 C 420.79 150.01 423.75 150.06 426.08 149.00 C 424.33 148.32 422.53 147.80 420.72 147.35 Z" />
<path fill="#3f7189" opacity="1.00" d=" M 412.97 160.43 C 414.97 160.51 416.97 160.80 418.93 161.27 L 418.02 161.58 C 416.54 162.10 415.11 162.73 413.70 163.38 C 415.31 165.04 417.69 164.68 419.79 164.78 C 419.19 165.65 418.59 166.53 418.04 167.43 C 415.87 167.53 413.82 168.23 411.91 169.23 C 413.38 169.63 414.85 170.02 416.34 170.41 C 414.84 174.51 409.59 175.64 408.87 180.13 C 408.61 179.70 408.10 178.83 407.85 178.40 C 408.50 175.31 409.34 171.97 407.57 169.07 C 409.99 166.63 411.94 163.72 412.97 160.43 Z" />
<path fill="#3f7189" opacity="1.00" d=" M 366.54 165.92 C 367.43 164.44 368.40 163.02 369.50 161.68 C 369.21 162.28 368.63 163.48 368.34 164.08 C 369.88 166.13 371.52 168.11 373.25 170.00 C 372.66 170.79 372.06 171.58 371.45 172.35 C 369.18 172.26 366.92 172.15 364.66 172.04 C 364.80 171.49 365.08 170.39 365.22 169.85 C 366.35 169.54 367.51 169.29 368.66 169.02 C 367.95 167.99 367.24 166.95 366.54 165.92 Z" />
<path fill="#3f7189" opacity="1.00" d=" M 176.22 175.36 C 179.93 172.70 182.80 169.11 186.08 165.97 C 187.32 167.23 188.41 168.65 189.06 170.31 C 182.13 173.84 175.24 177.49 168.84 181.91 C 170.45 178.91 173.64 177.40 176.22 175.36 Z" />
<path fill="#3f7189" opacity="1.00" d=" M 186.97 187.59 C 192.33 184.84 196.84 180.63 202.59 178.66 C 205.22 181.12 205.61 184.71 206.06 188.08 C 205.78 188.39 205.23 189.03 204.95 189.35 C 200.01 189.32 195.01 189.09 190.17 190.31 C 189.10 189.40 188.03 188.49 186.97 187.59 Z" />
<path fill="#3f7189" opacity="1.00" d=" M 361.19 239.44 C 361.52 238.96 362.18 237.98 362.52 237.50 C 365.62 237.58 368.72 237.82 371.82 238.02 C 370.16 241.06 367.47 243.53 366.56 246.96 C 364.57 243.29 360.36 244.62 357.41 246.05 L 357.95 245.00 C 358.46 243.96 358.99 242.93 359.57 241.93 C 363.12 242.82 367.19 243.20 370.07 240.45 C 367.10 240.30 364.05 240.42 361.19 239.44 Z" />
<path fill="#3f7189" opacity="1.00" d=" M 356.10 254.96 C 357.83 254.77 359.57 254.89 361.23 255.50 C 360.92 255.90 360.31 256.70 360.01 257.10 C 358.58 257.37 357.14 257.59 355.71 257.82 C 355.81 257.11 356.00 255.68 356.10 254.96 Z" />
</g>
<g id="#558f9eff">
<path fill="#558f9e" opacity="1.00" d=" M 190.47 43.96 C 194.86 40.71 200.45 41.04 205.57 40.05 C 213.72 41.45 221.97 40.19 230.17 40.37 C 229.46 41.26 228.76 42.14 228.06 43.03 C 222.22 42.57 216.44 43.74 211.01 45.79 C 207.07 47.24 202.74 45.24 198.87 46.84 C 194.12 48.63 188.96 48.82 183.94 48.92 C 180.93 48.41 177.95 47.82 174.93 47.41 C 174.33 47.27 173.12 47.00 172.52 46.87 C 173.67 46.11 174.84 45.37 176.01 44.63 L 176.40 44.71 C 180.87 46.25 186.22 46.07 190.47 43.96 Z" />
<path fill="#558f9e" opacity="1.00" d=" M 174.03 51.61 C 176.80 49.52 180.41 51.24 183.48 51.54 L 182.83 52.94 C 179.84 53.04 176.93 52.20 174.03 51.61 Z" />
<path fill="#558f9e" opacity="1.00" d=" M 392.39 54.15 C 394.17 54.03 395.94 54.18 396.76 56.02 C 396.98 58.17 397.64 60.23 398.69 62.12 C 397.35 65.51 398.92 69.81 396.10 72.58 C 394.82 77.87 393.15 83.05 391.17 88.11 C 390.71 87.44 390.26 86.76 389.81 86.08 C 390.55 84.04 390.86 81.90 390.69 79.73 C 391.07 79.30 391.83 78.43 392.21 77.99 C 390.78 77.88 389.35 77.76 387.92 77.65 C 388.03 77.36 388.24 76.78 388.34 76.49 C 388.47 76.17 388.72 75.53 388.85 75.20 C 391.24 75.55 393.88 75.92 395.70 73.91 C 394.08 72.63 392.05 72.25 390.07 71.95 C 392.09 66.96 391.68 61.21 394.17 56.46 C 393.57 55.69 392.98 54.92 392.39 54.15 Z" />
<path fill="#558f9e" opacity="1.00" d=" M 209.21 77.55 C 213.93 74.84 219.22 73.36 224.46 72.04 C 220.00 74.44 215.31 77.03 210.19 77.56 L 209.21 77.55 Z" />
<path fill="#558f9e" opacity="1.00" d=" M 249.48 88.35 C 252.43 84.28 258.34 84.11 260.71 79.41 C 263.86 79.69 267.01 79.87 270.17 80.03 C 268.75 83.71 265.13 86.29 262.92 89.64 C 261.91 90.37 260.92 91.11 259.93 91.87 C 256.26 90.99 255.01 94.67 253.81 97.29 L 253.51 97.24 C 250.60 96.83 247.71 96.33 244.85 95.67 C 246.25 93.15 247.58 90.54 249.48 88.35 Z" />
<path fill="#558f9e" opacity="1.00" d=" M 406.94 109.71 C 411.38 103.53 415.12 96.84 419.99 90.95 C 419.84 91.51 419.53 92.63 419.38 93.18 C 419.84 93.79 420.30 94.39 420.77 95.00 C 420.66 95.86 420.44 97.58 420.33 98.45 C 420.87 98.66 421.93 99.10 422.46 99.32 C 420.61 101.49 419.70 104.13 419.55 106.96 C 419.66 108.84 417.60 109.27 416.30 110.00 C 413.18 110.00 410.06 109.86 406.94 109.71 Z" />
<path fill="#558f9e" opacity="1.00" d=" M 167.70 114.19 C 170.33 113.36 173.09 113.41 175.76 114.07 C 175.25 114.61 174.23 115.70 173.72 116.24 C 171.50 116.27 169.31 115.82 167.70 114.19 Z" />
<path fill="#558f9e" opacity="1.00" d=" M 404.87 114.06 C 407.18 113.67 409.59 113.63 411.78 114.59 C 411.41 115.15 410.67 116.27 410.29 116.83 C 408.39 116.08 403.62 117.27 404.87 114.06 Z" />
<path fill="#558f9e" opacity="1.00" d=" M 403.76 120.86 C 405.14 119.06 407.42 118.71 409.46 118.09 C 408.01 120.95 406.81 123.93 405.51 126.85 C 404.42 126.25 403.34 125.64 402.27 125.04 C 402.76 123.65 403.23 122.24 403.76 120.86 Z" />
<path fill="#558f9e" opacity="1.00" d=" M 331.63 140.97 C 332.47 139.73 333.29 138.46 334.24 137.29 C 336.21 138.19 338.21 139.06 340.21 139.93 C 337.37 140.49 334.51 140.84 331.63 140.97 Z" />
<path fill="#558f9e" opacity="1.00" d=" M 421.37 145.49 C 423.25 142.75 425.11 139.98 426.84 137.13 C 428.65 138.02 431.45 137.87 432.28 140.01 C 430.27 141.41 427.47 140.49 425.14 140.87 C 425.37 142.58 425.60 144.30 425.83 146.02 C 424.10 145.98 421.39 145.12 420.72 147.35 C 422.53 147.80 424.33 148.32 426.08 149.00 C 423.75 150.06 420.79 150.01 419.02 152.04 C 420.44 152.94 421.88 153.84 423.29 154.77 C 420.91 155.06 418.52 155.05 416.14 154.95 C 418.37 152.07 419.34 148.48 421.37 145.49 Z" />
<path fill="#558f9e" opacity="1.00" d=" M 330.87 145.13 C 332.72 142.24 336.27 142.24 339.01 143.80 C 338.53 144.40 337.56 145.61 337.08 146.21 C 334.98 146.03 332.90 145.71 330.87 145.13 Z" />
<path fill="#558f9e" opacity="1.00" d=" M 412.97 160.43 C 413.59 158.78 414.29 157.14 415.24 155.65 C 417.15 158.03 420.83 157.41 423.18 159.35 C 422.00 160.44 420.42 160.84 418.93 161.27 C 416.97 160.80 414.97 160.51 412.97 160.43 Z" />
<path fill="#558f9e" opacity="1.00" d=" M 320.03 158.74 C 322.98 158.32 325.99 158.60 328.59 160.15 C 328.44 160.34 328.12 160.74 327.97 160.93 C 325.10 160.59 322.26 160.05 319.45 159.38 L 320.03 158.74 Z" />
<path fill="#558f9e" opacity="1.00" d=" M 413.70 163.38 C 415.11 162.73 416.54 162.10 418.02 161.58 C 418.63 161.63 419.86 161.74 420.48 161.79 C 420.47 162.29 420.46 163.30 420.45 163.80 L 419.79 164.78 C 417.69 164.68 415.31 165.04 413.70 163.38 Z" />
<path fill="#558f9e" opacity="1.00" d=" M 363.92 170.19 C 364.84 168.80 365.67 167.35 366.54 165.92 C 367.24 166.95 367.95 167.99 368.66 169.02 C 367.51 169.29 366.35 169.54 365.22 169.85 L 363.92 170.19 Z" />
<path fill="#558f9e" opacity="1.00" d=" M 411.91 169.23 C 413.82 168.23 415.87 167.53 418.04 167.43 C 417.47 168.42 416.90 169.42 416.34 170.41 C 414.85 170.02 413.38 169.63 411.91 169.23 Z" />
<path fill="#558f9e" opacity="1.00" d=" M 364.37 173.27 C 364.44 172.96 364.59 172.34 364.66 172.04 C 366.92 172.15 369.18 172.26 371.45 172.35 C 370.50 173.37 369.52 174.35 368.53 175.32 C 367.14 174.63 365.75 173.95 364.37 173.27 Z" />
<path fill="#558f9e" opacity="1.00" d=" M 173.97 196.77 C 177.22 196.35 180.83 195.67 183.69 197.77 C 182.63 198.43 181.51 198.93 180.33 199.28 C 178.92 199.28 177.51 199.29 176.11 199.29 C 175.39 198.44 174.68 197.60 173.97 196.77 Z" />
<path fill="#558f9e" opacity="1.00" d=" M 364.56 234.66 C 367.61 234.91 370.67 234.90 373.72 234.64 C 373.10 235.77 372.46 236.90 371.82 238.02 C 368.72 237.82 365.62 237.58 362.52 237.50 C 363.17 236.53 363.84 235.58 364.56 234.66 Z" />
<path fill="#558f9e" opacity="1.00" d=" M 360.98 239.76 C 361.03 239.68 361.14 239.52 361.19 239.44 C 364.05 240.42 367.10 240.30 370.07 240.45 C 367.19 243.20 363.12 242.82 359.57 241.93 C 359.93 241.38 360.63 240.30 360.98 239.76 Z" />
<path fill="#558f9e" opacity="1.00" d=" M 357.41 246.05 C 360.36 244.62 364.57 243.29 366.56 246.96 C 365.89 247.53 365.24 248.10 364.58 248.67 C 361.90 248.58 359.24 248.17 356.71 247.25 C 356.89 246.95 357.23 246.35 357.41 246.05 Z" />
<path fill="#558f9e" opacity="1.00" d=" M 356.88 251.22 C 358.14 248.56 361.09 249.17 362.81 250.90 C 362.33 251.42 361.35 252.44 360.86 252.95 C 359.46 252.56 358.07 252.06 356.88 251.22 Z" />
</g>
<g id="#9eabadff">
<path fill="#9eabad" opacity="1.00" d=" M 382.74 43.75 C 383.96 44.27 385.21 44.73 386.48 45.16 C 387.67 45.76 388.84 46.41 390.01 47.07 C 390.53 49.04 390.90 51.37 393.62 50.81 C 393.67 50.86 393.79 50.95 393.84 51.00 C 394.48 51.66 395.77 52.98 396.41 53.64 C 395.30 53.65 393.07 53.69 391.96 53.70 L 392.39 54.15 C 392.98 54.92 393.57 55.69 394.17 56.46 C 391.68 61.21 392.09 66.96 390.07 71.95 C 389.68 73.04 389.27 74.13 388.85 75.20 C 388.72 75.53 388.47 76.17 388.34 76.49 C 388.03 75.86 387.42 74.60 387.11 73.97 C 388.46 70.05 390.42 66.25 390.77 62.06 C 391.01 58.39 392.07 54.36 389.97 51.02 C 388.67 47.45 383.77 47.55 382.74 43.75 Z" />
<path fill="#9eabad" opacity="1.00" d=" M 249.97 62.85 C 252.36 60.62 255.66 59.89 258.35 58.13 C 256.88 61.63 253.94 64.38 250.00 64.63 C 249.41 65.55 248.82 66.46 248.24 67.38 C 246.84 67.08 245.44 66.77 244.04 66.47 C 240.42 69.59 235.54 70.17 231.11 71.45 C 229.47 71.96 227.74 71.89 226.06 71.67 L 225.89 71.40 C 227.88 70.40 229.96 69.51 232.16 69.10 C 232.64 68.87 233.60 68.41 234.07 68.18 C 237.05 66.51 240.46 65.92 243.58 64.59 C 245.63 63.75 247.73 62.97 249.97 62.85 Z" />
<path fill="#9eabad" opacity="1.00" d=" M 184.51 80.10 C 186.55 80.04 188.59 80.00 190.64 80.01 C 189.30 81.91 187.95 83.80 186.61 85.70 C 186.11 85.12 185.61 84.54 185.11 83.96 C 184.92 82.67 184.73 81.38 184.51 80.10 Z" />
<path fill="#9eabad" opacity="1.00" d=" M 410.14 135.01 C 414.23 128.97 416.33 121.74 420.91 116.02 C 420.37 123.74 416.08 130.55 411.63 136.64 C 410.23 138.32 410.88 140.85 409.41 142.47 C 408.20 144.03 406.19 144.49 404.45 145.16 C 406.25 141.73 407.88 138.18 410.14 135.01 Z" />
<path fill="#9eabad" opacity="1.00" d=" M 302.35 153.07 C 307.78 145.79 312.04 137.68 317.89 130.69 C 317.55 132.76 317.39 134.86 316.83 136.89 C 315.65 138.18 314.12 139.08 312.72 140.10 C 314.35 140.72 315.98 141.35 317.62 141.98 C 314.61 143.26 311.28 144.57 309.93 147.82 C 308.67 151.04 305.20 151.84 302.35 153.07 Z" />
<path fill="#9eabad" opacity="1.00" d=" M 346.31 166.05 C 348.70 157.36 350.88 148.63 353.02 139.88 C 353.67 145.94 352.96 152.01 352.06 158.00 C 351.30 161.32 348.66 163.76 346.31 166.05 Z" />
<path fill="#9eabad" opacity="1.00" d=" M 354.75 238.79 C 356.66 234.66 358.45 230.48 360.42 226.37 C 360.97 228.26 361.50 230.16 361.99 232.07 C 363.11 232.61 364.23 233.16 365.36 233.70 C 365.16 233.94 364.76 234.42 364.56 234.66 C 363.84 235.58 363.17 236.53 362.52 237.50 C 362.18 237.98 361.52 238.96 361.19 239.44 C 361.14 239.52 361.03 239.68 360.98 239.76 C 358.90 239.43 356.82 239.10 354.75 238.79 Z" />
<path fill="#9eabad" opacity="1.00" d=" M 345.74 261.92 C 347.42 255.47 350.69 249.64 352.76 243.33 C 353.95 245.00 356.18 244.62 357.95 245.00 L 357.41 246.05 C 357.23 246.35 356.89 246.95 356.71 247.25 C 356.54 247.54 356.20 248.11 356.03 248.40 C 355.10 249.92 354.23 251.48 353.46 253.08 C 352.07 255.87 350.81 258.72 349.39 261.49 C 348.17 261.63 346.95 261.77 345.74 261.92 Z" />
</g>
<g id="#788184fa">
<path fill="#788184" opacity="0.98" d=" M 225.20 84.80 C 228.17 82.56 232.03 82.02 235.64 81.67 C 233.90 85.58 228.83 86.76 225.20 84.80 Z" />
<path fill="#788184" opacity="0.98" d=" M 85.23 112.96 C 85.79 112.32 86.36 111.68 86.94 111.05 C 86.22 112.22 85.73 113.97 84.00 113.81 C 77.91 114.27 71.70 114.41 65.69 113.18 C 72.19 112.79 78.72 113.23 85.23 112.96 Z" />
<path fill="#788184" opacity="0.98" d=" M 79.37 161.13 C 82.46 160.63 79.30 163.83 77.77 163.06 C 75.84 162.49 78.50 161.02 79.37 161.13 Z" />
<path fill="#788184" opacity="0.98" d=" M 65.46 181.31 C 67.15 179.78 67.59 182.86 66.24 183.52 C 64.60 185.21 64.16 181.97 65.46 181.31 Z" />
</g>
<g id="#a1a8a3ff">
<path fill="#a1a8a3" opacity="1.00" d=" M 526.64 88.31 L 527.35 87.12 C 530.65 89.11 533.86 91.39 535.99 94.68 C 536.68 99.44 537.24 104.45 535.67 109.11 C 535.00 111.15 534.27 113.16 533.49 115.16 C 531.41 119.67 528.57 123.80 526.82 128.47 C 525.36 131.77 523.84 135.04 522.06 138.17 C 521.13 139.69 520.10 141.16 519.10 142.63 C 516.78 145.81 514.84 149.24 512.75 152.58 C 507.10 159.39 505.43 168.48 500.02 175.47 C 497.88 178.16 495.36 180.51 492.97 182.97 C 493.00 184.73 493.04 186.48 493.08 188.24 C 491.79 188.44 490.50 188.55 489.22 188.69 C 484.34 197.65 478.82 206.51 471.17 213.39 C 471.30 213.95 471.56 215.08 471.69 215.64 C 475.99 213.80 480.31 212.00 484.73 210.43 C 500.17 204.69 515.84 198.49 532.38 197.01 C 534.20 197.05 536.02 197.06 537.85 196.98 C 538.91 197.74 539.27 198.82 538.95 200.21 C 540.30 200.83 543.37 200.95 542.64 203.17 C 537.00 204.40 531.20 204.63 525.47 205.17 C 523.99 202.34 521.94 205.47 520.33 206.26 C 517.85 207.10 515.04 207.20 513.03 209.08 C 510.41 211.75 506.23 210.19 503.32 212.31 C 500.67 214.05 497.52 214.60 494.57 215.62 C 491.75 216.62 489.90 219.44 486.89 220.00 C 479.26 221.52 474.06 228.01 466.78 230.37 C 464.85 231.15 463.09 232.31 461.12 232.97 C 459.35 232.88 457.62 232.45 455.92 232.02 C 453.89 231.60 452.96 229.54 452.02 227.94 C 454.66 225.78 457.51 223.91 460.59 222.43 C 462.26 221.03 463.63 219.29 465.39 217.99 C 465.63 214.41 465.42 210.76 466.26 207.26 C 472.75 194.90 479.29 182.54 486.51 170.58 C 488.13 167.27 489.55 163.85 491.38 160.64 C 491.41 160.58 491.48 160.45 491.52 160.38 C 497.71 149.19 503.17 137.60 509.69 126.58 C 511.95 122.28 514.57 118.17 516.47 113.70 C 516.51 113.63 516.58 113.48 516.61 113.41 C 521.44 105.75 522.92 96.69 526.53 88.51 C 526.56 88.46 526.61 88.36 526.64 88.31 Z" />
<path fill="#a1a8a3" opacity="1.00" d=" M 345.74 261.92 C 346.95 261.77 348.17 261.63 349.39 261.49 C 348.15 263.80 347.93 266.48 346.81 268.84 C 345.53 270.76 343.76 272.28 342.16 273.93 C 343.37 269.93 344.54 265.92 345.74 261.92 Z" />
</g>
</svg>
