<?xml version="1.0" encoding="UTF-8" ?>
<!DOCTYPE svg PUBLIC "-//W3C//DTD SVG 1.1//EN" "http://www.w3.org/Graphics/SVG/1.1/DTD/svg11.dtd">
<svg width="548pt" height="280pt" viewBox="0 0 548 280" version="1.1" xmlns="http://www.w3.org/2000/svg">
<g id="#e6e7e7ff">
<path fill="#e6e7e7" opacity="1.00" d=" M 485.74 0.00 L 488.48 0.00 C 490.36 1.42 491.95 3.17 493.51 4.93 C 494.17 5.86 494.84 6.78 495.52 7.71 C 495.62 10.94 495.63 14.17 495.52 17.40 C 491.45 22.46 489.82 28.95 485.69 33.95 C 482.40 38.09 480.36 43.04 477.04 47.15 C 475.32 51.23 473.19 55.15 470.66 58.78 C 470.60 62.54 467.71 65.15 465.87 68.13 C 464.94 69.55 463.69 70.70 462.45 71.84 C 462.43 73.30 462.44 74.75 462.44 76.21 C 461.02 77.99 459.77 79.89 458.66 81.88 C 456.32 86.20 452.28 89.48 450.88 94.32 C 450.30 94.35 449.16 94.42 448.58 94.45 C 445.41 100.11 442.37 105.87 438.43 111.06 C 438.69 111.46 439.21 112.27 439.47 112.67 C 437.94 114.99 436.66 117.47 435.63 120.05 C 433.96 124.28 430.10 127.19 428.53 131.48 C 427.11 134.70 426.97 138.76 423.80 140.91 C 423.78 144.51 419.78 146.01 419.19 149.43 C 418.51 152.05 416.90 154.23 414.81 155.91 C 413.96 158.02 412.98 160.08 411.70 161.96 C 411.61 162.50 411.44 163.57 411.35 164.11 C 409.37 166.30 407.80 169.25 404.69 169.95 C 403.48 172.28 402.72 174.79 402.32 177.38 C 395.82 187.17 387.41 195.63 381.85 206.05 C 378.29 212.06 374.56 217.97 370.70 223.78 C 367.48 232.05 360.51 238.14 357.18 246.33 C 355.40 248.42 353.93 250.77 353.09 253.40 C 351.36 257.87 348.48 261.88 347.47 266.63 C 346.83 269.72 344.12 271.64 342.18 273.91 C 344.19 268.32 345.57 262.53 347.48 256.90 C 356.53 234.28 366.48 211.90 378.92 190.90 C 384.79 181.69 389.38 171.69 395.75 162.79 C 398.01 159.81 398.64 156.00 400.63 152.86 C 405.82 141.84 412.69 131.78 417.92 120.78 C 419.73 117.38 422.23 114.40 424.13 111.04 C 425.39 108.40 427.11 105.89 427.38 102.89 C 427.82 98.90 430.34 95.63 432.40 92.33 C 435.13 88.24 437.01 83.68 439.29 79.35 C 443.84 71.12 448.00 62.68 452.64 54.51 C 455.19 49.30 457.20 43.75 461.06 39.30 C 459.81 39.49 458.24 39.16 457.53 40.50 C 451.95 47.88 446.71 55.62 440.06 62.11 C 437.69 64.84 436.08 68.12 433.88 70.97 C 430.61 75.65 426.51 79.68 423.44 84.50 C 421.60 87.34 419.81 90.21 417.99 93.07 C 416.99 95.24 415.34 96.98 413.51 98.49 C 413.53 99.10 413.56 100.32 413.57 100.93 C 408.25 106.06 404.67 112.54 400.49 118.54 C 395.00 127.23 389.43 135.93 382.94 143.93 C 380.87 146.61 379.35 149.68 377.18 152.28 C 374.55 155.61 371.28 158.38 368.79 161.81 C 367.08 164.14 366.17 167.01 364.13 169.10 C 359.37 173.58 354.98 179.53 347.86 180.00 C 345.09 180.10 344.00 177.00 344.41 174.69 C 345.61 168.06 347.87 161.69 349.31 155.11 C 351.54 147.56 352.89 139.78 355.14 132.23 C 356.54 127.57 356.88 122.65 358.57 118.08 C 359.81 114.61 360.79 111.07 361.85 107.55 C 364.01 99.98 367.26 92.76 369.13 85.10 C 369.67 82.72 370.72 80.50 371.89 78.37 C 370.90 78.43 369.92 78.49 368.94 78.56 C 367.47 82.06 364.74 84.78 362.77 87.98 C 360.04 92.29 357.67 96.81 355.03 101.16 C 353.80 103.00 353.39 105.18 353.08 107.33 C 349.89 111.19 349.61 116.53 346.43 120.38 C 342.79 125.11 339.92 130.38 336.02 134.91 C 332.66 138.74 329.86 143.01 326.72 147.01 C 326.63 147.57 326.44 148.69 326.35 149.24 C 324.78 151.68 324.09 154.82 321.08 155.95 C 316.19 164.57 307.22 169.93 302.44 178.63 C 299.34 182.75 295.77 186.52 292.46 190.46 C 285.98 194.91 281.54 201.56 275.34 206.36 C 271.40 210.03 265.91 211.17 261.73 214.49 C 260.42 214.60 259.10 214.70 257.80 214.80 C 257.37 214.76 256.50 214.69 256.07 214.65 C 255.50 214.19 254.94 213.72 254.39 213.24 C 254.90 211.97 255.40 210.70 255.90 209.43 L 254.29 209.81 C 258.59 205.28 262.59 200.46 267.20 196.22 C 274.14 189.76 279.74 182.09 286.02 175.03 C 286.40 174.77 287.17 174.26 287.56 174.01 L 287.39 173.14 C 292.68 166.54 296.86 159.10 302.65 152.91 C 305.75 149.08 308.05 144.70 310.83 140.64 C 315.64 133.28 321.44 126.65 326.59 119.54 C 334.26 109.84 341.09 99.49 349.03 89.99 C 350.49 88.10 351.50 85.92 352.84 83.95 C 360.99 73.62 367.72 62.27 375.60 51.74 C 377.85 49.43 378.92 46.32 379.47 43.20 C 380.01 43.20 381.09 43.21 381.64 43.22 C 382.97 43.89 384.32 44.56 385.70 45.16 L 386.49 45.16 C 387.78 45.97 389.09 46.78 390.40 47.59 C 390.42 48.40 390.47 50.02 390.49 50.84 C 391.20 50.74 392.61 50.56 393.32 50.47 C 393.41 50.63 393.60 50.97 393.69 51.14 C 394.10 51.88 394.51 52.62 394.92 53.36 C 394.14 53.31 392.56 53.21 391.78 53.17 C 391.82 55.18 393.65 55.94 394.93 57.02 C 394.37 57.17 393.25 57.48 392.69 57.63 C 392.54 61.77 391.63 65.82 390.59 69.82 C 389.49 73.97 387.03 77.70 386.52 82.03 C 386.44 84.84 383.58 86.11 382.23 88.26 C 377.62 96.62 375.12 105.87 372.55 114.99 C 370.64 122.82 368.05 130.45 365.98 138.24 C 364.84 144.48 360.99 150.30 362.61 156.87 C 368.07 147.68 374.93 139.37 379.93 129.89 C 384.49 121.45 390.88 114.20 395.53 105.83 C 395.60 105.72 395.75 105.50 395.82 105.39 C 401.83 97.20 407.46 88.78 413.81 80.85 C 416.34 76.78 420.00 73.59 422.42 69.45 C 438.83 48.67 457.30 29.58 474.15 9.15 C 476.05 6.70 479.62 6.94 481.69 4.73 C 483.16 3.26 484.41 1.60 485.74 0.00 Z" />
<path fill="#e6e7e7" opacity="1.00" d=" M 203.00 26.12 C 210.94 24.86 219.08 25.94 226.95 24.31 C 230.18 24.17 233.42 24.22 236.66 24.11 C 236.85 25.87 237.44 27.56 237.59 29.31 C 237.53 30.25 237.47 31.19 237.41 32.13 C 236.82 32.25 235.63 32.50 235.04 32.62 C 232.17 35.71 227.77 35.37 224.09 36.72 C 217.58 38.73 210.68 38.43 204.06 39.83 C 201.15 41.39 197.84 41.49 194.62 41.58 C 190.21 45.41 184.14 42.60 179.00 43.90 C 176.00 44.97 172.56 42.31 170.33 45.44 C 168.85 45.46 167.37 45.48 165.90 45.51 C 162.82 47.76 158.85 47.78 155.54 49.53 C 153.18 50.89 150.40 50.59 147.80 50.58 C 146.41 51.28 145.02 51.98 143.64 52.69 C 142.31 57.78 140.68 62.81 138.21 67.47 C 134.90 73.64 131.88 80.01 127.73 85.68 C 125.22 94.87 117.62 101.57 114.84 110.67 C 120.92 109.83 126.98 108.93 133.06 108.13 C 133.46 107.96 134.26 107.63 134.67 107.46 C 144.64 105.35 154.85 104.63 164.92 103.26 C 166.97 103.16 169.02 103.22 171.07 103.19 C 172.76 101.25 175.14 103.41 176.95 103.93 C 176.43 104.36 175.40 105.22 174.89 105.65 L 174.16 105.62 C 173.62 105.61 172.55 105.59 172.01 105.58 C 169.58 108.25 167.59 111.43 164.51 113.43 C 162.22 114.90 159.38 114.53 156.80 114.74 C 153.80 117.37 149.65 115.85 146.16 117.04 C 142.17 118.29 138.20 119.89 133.93 119.69 C 133.57 120.15 132.85 121.07 132.49 121.52 C 128.74 121.27 125.05 121.97 121.65 123.56 C 117.97 125.33 113.78 124.65 110.06 123.39 C 110.39 125.51 111.53 127.33 112.78 129.02 C 113.81 128.13 114.83 127.24 115.84 126.35 C 118.70 127.17 121.62 127.76 124.58 128.01 C 119.17 128.30 114.25 131.44 108.72 130.60 C 108.15 131.46 107.58 132.32 107.01 133.18 C 106.65 132.72 105.94 131.81 105.58 131.35 C 102.87 131.49 100.18 131.92 97.56 132.62 C 97.29 133.69 97.03 134.77 96.76 135.84 C 94.44 135.24 92.10 134.69 89.74 134.25 C 89.79 136.72 89.37 139.17 87.67 141.06 C 87.60 142.21 87.53 143.37 87.47 144.52 C 86.76 144.50 85.35 144.47 84.64 144.45 C 84.53 145.70 84.43 146.96 84.32 148.22 C 83.61 148.31 82.18 148.50 81.47 148.59 C 81.48 150.32 81.49 152.05 81.51 153.79 C 82.73 153.18 83.96 152.57 85.19 151.96 C 84.13 153.71 83.01 155.47 82.45 157.46 C 82.40 157.66 82.29 158.06 82.23 158.26 L 81.96 158.37 C 81.11 158.71 80.26 159.06 79.41 159.41 C 78.78 159.20 77.50 158.79 76.86 158.58 C 75.35 161.20 74.20 164.05 72.06 166.26 C 71.69 168.90 70.54 171.18 68.32 172.75 C 68.96 173.40 69.60 174.04 70.25 174.67 C 71.27 173.74 72.29 172.82 73.33 171.91 C 71.73 174.42 69.99 176.84 68.07 179.13 C 68.65 177.81 69.24 176.49 69.84 175.19 C 69.13 175.00 67.69 174.61 66.97 174.41 C 64.69 176.96 64.57 180.84 61.87 183.03 C 61.54 185.61 60.38 187.95 59.03 190.15 C 61.18 189.89 62.45 188.63 62.83 186.59 C 63.54 185.96 64.25 185.33 64.97 184.71 C 61.95 190.38 57.38 195.15 55.13 201.24 C 54.45 201.31 53.09 201.46 52.41 201.54 C 52.46 202.39 52.57 204.11 52.62 204.96 C 54.81 204.25 56.40 202.57 57.88 200.88 C 66.07 198.04 74.45 195.76 82.80 193.44 C 85.43 192.56 88.22 192.54 90.93 192.03 C 92.49 191.11 94.32 191.22 96.06 191.07 C 102.19 189.40 108.78 189.39 115.14 189.15 C 120.62 187.61 126.40 188.42 132.01 188.24 C 133.97 188.49 136.30 187.82 137.97 189.17 C 143.10 188.84 147.98 190.73 153.12 190.63 C 156.93 185.43 159.24 179.32 163.22 174.25 C 164.01 172.77 165.06 171.44 166.26 170.26 C 166.05 168.30 167.95 167.35 169.17 166.24 C 179.04 154.01 188.02 141.13 197.90 128.91 C 204.28 119.46 212.45 111.40 219.30 102.31 C 221.58 99.65 224.10 97.21 226.22 94.41 C 228.38 92.14 230.15 89.53 231.21 86.56 C 226.90 85.93 222.50 84.59 218.17 85.88 C 212.09 86.70 206.20 88.97 199.99 88.62 C 195.88 88.75 191.66 88.65 187.93 86.69 L 187.09 86.36 L 186.97 85.87 C 186.76 84.98 186.35 83.21 186.15 82.33 C 187.02 82.38 188.77 82.48 189.64 82.54 C 189.55 81.91 189.38 80.66 189.29 80.03 C 198.22 81.24 207.18 79.02 215.15 75.06 C 218.13 74.06 221.20 73.33 224.13 72.19 C 226.73 70.97 229.45 70.01 232.20 69.18 C 233.81 68.47 235.42 67.75 237.02 67.03 C 241.44 65.92 245.46 63.28 250.08 63.10 C 251.37 61.46 253.29 60.59 255.30 60.15 C 258.46 58.57 260.33 55.05 264.04 54.48 C 265.11 55.99 266.81 56.64 268.57 56.94 C 268.60 58.38 268.65 59.81 268.71 61.25 C 268.13 61.35 266.95 61.55 266.37 61.65 C 267.41 64.52 268.45 67.87 266.74 70.71 C 263.93 75.79 259.76 79.95 256.33 84.60 C 255.17 84.54 254.01 84.48 252.85 84.42 C 249.85 86.78 248.55 90.53 245.72 93.03 C 245.61 93.57 245.41 94.64 245.30 95.18 C 244.17 96.47 243.30 97.95 242.81 99.60 C 244.42 99.60 246.04 99.59 247.66 99.58 C 247.53 100.15 247.41 100.73 247.28 101.30 C 245.73 100.66 244.13 100.12 242.55 99.56 C 241.30 99.54 240.06 99.52 238.82 99.50 C 237.98 101.11 237.13 102.72 236.28 104.33 C 235.60 104.40 234.24 104.53 233.57 104.60 C 233.48 105.81 233.39 107.03 233.31 108.25 C 232.71 108.30 231.52 108.40 230.92 108.46 C 226.67 113.02 220.99 116.51 218.08 122.28 C 215.01 125.57 212.92 129.62 209.77 132.85 C 205.17 137.71 202.23 143.89 197.45 148.59 C 194.17 151.77 191.84 155.79 188.42 158.83 C 188.47 160.49 188.54 162.16 188.63 163.83 C 187.72 164.14 186.80 164.45 185.89 164.77 C 185.03 166.21 184.24 167.76 182.94 168.87 C 178.52 172.59 174.47 176.81 169.33 179.58 C 169.39 180.49 169.45 181.40 169.52 182.31 C 178.53 174.93 189.82 171.31 199.57 165.18 C 200.93 164.22 202.52 163.69 204.04 163.05 C 215.92 157.69 228.06 152.93 240.16 148.09 C 241.42 147.51 242.66 146.82 244.04 146.56 C 247.85 145.98 251.16 143.80 254.94 143.07 C 258.10 141.28 261.52 139.75 265.26 140.14 C 263.70 141.18 262.25 142.34 260.81 143.53 L 260.02 143.85 C 256.98 144.94 254.53 147.10 251.78 148.72 C 249.06 150.36 246.10 151.56 243.43 153.27 C 233.95 159.63 223.54 164.48 214.42 171.39 C 209.37 175.44 203.31 177.93 197.39 180.40 C 192.45 184.05 187.23 187.44 181.54 189.82 C 181.44 190.34 181.23 191.38 181.13 191.90 C 182.14 192.15 183.16 192.41 184.19 192.66 C 181.36 192.48 178.31 191.87 175.71 193.34 C 169.66 196.26 164.08 201.31 156.90 200.68 C 154.17 200.95 152.14 198.91 150.14 197.40 C 140.08 197.82 129.98 197.38 119.92 197.77 C 115.08 199.50 109.95 199.94 104.93 200.85 C 102.03 204.12 97.57 203.32 93.82 204.65 C 94.11 205.14 94.71 206.11 95.00 206.60 C 93.38 205.01 90.86 204.81 89.02 206.14 C 84.44 206.18 80.21 208.03 75.73 208.68 C 75.40 209.07 74.75 209.86 74.42 210.25 C 72.88 210.36 71.87 211.38 71.05 212.60 C 70.53 210.19 68.30 211.62 66.92 212.32 C 66.73 211.97 66.35 211.27 66.16 210.91 C 64.94 212.14 63.73 213.37 62.52 214.60 C 61.36 214.61 60.20 214.62 59.04 214.65 C 56.45 216.26 53.35 216.98 51.05 219.06 C 47.91 221.68 44.06 223.21 40.41 224.96 C 40.42 225.63 40.44 226.97 40.45 227.64 C 42.28 227.18 44.11 226.71 45.99 226.48 C 40.01 228.40 34.08 230.58 28.53 233.55 C 25.93 236.39 23.87 239.68 21.66 242.82 C 20.81 244.07 20.07 245.41 19.63 246.86 C 18.87 247.79 18.11 248.74 16.98 249.24 C 17.37 247.70 17.87 246.19 18.46 244.72 C 18.63 244.30 18.98 243.44 19.15 243.02 C 19.79 240.24 20.20 237.41 20.67 234.61 C 15.27 233.84 9.71 233.61 4.98 230.55 L 4.62 230.39 C 2.57 227.44 1.62 223.95 0.40 220.62 C 4.34 218.69 8.97 219.04 13.04 217.35 C 18.72 217.10 23.44 213.53 28.87 212.43 L 30.26 212.26 C 33.74 210.93 36.62 207.90 36.56 203.99 C 36.77 203.82 37.19 203.47 37.40 203.30 L 37.96 203.15 C 38.61 202.26 39.00 201.27 39.15 200.19 C 39.33 198.87 40.06 197.75 40.68 196.62 C 44.78 189.60 48.25 182.24 52.28 175.19 C 58.92 164.25 63.81 152.32 70.82 141.62 C 72.62 137.92 74.53 134.25 75.81 130.34 L 74.15 130.52 C 74.34 129.95 74.72 128.82 74.91 128.25 L 73.16 128.88 L 73.74 127.60 C 70.23 125.68 67.10 122.96 63.39 121.26 C 63.18 118.51 63.17 115.74 63.14 112.98 C 63.72 113.05 64.88 113.19 65.46 113.26 C 72.30 114.76 79.42 114.95 86.27 113.37 C 86.49 112.76 86.94 111.54 87.16 110.92 C 88.70 107.96 90.50 105.13 91.68 101.98 L 92.01 101.72 C 95.06 99.15 96.76 95.37 98.74 91.98 C 99.97 90.10 101.18 88.21 102.12 86.16 C 104.01 82.21 106.88 78.84 108.70 74.86 C 108.75 74.81 108.83 74.70 108.88 74.65 C 110.68 72.53 112.45 70.37 114.15 68.16 C 114.87 66.35 115.66 64.57 116.60 62.86 L 117.00 62.57 C 120.00 60.72 120.58 56.89 122.40 54.10 C 122.48 52.60 122.55 51.11 122.63 49.61 C 119.69 49.36 116.76 49.03 113.89 48.38 C 111.17 47.08 108.66 45.35 105.78 44.36 C 103.80 43.75 104.28 41.43 104.14 39.86 C 103.54 39.02 103.13 38.08 102.92 37.05 C 102.35 35.77 102.18 34.39 102.05 33.01 C 104.02 33.20 105.99 33.54 107.87 34.18 C 114.29 34.68 120.61 33.35 127.01 33.20 C 136.35 32.21 145.60 30.30 155.02 30.07 C 158.80 28.47 163.08 29.50 167.07 29.12 C 172.27 27.70 177.75 28.90 182.92 27.42 C 189.61 26.86 196.27 26.02 203.00 26.12 M 228.81 82.65 C 227.60 83.26 226.25 83.83 225.82 85.26 C 227.73 85.52 229.65 85.69 231.58 85.84 L 231.62 84.49 C 232.35 84.55 233.82 84.65 234.55 84.70 C 234.59 83.51 234.62 82.33 234.67 81.15 C 232.73 81.72 230.85 82.53 228.81 82.65 M 57.41 192.41 C 56.47 192.79 54.92 193.82 55.49 195.03 C 57.10 196.67 59.70 192.96 57.41 192.41 Z" />
<path fill="#e6e7e7" opacity="1.00" d=" M 526.72 88.53 L 527.50 87.22 C 530.48 89.25 533.43 91.38 535.62 94.30 L 535.67 94.77 C 536.17 98.80 536.92 102.97 535.82 106.97 C 534.48 111.85 532.49 116.58 529.84 120.89 C 526.23 126.60 524.83 133.44 520.87 138.96 C 517.66 143.22 515.52 148.17 512.27 152.41 C 507.03 158.44 505.42 166.59 501.02 173.16 C 498.82 176.82 495.35 179.40 492.56 182.56 C 492.56 184.52 492.55 186.49 492.53 188.45 C 491.34 188.37 490.15 188.30 488.97 188.23 C 484.57 195.86 480.21 203.64 473.93 209.93 C 472.26 211.59 470.28 213.21 470.19 215.79 C 475.49 215.11 480.25 212.50 485.19 210.62 C 492.99 207.30 500.99 204.42 509.13 202.06 C 518.20 199.33 527.48 197.01 537.00 196.78 C 539.07 196.64 538.69 199.06 538.71 200.35 C 540.22 200.80 541.69 201.38 543.12 202.10 L 542.44 202.40 C 538.90 204.14 534.82 203.48 531.06 204.36 C 528.33 205.03 525.65 204.20 523.00 203.65 C 520.92 205.42 518.70 207.10 515.78 206.58 C 513.99 207.73 512.27 208.96 510.61 210.29 C 507.23 210.34 503.89 210.86 501.05 212.80 C 496.58 214.41 491.51 215.37 488.41 219.36 C 485.37 219.16 482.52 220.04 480.40 222.29 C 479.30 222.43 478.20 222.56 477.12 222.70 C 474.09 227.14 468.75 229.28 463.81 230.83 C 463.46 231.30 462.77 232.24 462.42 232.72 C 460.20 232.48 457.99 232.16 455.81 231.71 C 453.85 231.49 453.18 229.30 452.14 227.96 C 454.39 226.31 456.63 224.61 459.13 223.36 C 461.81 222.33 463.17 219.60 465.58 218.15 C 465.62 215.45 465.60 212.74 465.94 210.06 C 466.01 207.87 466.85 205.86 468.09 204.08 C 473.60 193.69 479.12 183.29 485.16 173.18 C 486.49 171.06 487.70 168.84 488.55 166.48 C 489.54 164.51 490.58 162.57 491.66 160.65 C 491.69 160.61 491.73 160.52 491.76 160.47 C 499.10 146.33 506.46 132.21 514.40 118.39 C 515.31 116.90 516.03 115.30 516.58 113.64 L 516.91 113.74 L 517.05 113.38 C 518.39 109.87 520.52 106.69 521.59 103.06 C 523.35 98.31 524.38 93.29 526.61 88.73 C 526.64 88.68 526.70 88.58 526.72 88.53 Z" />
<path fill="#e6e7e7" opacity="1.00" d=" M 250.43 89.58 C 254.58 89.65 258.74 89.74 262.89 89.64 L 263.28 89.64 C 261.29 90.42 259.67 92.28 257.31 91.56 C 254.99 91.44 252.66 91.42 250.34 91.45 C 250.36 90.98 250.40 90.04 250.43 89.58 Z" />
<path fill="#e6e7e7" opacity="1.00" d=" M 479.86 98.44 C 483.28 97.60 486.19 100.30 488.24 102.69 C 489.06 104.39 489.63 106.21 490.48 107.91 C 490.60 113.24 491.36 118.95 488.86 123.89 C 487.34 128.12 484.10 131.31 481.47 134.84 C 481.47 135.51 481.48 136.85 481.48 137.52 C 478.52 140.32 475.56 143.21 473.72 146.91 C 473.78 151.43 471.14 155.27 469.00 159.03 C 466.98 162.55 464.40 165.68 461.71 168.70 C 461.37 173.48 458.80 177.78 456.62 181.95 C 456.57 183.36 456.55 184.77 456.54 186.18 C 455.22 186.62 453.91 187.07 452.60 187.54 C 452.68 190.26 450.95 193.17 452.51 195.70 C 451.55 195.61 450.59 195.51 449.64 195.42 C 449.52 195.99 449.29 197.14 449.18 197.71 C 449.66 199.06 450.16 200.41 450.66 201.76 C 449.60 201.17 448.54 200.59 447.50 200.01 C 447.42 201.47 447.36 202.94 447.31 204.42 C 446.76 204.42 445.65 204.42 445.09 204.42 C 444.88 206.14 445.43 207.49 446.73 208.47 C 446.25 209.43 445.79 210.40 445.34 211.37 C 443.93 211.41 442.54 211.45 441.14 211.49 C 441.48 212.95 441.85 214.42 442.22 215.88 C 442.01 216.64 441.81 217.41 441.62 218.18 C 441.99 216.29 441.43 214.91 439.94 214.04 C 439.43 215.38 438.94 216.73 438.42 218.07 C 436.94 218.58 435.62 219.41 434.43 220.40 C 432.45 220.58 430.48 220.73 428.52 220.90 C 425.71 219.03 427.20 215.63 427.75 212.98 C 431.23 201.67 436.12 190.85 441.05 180.12 C 442.05 175.89 444.37 172.17 446.18 168.27 C 446.92 166.44 447.67 164.60 448.76 162.94 L 448.85 162.79 L 448.91 162.63 C 450.86 157.27 453.84 152.39 456.30 147.28 C 462.28 135.91 467.35 124.06 474.11 113.12 C 475.01 110.76 476.15 108.51 477.24 106.23 C 478.02 103.60 479.11 101.08 479.86 98.44 M 444.43 207.91 C 444.13 208.22 443.54 208.85 443.24 209.17 C 443.50 209.44 444.02 209.98 444.27 210.25 C 445.27 209.48 445.32 208.70 444.43 207.91 Z" />
</g>
<g id="#434b4eff">
<path fill="#434b4e" opacity="1.00" d=" M 493.51 4.93 C 495.72 6.93 497.99 8.91 500.67 10.28 C 501.27 13.80 502.25 17.37 501.87 20.96 C 501.23 24.98 497.82 27.59 496.08 31.07 C 493.77 35.66 491.37 40.21 488.60 44.54 C 482.33 53.86 477.46 64.02 471.66 73.62 C 468.95 77.48 467.43 81.97 465.13 86.05 C 463.28 90.03 459.99 93.05 457.90 96.89 C 456.06 100.26 452.15 102.01 450.83 105.72 C 450.06 107.59 449.33 109.50 447.98 111.04 C 445.04 114.34 445.44 119.28 442.49 122.57 C 441.62 125.95 439.91 129.01 437.48 131.51 C 434.48 134.75 433.58 139.16 432.02 143.14 C 430.06 146.48 428.66 150.40 425.39 152.73 C 424.69 154.76 424.13 156.84 423.76 158.97 C 420.87 163.09 418.13 167.31 415.62 171.68 C 414.12 174.75 410.15 175.78 409.22 179.21 C 407.63 184.38 404.09 188.63 400.95 192.92 C 397.33 195.83 395.88 200.37 392.73 203.66 C 388.45 208.08 386.73 214.19 383.30 219.21 C 376.69 228.80 371.57 239.33 364.81 248.80 C 362.85 254.48 358.02 258.56 356.32 264.34 C 354.44 269.78 351.35 274.68 349.19 280.00 L 348.41 280.00 C 348.14 278.60 348.24 277.18 348.72 275.84 C 351.21 266.94 353.60 258.04 356.21 249.17 C 355.43 250.23 353.87 252.34 353.09 253.40 C 353.93 250.77 355.40 248.42 357.18 246.33 C 360.51 238.14 367.48 232.05 370.70 223.78 C 374.56 217.97 378.29 212.06 381.85 206.05 C 387.41 195.63 395.82 187.17 402.32 177.38 C 402.72 174.79 403.48 172.28 404.69 169.95 C 407.80 169.25 409.37 166.30 411.35 164.11 C 411.44 163.57 411.61 162.50 411.70 161.96 C 412.98 160.08 413.96 158.02 414.81 155.91 C 416.90 154.23 418.51 152.05 419.19 149.43 C 419.78 146.01 423.78 144.51 423.80 140.91 C 426.97 138.76 427.11 134.70 428.53 131.48 C 430.10 127.19 433.96 124.28 435.63 120.05 C 436.66 117.47 437.94 114.99 439.47 112.67 C 439.21 112.27 438.69 111.46 438.43 111.06 C 442.37 105.87 445.41 100.11 448.58 94.45 C 449.16 94.42 450.30 94.35 450.88 94.32 C 452.28 89.48 456.32 86.20 458.66 81.88 C 459.77 79.89 461.02 77.99 462.44 76.21 C 462.44 74.75 462.43 73.30 462.45 71.84 C 463.69 70.70 464.94 69.55 465.87 68.13 C 467.71 65.15 470.60 62.54 470.66 58.78 C 473.19 55.15 475.32 51.23 477.04 47.15 C 480.36 43.04 482.40 38.09 485.69 33.95 C 489.82 28.95 491.45 22.46 495.52 17.40 C 495.63 14.17 495.62 10.94 495.52 7.71 C 494.84 6.78 494.17 5.86 493.51 4.93 Z" />
<path fill="#434b4e" opacity="1.00" d=" M 237.59 29.31 C 239.01 29.66 240.45 29.92 241.90 30.13 C 242.41 31.58 243.44 33.08 242.86 34.68 C 241.68 38.96 236.96 40.37 233.86 42.98 C 230.23 43.06 226.60 42.95 222.97 43.04 C 218.46 43.18 214.27 45.02 209.96 46.12 C 206.28 46.99 202.35 45.40 198.80 46.93 C 194.09 48.68 189.00 48.88 184.04 49.06 C 183.68 50.42 183.33 51.77 182.99 53.13 C 179.15 53.01 175.36 51.39 171.51 52.29 C 166.75 53.36 162.00 54.58 157.49 56.46 C 156.11 57.11 154.55 56.99 153.07 57.14 C 151.49 58.46 149.00 59.12 148.46 61.33 C 146.79 66.75 145.69 72.59 142.05 77.12 C 139.78 80.05 138.40 83.49 136.82 86.81 C 135.00 88.83 133.31 90.98 132.73 93.72 C 130.33 98.58 127.14 103.08 124.94 108.05 C 128.19 107.96 131.40 107.20 134.67 107.46 C 134.26 107.63 133.46 107.96 133.06 108.13 C 126.98 108.93 120.92 109.83 114.84 110.67 C 117.62 101.57 125.22 94.87 127.73 85.68 C 131.88 80.01 134.90 73.64 138.21 67.47 C 140.68 62.81 142.31 57.78 143.64 52.69 C 145.02 51.98 146.41 51.28 147.80 50.58 C 150.40 50.59 153.18 50.89 155.54 49.53 C 158.85 47.78 162.82 47.76 165.90 45.51 C 167.37 45.48 168.85 45.46 170.33 45.44 C 172.56 42.31 176.00 44.97 179.00 43.90 C 184.14 42.60 190.21 45.41 194.62 41.58 C 197.84 41.49 201.15 41.39 204.06 39.83 C 210.68 38.43 217.58 38.73 224.09 36.72 C 227.77 35.37 232.17 35.71 235.04 32.62 C 235.63 32.50 236.82 32.25 237.41 32.13 C 237.47 31.19 237.53 30.25 237.59 29.31 Z" />
<path fill="#434b4e" opacity="1.00" d=" M 457.53 40.50 C 458.24 39.16 459.81 39.49 461.06 39.30 C 457.20 43.75 455.19 49.30 452.64 54.51 C 448.00 62.68 443.84 71.12 439.29 79.35 C 439.15 79.08 438.87 78.56 438.73 78.30 C 436.39 80.79 433.82 83.11 431.93 86.00 C 428.19 91.79 423.70 97.05 420.17 102.98 C 419.94 104.76 420.02 106.64 419.28 108.31 C 417.43 109.78 415.10 110.62 413.51 112.44 C 410.04 116.32 408.10 121.21 405.98 125.89 C 404.78 128.91 401.44 130.17 399.85 132.91 C 396.64 138.25 393.30 143.54 389.25 148.29 C 386.42 151.57 384.87 155.72 382.10 159.04 C 379.50 162.13 376.79 165.14 374.45 168.43 C 368.94 176.39 361.00 182.39 352.43 186.73 C 350.55 184.74 348.98 182.50 347.86 180.00 C 354.98 179.53 359.37 173.58 364.13 169.10 C 366.17 167.01 367.08 164.14 368.79 161.81 C 371.28 158.38 374.55 155.61 377.18 152.28 C 379.35 149.68 380.87 146.61 382.94 143.93 C 389.43 135.93 395.00 127.23 400.49 118.54 C 404.67 112.54 408.25 106.06 413.57 100.93 C 413.56 100.32 413.53 99.10 413.51 98.49 C 415.34 96.98 416.99 95.24 417.99 93.07 C 419.81 90.21 421.60 87.34 423.44 84.50 C 426.51 79.68 430.61 75.65 433.88 70.97 C 436.08 68.12 437.69 64.84 440.06 62.11 C 446.71 55.62 451.95 47.88 457.53 40.50 Z" />
<path fill="#434b4e" opacity="1.00" d=" M 386.49 45.16 C 387.36 45.11 389.10 45.00 389.97 44.94 C 391.11 46.77 392.24 48.60 393.32 50.47 C 392.61 50.56 391.20 50.74 390.49 50.84 C 390.47 50.02 390.42 48.40 390.40 47.59 C 389.09 46.78 387.78 45.97 386.49 45.16 Z" />
<path fill="#434b4e" opacity="1.00" d=" M 113.89 48.38 C 116.76 49.03 119.69 49.36 122.63 49.61 C 122.55 51.11 122.48 52.60 122.40 54.10 C 120.58 56.89 120.00 60.72 117.00 62.57 C 117.33 60.00 118.78 57.71 118.95 55.12 C 117.36 52.68 113.13 52.00 113.89 48.38 Z" />
<path fill="#434b4e" opacity="1.00" d=" M 393.69 51.14 C 394.57 51.77 395.45 52.42 396.32 53.07 C 396.53 56.21 397.32 59.27 398.69 62.10 C 397.67 65.59 398.75 69.69 396.23 72.64 C 394.75 77.91 393.33 83.22 391.15 88.26 C 389.61 91.89 386.86 94.87 385.55 98.62 C 383.71 103.48 382.04 108.40 380.44 113.34 C 378.94 119.55 375.20 125.76 377.90 132.25 C 378.41 131.66 379.43 130.48 379.93 129.89 C 374.93 139.37 368.07 147.68 362.61 156.87 C 360.99 150.30 364.84 144.48 365.98 138.24 C 368.05 130.45 370.64 122.82 372.55 114.99 C 375.12 105.87 377.62 96.62 382.23 88.26 C 383.58 86.11 386.44 84.84 386.52 82.03 C 387.03 77.70 389.49 73.97 390.59 69.82 C 391.63 65.82 392.54 61.77 392.69 57.63 C 393.25 57.48 394.37 57.17 394.93 57.02 C 393.65 55.94 391.82 55.18 391.78 53.17 C 392.56 53.21 394.14 53.31 394.92 53.36 C 394.51 52.62 394.10 51.88 393.69 51.14 Z" />
<path fill="#434b4e" opacity="1.00" d=" M 268.57 56.94 C 270.22 57.68 269.81 59.84 270.90 61.04 C 271.87 61.87 272.98 62.48 274.06 63.16 C 274.08 66.17 273.06 69.03 272.55 71.96 C 272.10 73.94 271.81 76.16 270.11 77.50 C 270.05 78.88 270.02 80.27 269.97 81.65 C 267.27 83.95 265.33 87.05 262.89 89.64 C 258.74 89.74 254.58 89.65 250.43 89.58 C 250.40 90.04 250.36 90.98 250.34 91.45 C 252.66 91.42 254.99 91.44 257.31 91.56 C 253.21 98.75 247.11 104.44 241.02 109.93 C 235.28 116.21 228.01 121.33 223.99 128.99 C 220.27 132.02 218.00 136.28 214.69 139.70 C 211.12 143.52 208.87 148.41 205.01 151.98 C 200.86 156.25 197.66 161.31 193.88 165.90 C 195.76 165.51 197.65 165.27 199.57 165.18 C 189.82 171.31 178.53 174.93 169.52 182.31 C 169.45 181.40 169.39 180.49 169.33 179.58 C 174.47 176.81 178.52 172.59 182.94 168.87 C 184.24 167.76 185.03 166.21 185.89 164.77 C 186.80 164.45 187.72 164.14 188.63 163.83 C 188.54 162.16 188.47 160.49 188.42 158.83 C 191.84 155.79 194.17 151.77 197.45 148.59 C 202.23 143.89 205.17 137.71 209.77 132.85 C 212.92 129.62 215.01 125.57 218.08 122.28 C 220.99 116.51 226.67 113.02 230.92 108.46 C 231.52 108.40 232.71 108.30 233.31 108.25 C 233.39 107.03 233.48 105.81 233.57 104.60 C 234.24 104.53 235.60 104.40 236.28 104.33 C 237.13 102.72 237.98 101.11 238.82 99.50 C 240.06 99.52 241.30 99.54 242.55 99.56 C 244.13 100.12 245.73 100.66 247.28 101.30 C 247.41 100.73 247.53 100.15 247.66 99.58 C 246.04 99.59 244.42 99.60 242.81 99.60 C 243.30 97.95 244.17 96.47 245.30 95.18 C 245.41 94.64 245.61 93.57 245.72 93.03 C 248.55 90.53 249.85 86.78 252.85 84.42 C 254.01 84.48 255.17 84.54 256.33 84.60 C 259.76 79.95 263.93 75.79 266.74 70.71 C 268.45 67.87 267.41 64.52 266.37 61.65 C 266.95 61.55 268.13 61.35 268.71 61.25 C 268.65 59.81 268.60 58.38 268.57 56.94 Z" />
<path fill="#434b4e" opacity="1.00" d=" M 108.70 74.86 C 108.75 74.81 108.83 74.70 108.88 74.65 C 108.83 74.70 108.75 74.81 108.70 74.86 Z" />
<path fill="#434b4e" opacity="1.00" d=" M 368.94 78.56 C 369.92 78.49 370.90 78.43 371.89 78.37 C 370.72 80.50 369.67 82.72 369.13 85.10 C 367.26 92.76 364.01 99.98 361.85 107.55 C 360.79 111.07 359.81 114.61 358.57 118.08 C 355.26 122.34 351.73 126.45 348.80 131.00 C 344.76 138.26 338.35 143.79 333.66 150.59 C 331.78 154.57 329.87 158.61 327.10 162.07 C 321.72 168.31 315.64 173.94 310.74 180.59 C 304.34 189.75 295.91 197.18 288.31 205.30 C 284.16 210.01 279.43 214.63 273.34 216.64 C 271.56 217.24 270.28 218.66 268.91 219.86 C 266.80 220.02 264.70 220.21 262.61 220.51 C 261.09 218.54 259.61 216.51 257.80 214.80 C 259.10 214.70 260.42 214.60 261.73 214.49 C 265.91 211.17 271.40 210.03 275.34 206.36 C 281.54 201.56 285.98 194.91 292.46 190.46 C 295.77 186.52 299.34 182.75 302.44 178.63 C 307.22 169.93 316.19 164.57 321.08 155.95 C 324.09 154.82 324.78 151.68 326.35 149.24 C 326.44 148.69 326.63 147.57 326.72 147.01 C 329.86 143.01 332.66 138.74 336.02 134.91 C 339.92 130.38 342.79 125.11 346.43 120.38 C 349.61 116.53 349.89 111.19 353.08 107.33 C 353.39 105.18 353.80 103.00 355.03 101.16 C 357.67 96.81 360.04 92.29 362.77 87.98 C 364.74 84.78 367.47 82.06 368.94 78.56 Z" />
<path fill="#434b4e" opacity="1.00" d=" M 184.37 79.95 C 186.00 79.97 187.64 79.98 189.29 80.03 C 189.38 80.66 189.55 81.91 189.64 82.54 C 188.77 82.48 187.02 82.38 186.15 82.33 C 186.35 83.21 186.76 84.98 186.97 85.87 C 184.78 84.67 184.81 82.10 184.37 79.95 Z" />
<path fill="#434b4e" opacity="1.00" d=" M 228.81 82.65 C 230.85 82.53 232.73 81.72 234.67 81.15 C 234.62 82.33 234.59 83.51 234.55 84.70 C 233.82 84.65 232.35 84.55 231.62 84.49 L 231.58 85.84 C 229.65 85.69 227.73 85.52 225.82 85.26 C 226.25 83.83 227.60 83.26 228.81 82.65 Z" />
<path fill="#434b4e" opacity="1.00" d=" M 218.17 85.88 C 222.50 84.59 226.90 85.93 231.21 86.56 C 230.15 89.53 228.38 92.14 226.22 94.41 C 226.30 93.53 226.45 91.78 226.53 90.90 C 220.74 92.50 214.77 93.25 208.97 94.80 C 203.03 95.07 197.04 93.76 191.61 91.39 C 190.11 90.06 189.03 88.34 187.93 86.69 C 191.66 88.65 195.88 88.75 199.99 88.62 C 206.20 88.97 212.09 86.70 218.17 85.88 Z" />
<path fill="#434b4e" opacity="1.00" d=" M 526.61 88.73 C 526.64 88.68 526.70 88.58 526.72 88.53 C 526.70 88.58 526.64 88.68 526.61 88.73 Z" />
<path fill="#434b4e" opacity="1.00" d=" M 92.01 101.72 C 92.46 97.60 95.33 94.12 98.74 91.98 C 96.76 95.37 95.06 99.15 92.01 101.72 Z" />
<path fill="#434b4e" opacity="1.00" d=" M 535.67 94.77 C 538.01 96.27 539.95 98.39 541.22 100.85 C 542.57 103.39 541.69 106.37 541.66 109.09 C 541.72 114.30 538.69 118.74 537.42 123.66 C 534.08 129.36 531.22 135.32 528.40 141.29 C 524.77 150.45 517.72 157.59 513.13 166.21 C 510.64 170.69 508.82 175.53 505.56 179.54 C 499.69 190.49 490.32 199.27 485.19 210.62 C 480.25 212.50 475.49 215.11 470.19 215.79 C 470.28 213.21 472.26 211.59 473.93 209.93 C 480.21 203.64 484.57 195.86 488.97 188.23 C 490.15 188.30 491.34 188.37 492.53 188.45 C 492.55 186.49 492.56 184.52 492.56 182.56 C 495.35 179.40 498.82 176.82 501.02 173.16 C 505.42 166.59 507.03 158.44 512.27 152.41 C 515.52 148.17 517.66 143.22 520.87 138.96 C 524.83 133.44 526.23 126.60 529.84 120.89 C 532.49 116.58 534.48 111.85 535.82 106.97 C 536.92 102.97 536.17 98.80 535.67 94.77 Z" />
<path fill="#434b4e" opacity="1.00" d=" M 395.66 105.59 L 395.82 105.39 C 395.75 105.50 395.60 105.72 395.53 105.83 L 395.66 105.59 Z" />
<path fill="#434b4e" opacity="1.00" d=" M 172.01 105.58 C 172.55 105.59 173.62 105.61 174.16 105.62 C 173.78 106.22 173.01 107.41 172.62 108.00 C 175.87 108.00 179.12 107.96 182.37 108.06 C 179.10 112.84 172.53 114.98 170.91 121.00 C 165.82 120.40 160.97 122.13 155.92 122.13 C 151.03 122.23 146.72 125.02 141.86 125.17 C 139.78 125.31 138.15 127.07 136.00 126.94 C 132.55 126.68 129.85 129.51 126.37 129.09 C 125.57 130.01 123.74 130.45 123.85 131.91 C 124.38 132.13 125.44 132.58 125.96 132.80 C 124.25 133.80 122.55 134.82 120.85 135.87 C 117.20 135.50 113.97 138.35 110.37 137.33 C 107.17 137.71 103.79 138.02 101.88 141.00 C 100.21 141.00 98.54 140.98 96.88 140.92 C 95.81 141.98 95.15 143.31 94.73 144.75 C 93.99 147.34 91.86 149.14 90.56 151.43 C 89.05 154.55 85.56 156.45 82.45 157.46 C 83.01 155.47 84.13 153.71 85.19 151.96 C 83.96 152.57 82.73 153.18 81.51 153.79 C 81.49 152.05 81.48 150.32 81.47 148.59 C 82.18 148.50 83.61 148.31 84.32 148.22 C 84.43 146.96 84.53 145.70 84.64 144.45 C 85.35 144.47 86.76 144.50 87.47 144.52 C 87.53 143.37 87.60 142.21 87.67 141.06 C 89.37 139.17 89.79 136.72 89.74 134.25 C 92.10 134.69 94.44 135.24 96.76 135.84 C 97.03 134.77 97.29 133.69 97.56 132.62 C 100.18 131.92 102.87 131.49 105.58 131.35 C 105.94 131.81 106.65 132.72 107.01 133.18 C 107.58 132.32 108.15 131.46 108.72 130.60 C 114.25 131.44 119.17 128.30 124.58 128.01 C 121.62 127.76 118.70 127.17 115.84 126.35 C 114.83 127.24 113.81 128.13 112.78 129.02 C 111.53 127.33 110.39 125.51 110.06 123.39 C 113.78 124.65 117.97 125.33 121.65 123.56 C 125.05 121.97 128.74 121.27 132.49 121.52 C 132.85 121.07 133.57 120.15 133.93 119.69 C 138.20 119.89 142.17 118.29 146.16 117.04 C 149.65 115.85 153.80 117.37 156.80 114.74 C 159.38 114.53 162.22 114.90 164.51 113.43 C 167.59 111.43 169.58 108.25 172.01 105.58 Z" />
<path fill="#434b4e" opacity="1.00" d=" M 490.48 107.91 C 497.55 110.54 498.85 120.23 495.12 126.05 C 490.71 132.89 488.36 140.87 483.36 147.36 C 479.90 151.79 478.42 157.29 476.22 162.36 C 473.89 166.55 470.93 170.36 468.66 174.59 C 466.44 179.53 464.50 184.59 462.62 189.67 C 461.50 192.66 459.08 194.85 457.42 197.51 C 456.64 199.80 456.91 202.52 455.25 204.47 C 450.04 210.38 448.37 218.91 441.96 223.88 C 439.65 225.16 436.48 226.88 434.05 224.98 C 432.08 223.80 430.26 222.38 428.52 220.90 C 430.48 220.73 432.45 220.58 434.43 220.40 C 435.62 219.41 436.94 218.58 438.42 218.07 C 438.94 216.73 439.43 215.38 439.94 214.04 C 441.43 214.91 441.99 216.29 441.62 218.18 C 441.81 217.41 442.01 216.64 442.22 215.88 C 441.85 214.42 441.48 212.95 441.14 211.49 C 442.54 211.45 443.93 211.41 445.34 211.37 C 445.79 210.40 446.25 209.43 446.73 208.47 C 445.43 207.49 444.88 206.14 445.09 204.42 C 445.65 204.42 446.76 204.42 447.31 204.42 C 447.36 202.94 447.42 201.47 447.50 200.01 C 448.54 200.59 449.60 201.17 450.66 201.76 C 450.16 200.41 449.66 199.06 449.18 197.71 C 449.29 197.14 449.52 195.99 449.64 195.42 C 450.59 195.51 451.55 195.61 452.51 195.70 C 450.95 193.17 452.68 190.26 452.60 187.54 C 453.91 187.07 455.22 186.62 456.54 186.18 C 456.55 184.77 456.57 183.36 456.62 181.95 C 458.80 177.78 461.37 173.48 461.71 168.70 C 464.40 165.68 466.98 162.55 469.00 159.03 C 471.14 155.27 473.78 151.43 473.72 146.91 C 475.56 143.21 478.52 140.32 481.48 137.52 C 481.48 136.85 481.47 135.51 481.47 134.84 C 484.10 131.31 487.34 128.12 488.86 123.89 C 491.36 118.95 490.60 113.24 490.48 107.91 Z" />
<path fill="#434b4e" opacity="1.00" d=" M 85.04 112.92 C 85.70 112.21 86.41 111.55 87.16 110.92 C 86.94 111.54 86.49 112.76 86.27 113.37 C 79.42 114.95 72.30 114.76 65.46 113.26 C 71.97 112.65 78.51 113.22 85.04 112.92 Z" />
<path fill="#434b4e" opacity="1.00" d=" M 516.58 113.64 C 516.70 113.58 516.93 113.45 517.05 113.38 L 516.91 113.74 L 516.58 113.64 Z" />
<path fill="#434b4e" opacity="1.00" d=" M 251.78 148.72 C 254.53 147.10 256.98 144.94 260.02 143.85 C 258.93 145.25 257.74 146.56 256.54 147.85 C 259.70 148.08 263.16 147.75 265.67 145.60 C 266.46 145.98 268.03 146.74 268.82 147.12 C 260.26 152.47 251.88 158.14 242.95 162.87 C 232.28 168.58 222.62 175.90 212.37 182.29 C 208.11 184.59 206.02 189.29 201.99 191.83 C 197.59 193.44 192.57 192.98 188.41 195.37 C 183.04 198.45 177.30 200.84 171.96 204.00 C 169.10 205.81 165.70 206.46 162.38 206.71 C 159.06 206.10 156.27 203.79 152.85 203.50 C 148.57 202.62 144.27 203.78 139.98 203.81 C 134.61 204.07 129.23 203.74 123.88 204.12 C 118.77 205.81 113.28 206.13 108.34 208.38 C 102.89 210.79 97.08 212.22 91.15 212.75 C 83.33 214.59 75.48 216.75 68.21 220.23 C 60.19 221.73 54.12 227.89 46.51 230.52 C 46.29 230.87 45.83 231.55 45.61 231.90 C 47.13 232.14 48.65 232.40 50.17 232.69 C 45.58 235.32 39.94 235.64 35.47 238.55 C 31.31 242.48 28.36 247.48 24.89 252.00 C 23.03 248.98 24.75 245.75 25.02 242.62 C 24.18 242.67 22.50 242.77 21.66 242.82 C 23.87 239.68 25.93 236.39 28.53 233.55 C 34.08 230.58 40.01 228.40 45.99 226.48 C 44.11 226.71 42.28 227.18 40.45 227.64 C 40.44 226.97 40.42 225.63 40.41 224.96 C 44.06 223.21 47.91 221.68 51.05 219.06 C 53.35 216.98 56.45 216.26 59.04 214.65 C 60.20 214.62 61.36 214.61 62.52 214.60 C 63.73 213.37 64.94 212.14 66.16 210.91 C 66.35 211.27 66.73 211.97 66.92 212.32 C 68.30 211.62 70.53 210.19 71.05 212.60 C 71.87 211.38 72.88 210.36 74.42 210.25 C 74.75 209.86 75.40 209.07 75.73 208.68 C 80.21 208.03 84.44 206.18 89.02 206.14 C 90.86 204.81 93.38 205.01 95.00 206.60 C 94.71 206.11 94.11 205.14 93.82 204.65 C 97.57 203.32 102.03 204.12 104.93 200.85 C 109.95 199.94 115.08 199.50 119.92 197.77 C 129.98 197.38 140.08 197.82 150.14 197.40 C 152.14 198.91 154.17 200.95 156.90 200.68 C 164.08 201.31 169.66 196.26 175.71 193.34 C 178.31 191.87 181.36 192.48 184.19 192.66 C 183.16 192.41 182.14 192.15 181.13 191.90 C 181.23 191.38 181.44 190.34 181.54 189.82 C 187.23 187.44 192.45 184.05 197.39 180.40 C 203.31 177.93 209.37 175.44 214.42 171.39 C 223.54 164.48 233.95 159.63 243.43 153.27 C 246.10 151.56 249.06 150.36 251.78 148.72 Z" />
<path fill="#434b4e" opacity="1.00" d=" M 76.86 158.58 C 77.50 158.79 78.78 159.20 79.41 159.41 C 80.26 159.06 81.11 158.71 81.96 158.37 C 83.80 162.43 81.05 166.56 79.15 170.06 C 77.49 172.29 76.94 175.08 75.35 177.34 C 75.41 177.89 75.52 178.98 75.57 179.53 C 71.54 183.23 69.04 188.29 68.04 193.63 C 72.93 195.32 77.88 193.34 82.80 193.44 C 74.45 195.76 66.07 198.04 57.88 200.88 C 56.40 202.57 54.81 204.25 52.62 204.96 C 52.57 204.11 52.46 202.39 52.41 201.54 C 53.09 201.46 54.45 201.31 55.13 201.24 C 57.38 195.15 61.95 190.38 64.97 184.71 C 64.25 185.33 63.54 185.96 62.83 186.59 C 62.45 188.63 61.18 189.89 59.03 190.15 C 60.38 187.95 61.54 185.61 61.87 183.03 C 64.57 180.84 64.69 176.96 66.97 174.41 C 67.69 174.61 69.13 175.00 69.84 175.19 C 69.24 176.49 68.65 177.81 68.07 179.13 C 69.99 176.84 71.73 174.42 73.33 171.91 C 72.29 172.82 71.27 173.74 70.25 174.67 C 69.60 174.04 68.96 173.40 68.32 172.75 C 70.54 171.18 71.69 168.90 72.06 166.26 C 74.20 164.05 75.35 161.20 76.86 158.58 Z" />
<path fill="#434b4e" opacity="1.00" d=" M 491.66 160.65 C 491.69 160.61 491.73 160.52 491.76 160.47 C 491.73 160.52 491.69 160.61 491.66 160.65 Z" />
<path fill="#434b4e" opacity="1.00" d=" M 448.76 162.94 C 448.80 162.86 448.88 162.71 448.91 162.63 L 448.85 162.79 L 448.76 162.94 Z" />
<path fill="#434b4e" opacity="1.00" d=" M 286.02 175.03 C 286.36 174.56 287.05 173.61 287.39 173.14 L 287.56 174.01 C 287.17 174.26 286.40 174.77 286.02 175.03 Z" />
<path fill="#434b4e" opacity="1.00" d=" M 57.41 192.41 C 59.70 192.96 57.10 196.67 55.49 195.03 C 54.92 193.82 56.47 192.79 57.41 192.41 Z" />
<path fill="#434b4e" opacity="1.00" d=" M 37.40 203.30 C 36.48 202.23 37.68 199.59 39.15 200.19 C 39.00 201.27 38.61 202.26 37.96 203.15 L 37.40 203.30 Z" />
<path fill="#434b4e" opacity="1.00" d=" M 531.06 204.36 C 534.82 203.48 538.90 204.14 542.44 202.40 C 543.59 204.73 545.49 206.43 547.84 207.52 C 542.00 210.27 535.20 209.13 529.02 210.50 C 524.77 211.88 520.84 214.10 516.54 215.32 C 512.96 216.33 509.40 217.43 505.91 218.70 C 500.15 220.55 495.07 224.28 489.02 225.26 C 482.72 228.95 476.65 233.19 469.75 235.71 C 466.02 237.16 461.95 236.71 458.12 236.01 C 458.07 235.32 457.98 233.94 457.93 233.24 C 457.40 232.86 456.34 232.10 455.81 231.71 C 457.99 232.16 460.20 232.48 462.42 232.72 C 462.77 232.24 463.46 231.30 463.81 230.83 C 468.75 229.28 474.09 227.14 477.12 222.70 C 478.20 222.56 479.30 222.43 480.40 222.29 C 482.52 220.04 485.37 219.16 488.41 219.36 C 491.51 215.37 496.58 214.41 501.05 212.80 C 503.89 210.86 507.23 210.34 510.61 210.29 C 512.27 208.96 513.99 207.73 515.78 206.58 C 518.70 207.10 520.92 205.42 523.00 203.65 C 525.65 204.20 528.33 205.03 531.06 204.36 Z" />
<path fill="#434b4e" opacity="1.00" d=" M 28.87 212.43 C 31.60 209.78 33.78 206.60 36.56 203.99 C 36.62 207.90 33.74 210.93 30.26 212.26 L 28.87 212.43 Z" />
<path fill="#434b4e" opacity="1.00" d=" M 444.43 207.91 C 445.32 208.70 445.27 209.48 444.27 210.25 C 444.02 209.98 443.50 209.44 443.24 209.17 C 443.54 208.85 444.13 208.22 444.43 207.91 Z" />
<path fill="#434b4e" opacity="1.00" d=" M 4.98 230.55 C 9.71 233.61 15.27 233.84 20.67 234.61 C 20.20 237.41 19.79 240.24 19.15 243.02 C 18.98 243.44 18.63 244.30 18.46 244.72 C 18.08 242.98 17.76 241.23 17.41 239.49 C 12.26 238.87 6.68 235.80 4.98 230.55 Z" />
</g>
</svg>
