<?xml version="1.0" encoding="UTF-8" ?>
<!DOCTYPE svg PUBLIC "-//W3C//DTD SVG 1.1//EN" "http://www.w3.org/Graphics/SVG/1.1/DTD/svg11.dtd">
<svg width="548pt" height="280pt" viewBox="0 0 548 280" version="1.1" xmlns="http://www.w3.org/2000/svg">
<g id="#a6a7a7ff">
<path fill="#a6a7a7" opacity="1.00" d=" M 485.59 0.00 L 488.90 0.00 C 491.79 2.67 494.31 5.70 497.17 8.40 C 496.51 22.10 486.36 32.50 479.84 43.84 C 473.94 52.86 470.72 63.45 463.67 71.72 C 459.27 88.14 443.12 98.21 438.56 114.61 C 436.09 123.21 427.98 129.14 427.12 138.34 C 428.49 138.80 429.78 139.51 431.17 139.98 C 429.11 140.24 427.07 140.45 425.02 140.70 C 424.01 143.01 422.76 145.20 421.23 147.21 C 422.51 147.89 423.81 148.56 425.08 149.28 C 423.22 149.73 421.37 150.20 419.53 150.66 C 419.03 151.49 418.52 152.30 418.03 153.14 C 419.42 153.48 420.82 153.84 422.22 154.20 C 420.15 154.69 418.09 155.19 416.03 155.70 C 413.70 161.03 411.17 166.86 406.11 170.15 C 403.21 172.35 403.41 176.56 401.35 179.39 C 396.44 186.95 390.08 193.46 385.27 201.11 C 378.77 212.12 371.88 222.90 365.68 234.09 C 365.85 234.90 366.03 235.72 366.21 236.54 C 364.03 237.33 362.07 238.56 360.78 240.52 C 363.32 240.53 366.06 240.15 368.32 241.63 C 365.45 242.15 362.54 242.37 359.64 242.46 C 358.35 244.69 357.02 246.90 355.81 249.18 C 349.87 256.51 349.74 267.28 342.49 273.42 C 352.80 235.78 372.26 201.47 392.03 168.09 C 399.12 158.27 402.73 146.47 409.31 136.30 C 414.00 129.42 416.64 121.35 421.66 114.68 C 424.94 110.05 427.13 104.85 428.20 99.31 C 431.91 92.40 436.50 85.95 439.34 78.57 C 444.75 67.11 452.09 56.55 456.23 44.52 C 446.95 54.27 438.53 64.81 430.92 75.89 C 424.32 82.62 420.17 91.06 415.34 99.02 C 417.39 99.56 419.42 100.12 421.46 100.70 C 419.76 102.83 419.62 105.60 419.27 108.18 C 417.61 109.20 415.95 110.19 414.39 111.34 C 411.16 111.74 406.41 109.83 404.61 113.54 C 395.82 126.98 386.64 140.17 377.05 153.03 C 372.78 157.78 368.11 162.34 365.87 168.47 C 360.70 173.33 355.54 179.48 348.03 180.41 C 344.76 180.06 343.54 176.42 344.48 173.62 C 348.68 156.41 353.45 139.33 357.29 122.04 C 360.77 107.44 366.97 93.65 370.04 78.96 C 363.75 87.75 357.00 96.52 353.27 106.77 C 349.50 118.48 341.56 127.99 334.64 137.94 C 336.08 138.52 337.52 139.12 338.97 139.70 C 333.89 140.03 329.80 142.93 327.91 147.68 C 330.32 147.96 332.74 148.20 335.16 148.38 C 333.24 150.31 332.44 152.95 331.30 155.34 C 322.35 152.85 318.20 161.70 312.86 166.88 C 305.97 173.77 300.78 182.07 294.24 189.27 C 283.10 198.77 273.88 211.79 258.84 215.44 C 254.57 215.67 253.60 211.72 255.68 208.60 C 261.53 200.29 269.92 194.20 276.32 186.34 C 290.99 169.05 304.01 150.51 316.91 131.91 C 335.83 107.29 354.57 82.60 371.74 56.74 C 374.88 52.39 378.73 48.36 379.43 42.78 C 382.87 43.63 386.13 45.11 389.67 45.57 C 393.00 49.44 396.54 53.56 397.36 58.83 C 399.97 64.92 396.60 71.14 394.91 76.95 C 392.68 77.18 390.46 77.37 388.24 77.54 C 387.20 85.26 380.49 90.09 378.45 97.42 C 372.72 113.95 368.90 131.07 363.71 147.77 C 363.00 150.13 362.06 152.66 363.00 155.10 C 368.24 147.74 373.14 140.13 378.01 132.52 C 382.33 125.45 386.80 118.48 391.73 111.81 C 415.55 74.22 446.00 41.59 475.08 8.09 C 479.34 6.45 483.10 3.95 485.59 0.00 Z" />
<path fill="#a6a7a7" opacity="1.00" d=" M 127.04 32.93 C 163.46 28.32 200.08 25.63 236.71 24.00 C 236.96 26.26 237.70 28.40 238.67 30.44 C 227.18 40.26 210.57 37.31 196.95 42.05 C 187.75 45.48 177.60 42.53 168.41 45.90 C 161.22 48.05 154.24 51.11 146.73 51.96 C 143.80 52.23 143.59 55.63 142.69 57.78 C 139.00 70.00 131.05 80.22 125.74 91.69 C 122.70 98.01 118.03 103.42 115.47 109.98 C 119.39 109.61 123.29 109.01 127.16 108.29 C 142.36 105.63 157.80 104.11 173.02 102.13 C 174.37 102.71 175.72 103.31 177.06 103.94 C 176.12 104.83 175.06 105.50 173.87 105.97 C 170.62 106.81 169.96 110.64 167.30 112.31 C 161.35 116.99 153.30 115.48 146.44 117.59 C 136.65 120.47 126.49 122.08 116.92 125.67 C 119.27 126.65 121.66 127.50 124.10 128.22 C 116.71 129.38 109.66 133.34 102.05 132.29 C 99.48 131.75 97.84 134.04 96.31 135.65 C 94.43 135.54 92.56 135.41 90.69 135.27 C 90.02 142.28 83.66 146.27 81.65 152.45 C 82.81 152.43 83.97 152.41 85.12 152.40 C 84.20 154.34 83.27 156.29 82.39 158.26 L 82.06 158.99 C 74.65 157.57 74.08 166.38 70.74 170.81 C 67.18 175.17 63.73 179.81 62.15 185.31 C 62.57 185.68 63.42 186.42 63.85 186.79 C 62.06 191.50 56.71 195.87 56.87 200.65 C 63.63 198.37 70.64 196.91 77.28 194.26 C 101.96 189.04 127.65 185.52 152.66 190.65 C 157.41 184.52 160.32 177.24 165.07 171.11 C 185.62 144.87 205.42 117.92 227.18 92.64 C 229.89 89.29 230.53 84.61 234.30 82.06 C 228.91 83.16 223.93 85.73 218.43 86.37 C 208.48 87.89 197.75 91.76 188.06 87.00 C 185.66 85.44 184.56 82.86 184.56 80.05 C 194.40 80.26 204.72 80.53 213.58 75.52 C 226.23 71.49 238.48 66.12 251.06 61.98 C 255.96 60.41 259.07 55.82 263.94 54.52 C 265.68 55.68 267.55 56.65 269.45 57.53 C 269.66 58.56 269.87 59.60 270.09 60.64 C 269.58 61.06 268.57 61.90 268.06 62.32 C 268.07 66.56 267.45 70.76 266.13 74.79 C 267.74 75.08 269.35 75.39 270.95 75.74 L 271.38 76.75 L 270.09 76.67 C 266.59 76.26 261.88 75.82 260.80 80.17 C 263.08 80.34 265.36 80.47 267.65 80.60 C 267.64 80.81 267.64 81.22 267.64 81.42 C 264.24 81.89 258.03 80.22 257.55 85.15 C 259.74 85.37 261.93 85.60 264.13 85.87 C 259.18 87.24 253.07 84.73 249.25 89.17 C 253.12 89.69 257.02 89.83 260.88 90.48 C 259.52 90.39 258.30 91.04 257.09 91.54 C 254.08 91.69 251.06 91.72 248.05 91.82 C 246.43 94.07 244.83 96.35 243.32 98.67 C 244.80 99.20 246.28 99.76 247.76 100.32 C 245.03 100.61 242.28 100.65 239.55 100.50 C 234.43 107.09 227.40 111.73 221.95 117.97 C 215.52 126.82 208.08 134.88 201.94 143.94 C 197.58 150.60 189.69 155.21 188.23 163.49 C 186.30 166.89 182.53 168.96 181.13 172.73 C 186.86 172.01 191.96 168.99 196.91 166.20 C 211.82 158.98 227.40 153.15 242.72 146.82 C 250.52 145.43 257.28 140.20 265.23 139.94 C 262.91 142.09 260.51 144.21 257.68 145.67 C 243.84 153.77 229.83 161.60 216.49 170.50 C 210.55 175.21 203.51 178.11 196.95 181.78 C 199.36 182.09 201.78 182.40 204.19 182.80 C 195.76 183.02 188.04 185.93 181.42 191.22 C 181.66 191.57 182.15 192.27 182.39 192.62 C 172.53 193.07 165.34 203.08 154.97 201.24 C 152.09 199.87 149.56 197.15 146.07 197.79 C 134.72 198.55 123.21 197.50 112.03 200.03 C 106.56 200.46 101.96 203.81 96.60 204.68 C 88.29 206.64 79.42 207.20 72.03 211.84 C 60.20 213.16 50.10 220.25 40.10 226.22 C 41.79 226.81 43.61 226.71 45.38 226.67 C 37.15 230.29 27.29 232.51 23.13 241.45 C 20.73 243.99 19.91 247.75 16.91 249.73 C 17.34 247.55 17.89 245.40 18.45 243.26 C 19.23 240.62 19.67 237.90 19.89 235.17 C 15.11 234.52 10.28 233.81 5.90 231.69 C 2.50 228.92 1.11 224.08 0.63 219.86 C 11.07 218.18 21.48 215.73 30.93 210.89 C 34.79 208.18 36.36 203.56 38.79 199.72 C 48.64 181.86 58.29 163.89 67.94 145.93 C 70.80 141.54 73.37 136.90 74.96 131.90 C 73.82 126.31 67.81 124.26 63.61 121.44 C 62.34 118.85 62.99 115.77 62.96 112.98 C 70.46 112.83 78.39 113.99 85.64 112.57 C 90.55 105.41 93.29 96.85 99.49 90.51 C 104.74 79.79 112.55 70.75 118.13 60.29 C 120.58 57.44 122.19 53.92 122.23 50.11 C 119.51 49.69 116.77 49.35 114.08 48.73 C 110.58 45.87 103.72 45.79 103.69 40.15 C 103.12 37.73 101.93 35.45 101.92 32.91 C 110.24 34.60 118.68 33.78 127.04 32.93 Z" />
<path fill="#a6a7a7" opacity="1.00" d=" M 527.14 87.15 C 530.67 89.02 533.98 91.47 536.13 94.92 C 538.20 104.71 534.64 114.37 529.53 122.60 C 524.64 134.89 517.31 145.90 509.85 156.74 C 505.58 164.69 502.81 173.74 495.98 180.03 C 493.53 181.92 492.92 184.93 492.69 187.85 C 488.10 188.41 486.83 193.30 484.62 196.60 C 481.09 203.62 474.63 208.53 470.80 215.24 C 475.77 214.51 480.18 211.97 484.90 210.39 C 501.42 204.16 518.28 197.70 536.07 196.61 C 538.43 196.10 538.96 198.65 539.45 200.33 C 540.88 200.69 542.01 201.45 542.83 202.61 C 536.46 205.27 529.36 204.65 522.71 204.83 C 511.41 210.71 498.57 212.70 487.74 219.55 C 477.06 222.17 469.34 232.67 458.05 232.86 C 455.30 232.38 453.20 230.52 452.00 228.06 C 456.20 224.28 461.78 222.43 465.38 217.89 C 465.83 213.69 465.02 209.08 467.22 205.26 C 478.58 184.21 490.42 163.45 501.16 142.07 C 507.64 129.63 515.19 117.73 520.79 104.85 C 522.98 98.98 524.35 92.79 527.14 87.15 Z" />
</g>
<g id="#424b51ff">
<path fill="#424b51" opacity="1.00" d=" M 497.17 8.40 C 498.31 9.04 499.47 9.67 500.65 10.25 C 501.29 14.25 502.72 18.44 501.48 22.45 C 492.58 37.82 483.10 52.98 474.59 68.65 C 467.66 79.71 463.09 92.37 453.65 101.70 C 445.78 111.24 444.12 124.41 435.86 133.72 C 432.72 140.18 430.97 147.47 425.78 152.80 C 422.41 162.05 416.98 170.90 409.90 177.82 C 404.63 191.81 391.88 201.13 385.89 214.75 C 376.33 230.24 366.94 245.85 357.51 261.40 C 355.01 267.77 352.32 274.11 348.76 279.98 C 348.64 269.71 354.48 259.59 355.81 249.18 C 357.02 246.90 358.35 244.69 359.64 242.46 C 362.54 242.37 365.45 242.15 368.32 241.63 C 366.06 240.15 363.32 240.53 360.78 240.52 C 362.07 238.56 364.03 237.33 366.21 236.54 C 366.03 235.72 365.85 234.90 365.68 234.09 C 371.88 222.90 378.77 212.12 385.27 201.11 C 390.08 193.46 396.44 186.95 401.35 179.39 C 403.41 176.56 403.21 172.35 406.11 170.15 C 411.17 166.86 413.70 161.03 416.03 155.70 C 418.09 155.19 420.15 154.69 422.22 154.20 C 420.82 153.84 419.42 153.48 418.03 153.14 C 418.52 152.30 419.03 151.49 419.53 150.66 C 421.37 150.20 423.22 149.73 425.08 149.28 C 423.81 148.56 422.51 147.89 421.23 147.21 C 422.76 145.20 424.01 143.01 425.02 140.70 C 427.07 140.45 429.11 140.24 431.17 139.98 C 429.78 139.51 428.49 138.80 427.12 138.34 C 427.98 129.14 436.09 123.21 438.56 114.61 C 443.12 98.21 459.27 88.14 463.67 71.72 C 470.72 63.45 473.94 52.86 479.84 43.84 C 486.36 32.50 496.51 22.10 497.17 8.40 Z" />
</g>
<g id="#437d95ff">
<path fill="#437d95" opacity="1.00" d=" M 238.67 30.44 C 239.72 30.21 240.80 30.08 241.89 30.04 C 245.42 36.20 238.25 40.21 233.78 42.76 C 226.88 43.29 219.73 42.33 213.16 45.13 C 208.37 47.55 202.91 45.07 198.10 47.11 C 193.58 48.71 188.73 48.72 184.00 49.06 C 183.64 50.41 183.29 51.76 182.93 53.11 C 177.02 51.97 171.11 51.57 165.32 53.55 C 166.06 50.89 167.18 48.36 168.41 45.90 C 177.60 42.53 187.75 45.48 196.95 42.05 C 210.57 37.31 227.18 40.26 238.67 30.44 Z" />
</g>
<g id="#444a4eff">
<path fill="#444a4e" opacity="1.00" d=" M 430.92 75.89 C 438.53 64.81 446.95 54.27 456.23 44.52 C 452.09 56.55 444.75 67.11 439.34 78.57 C 431.46 84.15 427.50 93.40 421.46 100.70 C 419.42 100.12 417.39 99.56 415.34 99.02 C 420.17 91.06 424.32 82.62 430.92 75.89 Z" />
</g>
<g id="#424444ff">
<path fill="#424444" opacity="1.00" d=" M 146.73 51.96 C 154.24 51.11 161.22 48.05 168.41 45.90 C 167.18 48.36 166.06 50.89 165.32 53.55 L 165.24 53.82 C 159.93 56.54 152.63 55.78 148.74 60.64 C 146.35 72.07 139.40 81.59 133.61 91.38 C 131.54 97.23 127.58 102.17 125.00 107.79 C 125.54 107.91 126.62 108.17 127.16 108.29 C 123.29 109.01 119.39 109.61 115.47 109.98 C 118.03 103.42 122.70 98.01 125.74 91.69 C 131.05 80.22 139.00 70.00 142.69 57.78 C 143.59 55.63 143.80 52.23 146.73 51.96 Z" />
</g>
<g id="#414444ff">
<path fill="#414444" opacity="1.00" d=" M 114.08 48.73 C 116.77 49.35 119.51 49.69 122.23 50.11 C 122.19 53.92 120.58 57.44 118.13 60.29 C 118.36 58.52 118.65 56.75 119.01 54.99 C 117.27 52.99 113.30 51.96 114.08 48.73 Z" />
</g>
<g id="#46565bff">
<path fill="#46565b" opacity="1.00" d=" M 270.09 60.64 C 271.40 61.49 272.72 62.33 274.05 63.15 C 273.84 67.49 272.48 71.66 271.64 75.90 L 270.95 75.74 C 269.35 75.39 267.74 75.08 266.13 74.79 C 267.45 70.76 268.07 66.56 268.06 62.32 C 268.57 61.90 269.58 61.06 270.09 60.64 Z" />
</g>
<g id="#35788eff">
<path fill="#35788e" opacity="1.00" d=" M 260.80 80.17 C 261.88 75.82 266.59 76.26 270.09 76.67 C 270.90 82.53 265.10 87.78 260.88 90.48 C 257.02 89.83 253.12 89.69 249.25 89.17 C 253.07 84.73 259.18 87.24 264.13 85.87 C 261.93 85.60 259.74 85.37 257.55 85.15 C 258.03 80.22 264.24 81.89 267.64 81.42 C 267.64 81.22 267.64 80.81 267.65 80.60 C 265.36 80.47 263.08 80.34 260.80 80.17 Z" />
</g>
<g id="#425862ff">
<path fill="#425862" opacity="1.00" d=" M 388.24 77.54 C 390.46 77.37 392.68 77.18 394.91 76.95 C 393.39 83.42 390.92 89.68 387.16 95.18 C 382.84 104.09 380.48 113.78 377.40 123.15 C 376.38 126.23 377.20 129.49 378.01 132.52 C 373.14 140.13 368.24 147.74 363.00 155.10 C 362.06 152.66 363.00 150.13 363.71 147.77 C 368.90 131.07 372.72 113.95 378.45 97.42 C 380.49 90.09 387.20 85.26 388.24 77.54 Z" />
</g>
<g id="#434b4dff">
<path fill="#434b4d" opacity="1.00" d=" M 353.27 106.77 C 357.00 96.52 363.75 87.75 370.04 78.96 C 366.97 93.65 360.77 107.44 357.29 122.04 L 356.81 120.73 C 349.03 129.52 343.47 139.98 335.16 148.38 C 332.74 148.20 330.32 147.96 327.91 147.68 C 329.80 142.93 333.89 140.03 338.97 139.70 C 337.52 139.12 336.08 138.52 334.64 137.94 C 341.56 127.99 349.50 118.48 353.27 106.77 Z" />
</g>
<g id="#455a64ff">
<path fill="#455a64" opacity="1.00" d=" M 218.43 86.37 C 223.93 85.73 228.91 83.16 234.30 82.06 C 230.53 84.61 229.89 89.29 227.18 92.64 C 226.72 91.42 225.68 90.77 224.43 91.39 C 218.98 92.63 213.50 93.76 208.02 94.86 C 200.95 94.27 191.84 94.09 188.06 87.00 C 197.75 91.76 208.48 87.89 218.43 86.37 Z" />
</g>
<g id="#2a7b9adf">
<path fill="#2a7b9a" opacity="0.87" d=" M 257.09 91.54 C 258.30 91.04 259.52 90.39 260.88 90.48 C 261.07 92.29 258.04 92.76 257.09 91.54 Z" />
</g>
<g id="#444f50ff">
<path fill="#444f50" opacity="1.00" d=" M 243.32 98.67 C 244.83 96.35 246.43 94.07 248.05 91.82 C 251.06 91.72 254.08 91.69 257.09 91.54 C 248.93 106.36 232.61 114.52 223.95 128.97 C 217.69 135.44 212.28 142.71 206.95 149.96 C 202.01 154.83 197.98 160.49 193.94 166.10 C 194.68 166.12 196.17 166.17 196.91 166.20 C 191.96 168.99 186.86 172.01 181.13 172.73 C 182.53 168.96 186.30 166.89 188.23 163.49 C 189.69 155.21 197.58 150.60 201.94 143.94 C 208.08 134.88 215.52 126.82 221.95 117.97 C 227.40 111.73 234.43 107.09 239.55 100.50 C 242.28 100.65 245.03 100.61 247.76 100.32 C 246.28 99.76 244.80 99.20 243.32 98.67 Z" />
</g>
<g id="#434647ff">
<path fill="#434647" opacity="1.00" d=" M 536.13 94.92 C 546.34 101.79 540.82 115.16 537.13 124.21 C 531.81 132.84 528.58 142.58 523.12 151.11 C 512.70 164.57 506.71 180.77 495.87 193.95 C 491.58 198.98 488.48 204.86 484.90 210.39 C 480.18 211.97 475.77 214.51 470.80 215.24 C 474.63 208.53 481.09 203.62 484.62 196.60 C 486.83 193.30 488.10 188.41 492.69 187.85 C 492.92 184.93 493.53 181.92 495.98 180.03 C 502.81 173.74 505.58 164.69 509.85 156.74 C 517.31 145.90 524.64 134.89 529.53 122.60 C 534.64 114.37 538.20 104.71 536.13 94.92 Z" />
<path fill="#434647" opacity="1.00" d=" M 490.87 108.16 C 497.69 110.90 498.78 120.39 495.12 126.06 C 490.83 132.70 488.53 140.43 483.76 146.79 C 478.59 153.26 477.67 161.97 472.45 168.41 C 465.71 176.94 465.11 188.69 457.86 196.84 C 456.45 199.36 457.11 202.75 454.88 204.91 C 449.33 211.37 447.76 221.83 439.12 225.24 C 435.75 227.12 432.67 224.24 430.33 222.09 C 434.31 221.17 438.36 219.42 440.38 215.64 C 440.70 215.87 441.34 216.33 441.66 216.56 C 441.76 215.18 442.13 213.84 442.21 212.47 C 443.31 212.03 444.16 211.14 445.24 210.66 C 444.63 210.38 443.40 209.80 442.78 209.51 C 446.89 207.94 446.04 202.10 450.41 200.75 C 449.50 198.53 449.58 196.38 452.03 195.29 C 452.47 191.85 453.10 188.25 456.16 186.13 C 459.70 178.74 460.88 169.91 466.54 163.59 C 470.83 158.49 473.14 152.22 475.02 145.94 C 477.82 141.70 481.61 138.14 483.35 133.23 C 489.25 126.47 493.09 117.17 490.87 108.16 Z" />
<path fill="#434647" opacity="1.00" d=" M 542.83 202.61 L 542.83 202.61 C 543.68 205.05 545.96 206.35 547.80 207.98 C 540.13 210.48 531.57 208.50 524.31 212.34 C 514.54 216.45 504.02 218.58 494.60 223.60 C 482.05 226.65 472.03 240.02 458.03 235.95 C 458.04 235.18 458.05 233.63 458.05 232.86 C 469.34 232.67 477.06 222.17 487.74 219.55 C 498.57 212.70 511.41 210.71 522.71 204.83 C 529.36 204.65 536.46 205.27 542.83 202.61 Z" />
</g>
<g id="#a7a7a7ff">
<path fill="#a7a7a7" opacity="1.00" d=" M 470.28 119.31 C 475.14 112.76 476.71 104.44 480.87 97.65 C 486.15 98.84 489.28 103.29 490.87 108.16 C 493.09 117.17 489.25 126.47 483.35 133.23 C 481.61 138.14 477.82 141.70 475.02 145.94 C 473.14 152.22 470.83 158.49 466.54 163.59 C 460.88 169.91 459.70 178.74 456.16 186.13 C 453.10 188.25 452.47 191.85 452.03 195.29 C 449.58 196.38 449.50 198.53 450.41 200.75 C 446.04 202.10 446.89 207.94 442.78 209.51 C 443.40 209.80 444.63 210.38 445.24 210.66 C 444.16 211.14 443.31 212.03 442.21 212.47 C 442.13 213.84 441.76 215.18 441.66 216.56 C 441.34 216.33 440.70 215.87 440.38 215.64 C 438.36 219.42 434.31 221.17 430.33 222.09 C 428.84 221.39 427.67 220.20 426.44 219.15 C 428.18 207.24 433.92 196.43 438.43 185.40 C 447.66 162.74 459.29 141.15 470.28 119.31 Z" />
</g>
<g id="#434e56ff">
<path fill="#434e56" opacity="1.00" d=" M 167.30 112.31 C 169.96 110.64 170.62 106.81 173.87 105.97 C 173.60 106.48 173.07 107.49 172.80 108.00 C 175.99 107.99 179.19 107.96 182.38 108.08 C 178.93 112.73 172.70 115.11 170.80 121.00 C 154.72 121.34 138.71 125.29 123.85 130.88 C 124.14 131.48 124.72 132.69 125.01 133.29 C 118.48 139.23 107.96 134.85 101.88 140.87 C 99.90 141.17 97.54 140.50 95.88 141.86 C 93.46 148.75 88.95 154.87 82.39 158.26 C 83.27 156.29 84.20 154.34 85.12 152.40 C 83.97 152.41 82.81 152.43 81.65 152.45 C 83.66 146.27 90.02 142.28 90.69 135.27 C 92.56 135.41 94.43 135.54 96.31 135.65 C 97.84 134.04 99.48 131.75 102.05 132.29 C 109.66 133.34 116.71 129.38 124.10 128.22 C 121.66 127.50 119.27 126.65 116.92 125.67 C 126.49 122.08 136.65 120.47 146.44 117.59 C 153.30 115.48 161.35 116.99 167.30 112.31 Z" />
</g>
<g id="#435151ff">
<path fill="#435151" opacity="1.00" d=" M 404.61 113.54 C 406.41 109.83 411.16 111.74 414.39 111.34 C 410.93 115.19 408.54 119.84 406.58 124.60 C 405.16 128.87 400.53 130.72 398.69 134.75 C 394.46 142.60 387.98 148.90 383.76 156.75 C 374.78 167.86 366.54 180.74 352.74 186.37 C 350.38 185.40 349.32 182.51 348.03 180.41 C 355.54 179.48 360.70 173.33 365.87 168.47 C 368.11 162.34 372.78 157.78 377.05 153.03 C 386.64 140.17 395.82 126.98 404.61 113.54 Z" />
</g>
<g id="#434c52ff">
<path fill="#434c52" opacity="1.00" d=" M 216.49 170.50 C 229.83 161.60 243.84 153.77 257.68 145.67 C 257.57 146.31 257.35 147.59 257.25 148.23 C 260.61 148.95 266.30 143.97 267.89 147.61 C 248.51 160.49 227.51 170.86 208.94 184.95 C 205.81 188.17 203.10 192.73 198.05 192.81 C 184.90 193.84 175.37 205.52 162.34 206.69 C 157.33 205.10 152.41 202.27 146.92 203.29 C 137.46 204.77 127.63 202.54 118.41 205.53 C 111.76 206.43 105.86 209.79 99.42 211.45 C 80.32 214.07 61.72 221.29 45.70 231.62 C 47.08 232.07 48.46 232.52 49.84 232.98 C 44.32 235.75 37.04 235.75 33.07 241.02 C 30.14 244.50 27.69 248.36 24.85 251.92 C 23.28 249.09 24.36 245.95 25.12 243.09 C 24.62 242.68 23.63 241.86 23.13 241.45 C 27.29 232.51 37.15 230.29 45.38 226.67 C 43.61 226.71 41.79 226.81 40.10 226.22 C 50.10 220.25 60.20 213.16 72.03 211.84 C 79.42 207.20 88.29 206.64 96.60 204.68 C 101.96 203.81 106.56 200.46 112.03 200.03 C 123.21 197.50 134.72 198.55 146.07 197.79 C 149.56 197.15 152.09 199.87 154.97 201.24 C 165.34 203.08 172.53 193.07 182.39 192.62 C 182.15 192.27 181.66 191.57 181.42 191.22 C 188.04 185.93 195.76 183.02 204.19 182.80 C 201.78 182.40 199.36 182.09 196.95 181.78 C 203.51 178.11 210.55 175.21 216.49 170.50 Z" />
</g>
<g id="#434648ff">
<path fill="#434648" opacity="1.00" d=" M 312.86 166.88 C 318.20 161.70 322.35 152.85 331.30 155.34 C 326.68 164.86 317.63 171.06 311.54 179.53 C 304.56 189.72 295.09 197.77 286.87 206.89 C 280.35 213.64 271.65 219.85 262.19 220.33 C 261.10 218.69 259.98 217.06 258.84 215.44 C 273.88 211.79 283.10 198.77 294.24 189.27 C 300.78 182.07 305.97 173.77 312.86 166.88 Z" />
</g>
<g id="#474c51ff">
<path fill="#474c51" opacity="1.00" d=" M 70.74 170.81 C 74.08 166.38 74.65 157.57 82.06 158.99 C 84.03 166.55 75.87 172.25 75.14 179.62 C 71.69 183.70 68.73 188.35 68.12 193.81 C 71.14 194.42 74.22 194.38 77.28 194.26 C 70.64 196.91 63.63 198.37 56.87 200.65 C 56.71 195.87 62.06 191.50 63.85 186.79 C 63.42 186.42 62.57 185.68 62.15 185.31 C 63.73 179.81 67.18 175.17 70.74 170.81 Z" />
</g>
<g id="#454847ff">
<path fill="#454847" opacity="1.00" d=" M 5.90 231.69 C 10.28 233.81 15.11 234.52 19.89 235.17 C 19.67 237.90 19.23 240.62 18.45 243.26 C 18.09 242.11 17.74 240.96 17.38 239.82 C 12.95 238.34 7.23 236.81 5.90 231.69 Z" />
</g>
</svg>
