<?xml version="1.0" encoding="UTF-8" ?>
<!DOCTYPE svg PUBLIC "-//W3C//DTD SVG 1.1//EN" "http://www.w3.org/Graphics/SVG/1.1/DTD/svg11.dtd">
<svg width="960pt" height="541pt" viewBox="0 0 960 541" version="1.1" xmlns="http://www.w3.org/2000/svg">
<g id="#000000ff">
</g>
<g id="#ffffffff">
<path fill="#ffffff" opacity="1.00" d=" M 470.93 69.01 C 470.87 66.54 470.57 64.02 471.37 61.64 C 527.92 61.94 584.48 61.68 641.03 61.77 C 722.43 61.86 803.84 61.57 885.24 61.75 C 885.15 200.93 885.18 340.11 885.23 479.29 C 749.15 479.24 613.08 479.28 477.01 479.27 C 474.90 479.14 472.57 479.71 470.67 478.57 C 471.01 474.38 470.76 470.18 470.92 466.00 C 470.82 462.00 470.91 458.00 470.92 454.01 C 470.82 431.68 470.80 409.34 470.93 387.01 C 470.88 365.00 470.83 343.00 470.93 320.99 C 470.81 311.99 470.81 302.98 470.93 293.98 C 470.88 284.65 470.78 275.32 470.93 266.00 C 471.13 248.34 470.62 230.66 470.94 212.99 C 470.80 199.66 470.83 186.33 470.92 173.00 C 470.86 160.66 470.91 148.33 470.94 135.99 C 470.53 124.66 471.32 113.34 470.85 102.02 C 470.90 92.69 470.79 83.35 470.91 74.02 C 470.89 72.35 470.90 70.68 470.93 69.01 M 798.45 113.42 C 766.80 113.44 735.16 113.56 703.52 113.66 C 703.44 145.53 703.26 177.42 703.61 209.29 C 703.14 211.04 703.46 212.87 703.60 214.65 C 704.79 224.29 703.26 234.03 704.22 243.68 C 706.40 244.04 708.58 244.71 710.82 244.62 C 719.29 243.48 727.86 244.31 736.39 244.13 C 736.56 245.17 736.73 246.21 736.93 247.26 C 738.90 246.63 739.92 244.89 741.05 243.29 L 741.11 243.78 C 743.60 244.77 746.36 244.14 748.97 244.28 C 776.74 244.33 804.51 244.16 832.27 244.37 C 832.52 244.07 833.03 243.47 833.28 243.17 C 833.17 212.52 833.15 181.87 833.29 151.22 C 834.21 151.04 835.14 150.87 836.08 150.71 C 835.25 149.44 833.84 149.45 832.51 149.56 C 832.47 148.12 832.64 146.68 833.33 145.40 C 832.00 135.72 834.43 125.75 831.71 116.24 C 829.57 115.45 827.47 114.00 825.11 114.30 C 819.12 115.38 813.00 114.82 806.96 114.87 C 803.89 115.22 800.95 109.93 798.45 113.42 M 558.06 113.78 C 579.04 135.24 600.46 156.28 621.47 177.72 C 620.17 179.68 618.70 181.53 616.99 183.15 C 617.89 184.78 618.86 186.39 619.87 187.97 C 618.86 189.90 618.02 191.92 616.76 193.70 C 614.91 195.33 611.83 196.32 611.73 199.21 C 611.67 201.72 610.70 203.99 608.98 205.80 C 608.34 205.27 607.71 204.75 607.08 204.23 C 606.00 207.31 606.69 210.65 605.81 213.79 C 604.84 213.17 603.86 212.56 602.91 211.94 C 601.72 212.81 600.84 213.96 600.32 215.33 C 601.63 216.75 603.85 218.61 602.68 220.75 C 600.34 222.15 599.68 218.88 598.77 217.43 C 596.12 217.17 593.49 217.66 591.45 219.47 C 582.02 209.94 572.55 200.45 563.21 190.83 C 555.60 183.39 548.27 175.68 540.68 168.22 C 541.66 167.24 543.42 166.13 542.52 164.50 C 542.22 163.34 540.69 163.57 539.81 163.11 C 537.94 162.80 536.82 161.17 535.53 159.98 C 535.71 159.03 535.90 158.08 536.10 157.14 C 533.13 156.28 530.72 154.22 530.26 151.06 C 528.12 150.57 525.59 149.47 523.83 151.44 C 523.56 151.38 523.01 151.24 522.73 151.17 C 523.11 159.78 522.52 168.41 523.04 177.00 C 522.36 180.65 523.41 184.31 522.96 187.96 C 522.70 190.63 522.74 193.32 523.02 195.99 C 522.51 208.98 523.02 222.00 522.81 235.00 C 522.81 238.14 522.58 241.32 523.39 244.39 C 552.91 244.16 582.45 244.29 611.97 244.32 C 613.26 244.56 614.34 244.23 615.22 243.32 C 615.58 244.04 615.95 244.76 616.32 245.49 C 615.97 245.84 615.26 246.56 614.90 246.91 C 618.02 249.95 619.12 244.15 622.12 244.20 C 627.38 244.06 632.69 243.82 637.95 244.25 C 642.33 245.25 646.92 245.12 651.31 244.31 C 653.56 242.57 652.88 239.43 653.04 236.96 C 652.78 228.96 653.71 220.87 652.28 212.94 C 653.47 211.64 655.22 210.57 655.52 208.69 C 655.98 206.14 655.22 203.58 654.64 201.12 C 653.95 202.18 653.27 203.25 652.59 204.32 C 652.49 174.12 652.65 143.92 652.50 113.72 C 621.02 113.90 589.54 113.77 558.06 113.78 M 523.19 296.34 C 522.35 301.02 522.90 306.15 523.00 310.99 C 522.71 327.99 522.89 345.02 522.99 362.00 C 522.27 371.27 523.51 380.60 522.65 389.82 C 525.24 389.51 526.46 386.84 528.31 385.32 C 557.94 355.77 587.28 325.92 616.87 296.33 C 585.65 296.13 554.41 296.11 523.19 296.34 M 703.40 296.17 C 703.48 339.97 703.43 383.77 703.42 427.58 C 746.70 427.48 789.99 427.73 833.27 427.45 C 833.09 383.71 833.33 339.97 833.16 296.23 C 789.90 296.15 746.65 296.27 703.40 296.17 M 641.48 343.45 C 613.66 371.53 585.54 399.34 557.81 427.50 C 589.40 427.65 620.99 427.55 652.58 427.55 C 652.40 395.65 652.82 363.74 652.39 331.85 C 649.21 336.12 645.09 339.56 641.48 343.45 Z" />
<path fill="#ffffff" opacity="1.00" d=" M 78.98 272.73 C 92.81 252.28 107.05 232.11 120.88 211.66 C 152.24 211.71 183.61 211.84 214.97 211.60 C 211.61 218.19 206.48 223.79 202.80 230.23 C 184.44 230.52 166.07 230.24 147.70 230.37 C 147.09 231.49 146.48 232.61 145.91 233.76 C 163.97 233.75 182.02 233.72 200.07 233.78 C 196.49 238.98 192.96 244.21 189.34 249.38 C 171.15 249.38 152.96 249.39 134.76 249.38 C 129.32 257.08 124.21 265.21 118.46 272.58 C 105.33 272.97 92.14 272.65 78.98 272.73 Z" />
<path fill="#ffffff" opacity="1.00" d=" M 197.66 267.96 C 210.78 249.25 223.50 230.26 236.70 211.61 C 268.09 211.85 299.50 211.66 330.90 211.70 C 326.66 217.93 322.28 224.05 318.13 230.33 C 299.94 230.38 281.74 230.32 263.54 230.36 C 262.75 231.36 261.95 232.36 261.16 233.37 C 263.08 233.91 265.08 233.76 267.06 233.76 C 283.29 233.70 299.52 233.82 315.74 233.72 C 312.15 238.91 308.45 244.03 305.05 249.35 C 286.82 249.44 268.60 249.35 250.37 249.39 C 244.98 257.10 239.58 264.80 234.41 272.66 C 221.18 272.84 207.94 272.71 194.71 272.73 C 195.58 271.07 196.57 269.48 197.66 267.96 Z" />
<path fill="#ffffff" opacity="1.00" d=" M 352.04 211.71 C 383.91 211.74 415.79 211.69 447.66 211.73 C 438.88 224.22 430.33 236.88 421.59 249.41 C 403.31 249.29 385.03 249.53 366.75 249.29 L 368.04 248.58 C 374.19 245.55 380.29 242.44 386.46 239.44 C 390.50 237.93 392.04 233.54 394.73 230.53 C 389.48 230.18 384.21 230.34 378.96 230.43 C 375.39 235.93 371.49 241.20 367.87 246.66 C 361.99 255.27 355.83 263.71 350.24 272.52 C 336.87 273.01 323.47 272.65 310.08 272.71 C 323.92 252.28 338.10 232.08 352.04 211.71 Z" />
</g>
<g id="#f8f6f7ff">
<path fill="#f8f6f7" opacity="1.00" d=" M 798.45 113.42 C 800.95 109.93 803.89 115.22 806.96 114.87 C 813.00 114.82 819.12 115.38 825.11 114.30 C 827.47 114.00 829.57 115.45 831.71 116.24 C 834.43 125.75 832.00 135.72 833.33 145.40 C 832.64 146.68 832.47 148.12 832.51 149.56 C 833.84 149.45 835.25 149.44 836.08 150.71 C 835.14 150.87 834.21 151.04 833.29 151.22 L 832.23 151.46 C 804.20 179.01 776.83 207.25 749.06 235.06 C 746.42 237.84 743.51 240.36 741.05 243.29 C 739.92 244.89 738.90 246.63 736.93 247.26 C 736.73 246.21 736.56 245.17 736.39 244.13 C 727.86 244.31 719.29 243.48 710.82 244.62 C 708.58 244.71 706.40 244.04 704.22 243.68 C 703.26 234.03 704.79 224.29 703.60 214.65 C 703.46 212.87 703.14 211.04 703.61 209.29 C 734.81 176.93 766.79 145.33 798.45 113.42 Z" />
<path fill="#f8f6f7" opacity="1.00" d=" M 621.47 177.72 C 631.79 188.19 642.06 198.73 652.49 209.10 C 652.54 207.50 652.58 205.91 652.59 204.32 C 653.27 203.25 653.95 202.18 654.64 201.12 C 655.22 203.58 655.98 206.14 655.52 208.69 C 655.22 210.57 653.47 211.64 652.28 212.94 C 653.71 220.87 652.78 228.96 653.04 236.96 C 652.88 239.43 653.56 242.57 651.31 244.31 C 646.92 245.12 642.33 245.25 637.95 244.25 C 632.69 243.82 627.38 244.06 622.12 244.20 C 619.12 244.15 618.02 249.95 614.90 246.91 C 615.26 246.56 615.97 245.84 616.32 245.49 C 615.95 244.76 615.58 244.04 615.22 243.32 L 615.37 243.15 C 607.01 235.66 599.49 227.29 591.45 219.47 C 593.49 217.66 596.12 217.17 598.77 217.43 C 599.68 218.88 600.34 222.15 602.68 220.75 C 603.85 218.61 601.63 216.75 600.32 215.33 C 600.84 213.96 601.72 212.81 602.91 211.94 C 603.86 212.56 604.84 213.17 605.81 213.79 C 606.69 210.65 606.00 207.31 607.08 204.23 C 607.71 204.75 608.34 205.27 608.98 205.80 C 610.70 203.99 611.67 201.72 611.73 199.21 C 611.83 196.32 614.91 195.33 616.76 193.70 C 618.02 191.92 618.86 189.90 619.87 187.97 C 618.86 186.39 617.89 184.78 616.99 183.15 C 618.70 181.53 620.17 179.68 621.47 177.72 Z" />
</g>
<g id="#efefefff">
<path fill="#efefef" opacity="1.00" d=" M 523.83 151.44 C 525.59 149.47 528.12 150.57 530.26 151.06 C 530.72 154.22 533.13 156.28 536.10 157.14 C 535.90 158.08 535.71 159.03 535.53 159.98 C 536.82 161.17 537.94 162.80 539.81 163.11 C 540.69 163.57 542.22 163.34 542.52 164.50 C 543.42 166.13 541.66 167.24 540.68 168.22 C 535.00 162.69 529.59 156.89 523.83 151.44 Z" />
</g>
<g id="#030303ff">
</g>
<g id="#fefefeff">
<path fill="#fefefe" opacity="1.00" d=" M 81.00 324.52 C 86.09 316.82 91.47 309.33 96.66 301.70 C 107.38 301.70 118.09 301.74 128.80 301.67 C 125.51 306.33 122.18 310.96 119.05 315.72 C 116.37 315.72 113.68 315.72 111.00 315.78 C 112.16 317.84 114.29 319.52 114.76 321.87 C 113.79 323.55 112.62 325.10 111.59 326.75 C 109.10 326.86 106.62 326.86 104.13 326.82 C 102.57 324.40 100.93 322.03 99.18 319.75 C 98.12 321.38 97.01 322.98 95.88 324.57 C 90.92 324.49 85.96 324.58 81.00 324.52 M 106.94 308.57 C 105.78 310.23 104.59 311.87 103.44 313.53 C 106.99 313.11 111.30 312.13 112.92 308.54 C 110.93 308.54 108.93 308.56 106.94 308.57 Z" />
<path fill="#fefefe" opacity="1.00" d=" M 129.08 324.54 C 134.41 316.98 139.63 309.34 144.90 301.73 C 156.14 301.70 167.39 301.69 178.64 301.73 C 176.88 303.93 175.29 306.25 173.71 308.58 C 166.31 308.57 158.90 308.52 151.49 308.57 C 151.42 308.96 151.28 309.73 151.21 310.11 C 158.36 310.28 165.52 310.09 172.67 310.20 C 171.37 312.01 170.21 313.95 168.70 315.60 C 161.22 315.79 153.74 315.58 146.27 315.68 L 146.24 317.25 C 153.41 317.13 160.58 317.26 167.75 317.19 C 166.11 319.69 164.39 322.12 162.71 324.59 C 151.50 324.56 140.29 324.67 129.08 324.54 Z" />
<path fill="#fefefe" opacity="1.00" d=" M 178.95 324.56 C 184.09 316.85 189.50 309.32 194.76 301.69 C 203.55 301.78 212.34 301.62 221.13 301.77 C 218.50 305.26 216.33 309.09 213.55 312.46 C 210.12 313.07 206.56 312.54 203.08 312.76 C 203.75 311.84 204.44 310.94 205.14 310.04 C 205.21 309.73 205.35 309.11 205.42 308.79 C 203.66 308.90 201.81 308.56 200.12 309.13 C 197.97 311.86 196.19 314.88 194.17 317.72 C 196.05 317.73 197.94 317.72 199.82 317.71 C 200.47 316.64 201.12 315.57 201.77 314.50 C 205.20 314.60 208.62 314.55 212.05 314.57 C 210.20 318.11 207.51 321.11 205.46 324.53 C 196.62 324.55 187.79 324.50 178.95 324.56 Z" />
<path fill="#fefefe" opacity="1.00" d=" M 221.76 324.55 C 226.90 316.81 232.36 309.29 237.62 301.63 C 249.43 301.80 261.25 301.67 273.06 301.70 C 268.28 309.55 262.60 316.82 257.62 324.54 C 245.67 324.53 233.71 324.53 221.76 324.55 M 247.57 308.48 C 245.81 311.43 243.41 313.99 242.03 317.17 C 243.82 317.16 245.61 317.18 247.40 317.24 C 249.62 314.51 251.46 311.52 253.44 308.62 C 251.48 308.56 249.53 308.53 247.57 308.48 Z" />
<path fill="#fefefe" opacity="1.00" d=" M 275.76 324.54 C 280.89 316.80 286.15 309.13 291.57 301.58 C 302.08 301.83 312.60 301.74 323.12 301.62 C 320.50 306.62 316.75 310.92 313.75 315.69 C 311.12 315.76 308.49 315.75 305.87 315.74 C 306.95 317.78 308.39 319.59 309.64 321.52 C 308.66 323.46 307.19 325.09 305.95 326.86 C 303.53 326.85 301.12 326.84 298.71 326.75 C 296.99 324.66 296.10 321.36 293.62 320.22 C 292.57 321.61 291.64 323.10 290.68 324.55 C 285.70 324.51 280.73 324.55 275.76 324.54 M 301.74 308.49 C 300.50 310.25 299.22 311.97 298.06 313.78 C 300.67 313.22 303.17 312.28 305.68 311.40 C 306.33 310.46 306.99 309.53 307.65 308.60 C 305.68 308.57 303.70 308.55 301.74 308.49 Z" />
<path fill="#fefefe" opacity="1.00" d=" M 323.93 324.52 C 329.27 316.94 334.48 309.27 339.83 301.69 C 351.85 301.70 363.87 301.77 375.89 301.65 C 373.37 306.39 369.92 310.58 366.92 315.02 C 362.51 318.66 357.31 321.25 352.59 324.48 C 343.03 324.46 333.48 324.60 323.93 324.52 M 345.24 315.81 C 347.22 315.82 349.20 315.81 351.18 315.80 C 352.77 313.39 354.46 311.03 356.00 308.59 C 354.04 308.56 352.08 308.55 350.12 308.56 C 348.50 310.98 346.81 313.35 345.24 315.81 Z" />
<path fill="#fefefe" opacity="1.00" d=" M 388.14 308.93 C 388.80 306.19 391.29 304.18 392.61 301.68 C 401.34 301.75 410.08 301.68 418.81 301.72 C 417.29 303.99 415.73 306.24 414.22 308.52 C 410.29 308.54 406.35 308.49 402.43 308.61 C 404.39 311.39 406.38 314.16 408.30 316.98 C 406.56 319.47 404.82 321.97 403.12 324.49 C 394.38 324.57 385.64 324.54 376.90 324.51 C 378.55 322.09 380.04 319.53 381.91 317.27 C 385.84 317.05 389.78 317.35 393.71 317.09 C 391.80 314.41 389.67 311.85 388.14 308.93 Z" />
</g>
<g id="#040404ff">
</g>
<g id="#050505ff">
</g>
</svg>
