<svg width="100" height="24" viewBox="0 0 100 24" fill="none" xmlns="http://www.w3.org/2000/svg">
<path d="M41.7841 23.7588V7.47739H41.6636L35.155 23.7588H32.6239L26.1152 7.47739H25.9947V23.7588H22.9815V1.68844H26.8384L33.8292 19.2965H33.9497L40.9404 1.68844H44.9179V23.7588H41.7841ZM61.9126 23.7588H58.7788V20.9849H58.6583C57.8146 22.9146 56.1272 24 53.7166 24C50.2212 24 48.1722 21.7085 48.1722 17.9698V7.59799H51.4265V17.3668C51.4265 19.7789 52.6318 21.1055 54.8013 21.1055C57.2119 21.1055 58.5378 19.4171 58.5378 16.8844V7.59799H61.7921L61.9126 23.7588ZM70.8318 7.35678C74.5682 7.35678 76.8583 9.40704 76.9788 12.4221H73.9656C73.7245 10.8543 72.6397 9.88945 70.8318 9.88945C69.0239 9.88945 67.8186 10.7337 67.8186 12.0603C67.8186 13.0251 68.5417 13.7487 70.2292 14.1106L72.7603 14.7136C76.0146 15.4372 77.2199 16.7638 77.2199 19.0553C77.2199 21.9497 74.5682 24 70.8318 24C66.8543 24 64.4437 22.0704 64.2027 18.9347H67.457C67.698 20.6231 68.9033 21.4673 70.8318 21.4673C72.7603 21.4673 73.9656 20.6231 73.9656 19.2965C73.9656 18.2111 73.3629 17.608 71.6755 17.2462L69.1444 16.6432C66.1311 15.9196 64.6848 14.4724 64.6848 12.0603C64.6848 9.28643 67.0954 7.35678 70.8318 7.35678ZM79.6305 3.37688C79.6305 2.29146 80.4742 1.44724 81.559 1.44724C82.6437 1.44724 83.4874 2.29146 83.4874 3.37688C83.4874 4.46231 82.6437 5.30653 81.559 5.30653C80.4742 5.30653 79.6305 4.46231 79.6305 3.37688ZM79.8715 7.59799H83.1258V23.7588H79.8715V7.59799ZM96.8662 13.1457C96.5046 11.4573 95.2993 10.0101 93.1298 10.0101C90.5987 10.0101 88.9113 12.1809 88.9113 15.5578C88.9113 19.0553 90.5987 21.1055 93.1298 21.1055C95.1788 21.1055 96.3841 20.0201 96.8662 18.0905H100C99.6384 21.4673 96.9868 23.8794 93.1298 23.8794C88.5497 23.8794 85.657 20.7437 85.657 15.5578C85.657 10.4925 88.5497 7.23618 93.1298 7.23618C97.2278 7.23618 99.6384 9.88945 100 13.0251L96.8662 13.1457ZM12.9775 3.8593C12.1338 4.82412 10.808 5.66834 9.48214 5.54774C9.24108 4.1005 9.96426 2.65327 10.6874 1.80905C11.5311 0.723618 12.9775 0 14.1828 0C14.3033 1.32663 13.8212 2.77387 12.9775 3.8593ZM14.1828 5.78894C14.906 5.78894 17.0755 6.03015 18.5219 8.201C18.4013 8.32161 15.9907 9.76884 15.9907 12.7839C15.9907 16.402 19.1245 17.608 19.1245 17.608C19.1245 17.7286 18.6424 19.2965 17.5576 20.9849C16.5934 22.4322 15.5086 23.8794 13.9417 23.8794C12.3749 23.8794 11.8927 22.9146 10.0848 22.9146C8.27684 22.9146 7.67419 23.8794 6.22783 23.8794C4.66094 23.8794 3.45565 22.3116 2.49141 20.8643C0.442401 17.8492 -1.12449 12.4221 1.04505 8.80402C2.00929 6.99497 3.93776 5.78894 5.86624 5.78894C7.43313 5.78894 8.87949 6.87437 9.7232 6.87437C10.5669 6.87437 12.2543 5.66834 14.1828 5.78894Z" fill="white"/>
</svg>
