<svg width="125" height="37" viewBox="0 0 125 37" fill="none" xmlns="http://www.w3.org/2000/svg">
<path d="M18.7453 0C8.39277 0 0 8.28288 0 18.5001C0 28.7178 8.39277 37 18.7453 37C29.0989 37 37.4908 28.7178 37.4908 18.5001C37.4908 8.28354 29.0989 0.000883667 18.7451 0.000883667L18.7453 0ZM27.3418 26.6825C27.006 27.2259 26.2852 27.3982 25.7346 27.0647C21.3334 24.4114 15.7928 23.8105 9.26777 25.2818C8.639 25.4232 8.01224 25.0344 7.86898 24.4136C7.72505 23.7929 8.11744 23.1743 8.74779 23.0329C15.8884 21.4229 22.0134 22.1161 26.9545 25.0963C27.5052 25.4299 27.6798 26.139 27.3418 26.6825ZM29.6361 21.6451C29.2131 22.3238 28.3132 22.538 27.626 22.1205C22.5873 19.0639 14.9066 18.1787 8.94678 19.9641C8.17385 20.1946 7.3575 19.7646 7.12291 19.0031C6.89011 18.2403 7.32594 17.4362 8.09752 17.2042C14.9053 15.1656 23.3685 16.1531 29.1549 19.6624C29.8421 20.0799 30.0592 20.9678 29.6361 21.6451ZM29.8331 16.3996C23.7916 12.8581 13.8239 12.5325 8.05566 14.2603C7.1294 14.5375 6.14986 14.0214 5.86916 13.1073C5.58847 12.1927 6.11091 11.2266 7.03785 10.9487C13.6593 8.96485 24.6668 9.34814 31.6225 13.4234C32.4575 13.9114 32.7306 14.9734 32.2359 15.7945C31.7434 16.6168 30.6645 16.8879 29.834 16.3996H29.8331ZM50.9997 17.0783C47.763 16.3166 47.1877 15.7819 47.1877 14.6586C47.1877 13.5973 48.1994 12.8831 49.7059 12.8831C51.1654 12.8831 52.6114 13.4254 54.1291 14.5419C54.1738 14.5757 54.232 14.5892 54.288 14.5804C54.3462 14.572 54.3954 14.5413 54.429 14.4951L56.0093 12.2965C56.0742 12.2059 56.0563 12.0811 55.969 12.012C54.1626 10.582 52.1301 9.88674 49.7529 9.88674C46.2587 9.88674 43.8166 11.9565 43.8166 14.9179C43.8166 18.0936 45.923 19.2181 49.5627 20.0861C52.6584 20.7901 53.1822 21.38 53.1822 22.4342C53.1822 23.6029 52.1257 24.3297 50.4244 24.3297C48.5352 24.3297 46.9929 23.7001 45.2693 22.2288C45.2268 22.1912 45.1686 22.1757 45.1149 22.178C45.0567 22.1824 45.0052 22.2089 44.9694 22.2509L43.1966 24.3319C43.1227 24.4203 43.1316 24.5484 43.2167 24.6235C45.2223 26.3909 47.6891 27.3231 50.3528 27.3231C54.1179 27.3231 56.551 25.2929 56.551 22.1492C56.5577 19.4967 54.9483 18.0276 51.0064 17.0812L50.9997 17.0783ZM65.0705 13.928C63.4387 13.928 62.1001 14.5625 60.9943 15.8626V14.3992C60.9943 14.2837 60.9003 14.1896 60.7839 14.1896H57.8851C57.7687 14.1896 57.6747 14.2837 57.6747 14.3992V30.659C57.6747 30.7739 57.7687 30.8689 57.8851 30.8689H60.7839C60.9003 30.8689 60.9943 30.7739 60.9943 30.659V25.5271C62.1001 26.7487 63.4387 27.3474 65.0705 27.3474C68.1036 27.3474 71.1747 25.0433 71.1747 20.6384C71.1792 16.2326 68.108 13.9278 65.0727 13.9278L65.0705 13.928ZM67.8036 20.6384C67.8036 22.8805 66.4046 24.4468 64.399 24.4468C62.418 24.4468 60.9227 22.8098 60.9227 20.6384C60.9227 18.4668 62.418 16.8302 64.399 16.8302C66.371 16.83 67.8036 18.4314 67.8036 20.6384ZM79.0428 13.928C75.1367 13.928 72.0768 16.8962 72.0768 20.6863C72.0768 24.4357 75.1166 27.3717 78.9958 27.3717C82.9153 27.3717 85.9842 24.4136 85.9842 20.6384C85.9842 16.8759 82.9354 13.9284 79.0428 13.9284V13.928ZM79.0428 24.4689C76.9655 24.4689 75.3986 22.8208 75.3986 20.6373C75.3986 18.4438 76.9118 16.8521 78.9958 16.8521C81.0865 16.8521 82.6623 18.4994 82.6623 20.6852C82.6623 22.8783 81.1402 24.4689 79.0428 24.4689ZM94.3246 14.1896H91.1348V10.9717C91.1348 10.8563 91.0408 10.7622 90.9244 10.7622H88.0256C87.9092 10.7622 87.813 10.8563 87.813 10.9717V14.1896H86.4206C86.3042 14.1896 86.2102 14.2837 86.2102 14.3992V16.8574C86.2102 16.9727 86.3042 17.067 86.4206 17.067H87.813V23.4283C87.813 25.9976 89.109 27.301 91.6675 27.301C92.7062 27.301 93.568 27.089 94.3805 26.6339C94.4477 26.5985 94.488 26.5278 94.488 26.4527V24.111C94.488 24.0403 94.4499 23.9718 94.3872 23.9342C94.3246 23.8945 94.2462 23.8923 94.1813 23.9254C93.6239 24.2016 93.0845 24.3297 92.4801 24.3297C91.5511 24.3297 91.1348 23.9122 91.1348 22.9799V17.0681H94.3246C94.441 17.0681 94.535 16.974 94.535 16.8585V14.4005C94.5394 14.285 94.4454 14.1909 94.3268 14.1909L94.3246 14.1896ZM105.436 14.2022V13.8069C105.436 12.6442 105.888 12.1257 106.9 12.1257C107.504 12.1257 107.99 12.2442 108.534 12.4231C108.601 12.4439 108.671 12.4335 108.724 12.3939C108.78 12.3544 108.812 12.291 108.812 12.2238V9.81362C108.812 9.72149 108.753 9.63998 108.662 9.6128C108.089 9.44424 107.354 9.27126 106.253 9.27126C103.578 9.27126 102.161 10.7589 102.161 13.5719V14.1772H100.769C100.653 14.1772 100.556 14.2713 100.556 14.3866V16.8574C100.556 16.9727 100.653 17.067 100.769 17.067H102.161V26.8769C102.161 26.994 102.258 27.0867 102.374 27.0867H105.27C105.389 27.0867 105.483 26.994 105.483 26.8769V17.0677H108.189L112.335 26.8769C111.865 27.9064 111.402 28.1118 110.77 28.1118C110.26 28.1118 109.72 27.9616 109.172 27.6633C109.121 27.6368 109.058 27.6324 109.004 27.6479C108.948 27.6678 108.901 27.7075 108.879 27.7605L107.896 29.888C107.849 29.9896 107.889 30.1067 107.988 30.1597C109.013 30.7076 109.938 30.9418 111.081 30.9418C113.221 30.9418 114.406 29.9565 115.446 27.3099L120.474 14.4885C120.501 14.424 120.492 14.351 120.452 14.2938C120.413 14.2371 120.349 14.2028 120.279 14.2028H117.262C117.17 14.2028 117.089 14.2596 117.06 14.3433L113.969 23.055L110.585 14.3376C110.553 14.2565 110.475 14.2028 110.388 14.2028H105.436V14.2022ZM98.9939 14.1896H96.0951C95.9787 14.1896 95.8825 14.2837 95.8825 14.3992V26.8769C95.8825 26.994 95.9787 27.0867 96.0951 27.0867H98.9939C99.1103 27.0867 99.2066 26.994 99.2066 26.8769V14.4001C99.2066 14.2846 99.1126 14.1904 98.9939 14.1904V14.1896ZM97.5613 8.50777C96.413 8.50777 95.4818 9.42502 95.4818 10.5581C95.4818 11.6919 96.413 12.6102 97.5613 12.6102C98.7096 12.6102 99.6386 11.6919 99.6386 10.5581C99.6386 9.42524 98.7074 8.50777 97.5613 8.50777ZM122.95 18.2016C121.804 18.2016 120.91 17.2926 120.91 16.1886C120.91 15.0847 121.815 14.1653 122.961 14.1653C124.107 14.1653 125 15.0741 125 16.1772C125 17.2811 124.096 18.2016 122.95 18.2016ZM122.961 14.3654C121.915 14.3654 121.125 15.185 121.125 16.1886C121.125 17.1918 121.911 18.0004 122.95 18.0004C123.995 18.0004 124.785 17.1815 124.785 16.1772C124.785 15.174 123.999 14.3654 122.961 14.3654ZM123.413 16.3842L123.99 17.1812H123.502L122.983 16.45H122.538V17.1812H122.13V15.0684H123.084C123.583 15.0684 123.91 15.3196 123.91 15.7424C123.912 16.0888 123.708 16.3004 123.415 16.3842H123.413ZM123.068 15.4309H122.538V16.0992H123.068C123.332 16.0992 123.491 15.9713 123.491 15.7647C123.491 15.5473 123.332 15.4309 123.068 15.4309Z" fill="#1ED760"/>
</svg>
