<svg width="139" height="32" viewBox="0 0 139 32" fill="none" xmlns="http://www.w3.org/2000/svg">
<path d="M43.4009 4.84584C42.8901 2.93743 41.3902 1.4377 39.4818 0.92684C36.0264 2.77438e-07 22.1638 0 22.1638 0C22.1638 0 8.30141 2.77438e-07 4.84583 0.92684C2.93743 1.4377 1.4377 2.93743 0.92684 4.84584C2.77438e-07 8.30141 0 15.5154 0 15.5154C0 15.5154 2.77438e-07 22.7295 0.92684 26.1851C1.4377 28.0935 2.93743 29.5932 4.84583 30.104C8.30141 31.0309 22.1638 31.0309 22.1638 31.0309C22.1638 31.0309 36.0264 31.0309 39.4818 30.104C41.3902 29.5932 42.8901 28.0935 43.4009 26.1851C44.3278 22.7295 44.3278 15.5154 44.3278 15.5154C44.3278 15.5154 44.324 8.30141 43.4009 4.84584Z" fill="#FF0000"/>
<path d="M17.7268 22.1644L29.243 15.516L17.7268 8.86755V22.1644Z" fill="white"/>
<path d="M53.6872 20.1757L48.71 2.20081H53.0523L54.7965 10.349C55.2417 12.3559 55.5664 14.0673 55.778 15.4831H55.9057C56.0517 14.4686 56.3802 12.7682 56.8874 10.3782L58.6935 2.20081H63.0358L57.9966 20.1757V28.7982H53.6836V20.1757H53.6872Z" fill="white"/>
<path d="M64.342 28.2283C63.4663 27.6372 62.8423 26.7176 62.47 25.4697C62.1016 24.2218 61.9155 22.5652 61.9155 20.4925V17.6718C61.9155 15.5809 62.1272 13.8988 62.5504 12.6326C62.9737 11.3664 63.6342 10.4396 64.5317 9.85941C65.4295 9.27923 66.608 8.9873 68.0677 8.9873C69.5054 8.9873 70.6548 9.28287 71.5232 9.87401C72.388 10.4651 73.0229 11.392 73.4243 12.6472C73.8256 13.9061 74.0264 15.5809 74.0264 17.6718V20.4925C74.0264 22.5652 73.8294 24.2291 73.439 25.4843C73.0485 26.7432 72.4136 27.6628 71.5377 28.2429C70.662 28.8232 69.4725 29.1151 67.9728 29.1151C66.4256 29.1186 65.2178 28.8195 64.342 28.2283ZM69.2536 25.1851C69.4944 24.5503 69.6185 23.5175 69.6185 22.0799V16.0262C69.6185 14.6323 69.4981 13.6105 69.2536 12.9683C69.009 12.3225 68.5822 12.0014 67.969 12.0014C67.378 12.0014 66.9584 12.3225 66.7176 12.9683C66.473 13.6142 66.3526 14.6323 66.3526 16.0262V22.0799C66.3526 23.5175 66.4693 24.5538 66.703 25.1851C66.9365 25.82 67.356 26.1375 67.969 26.1375C68.5822 26.1375 69.009 25.82 69.2536 25.1851Z" fill="white"/>
<path d="M88.1514 28.802H84.7287L84.3492 26.4229H84.2544C83.3238 28.2182 81.9299 29.1157 80.0689 29.1157C78.7808 29.1157 77.8285 28.6925 77.2155 27.8497C76.6025 27.003 76.2959 25.6822 76.2959 23.8869V9.36754H80.6711V23.6313C80.6711 24.4999 80.7659 25.1165 80.9557 25.4851C81.1454 25.8536 81.4629 26.0396 81.908 26.0396C82.2875 26.0396 82.6524 25.923 83.0028 25.6895C83.3531 25.4558 83.6085 25.1602 83.7799 24.8027V9.36389H88.1514V28.802Z" fill="white"/>
<path d="M100.037 5.72147H95.6943V28.8012H91.4141V5.72147H87.0718V2.20386H100.037V5.72147Z" fill="white"/>
<path d="M110.589 28.802H107.166L106.787 26.4229H106.692C105.762 28.2182 104.368 29.1157 102.507 29.1157C101.219 29.1157 100.266 28.6925 99.6532 27.8497C99.0402 27.003 98.7336 25.6822 98.7336 23.8869V9.36754H103.109V23.6313C103.109 24.4999 103.204 25.1165 103.393 25.4851C103.583 25.8536 103.901 26.0396 104.346 26.0396C104.725 26.0396 105.09 25.923 105.44 25.6895C105.791 25.4558 106.046 25.1602 106.218 24.8027V9.36389H110.589V28.802Z" fill="white"/>
<path d="M125.068 12.4724C124.802 11.2464 124.375 10.3597 123.784 9.80868C123.193 9.25769 122.379 8.98402 121.343 8.98402C120.54 8.98402 119.788 9.21025 119.091 9.66637C118.394 10.1225 117.854 10.7173 117.475 11.458H117.442V1.21899H113.228V28.7979H116.84L117.285 26.9589H117.38C117.719 27.6157 118.227 28.1302 118.902 28.5134C119.577 28.8929 120.328 29.0826 121.153 29.0826C122.631 29.0826 123.722 28.4003 124.419 27.0391C125.116 25.6744 125.466 23.547 125.466 20.6498V17.5738C125.466 15.4026 125.331 13.6985 125.068 12.4724ZM121.058 20.4016C121.058 21.8174 121 22.9267 120.883 23.7295C120.766 24.5323 120.573 25.1053 120.296 25.4409C120.022 25.7802 119.65 25.9481 119.186 25.9481C118.825 25.9481 118.493 25.8641 118.186 25.6927C117.88 25.5248 117.632 25.2694 117.442 24.9337V13.9028C117.588 13.3737 117.844 12.9432 118.205 12.6038C118.562 12.2644 118.956 12.0966 119.376 12.0966C119.821 12.0966 120.164 12.2717 120.405 12.6184C120.65 12.9687 120.817 13.5525 120.912 14.3772C121.007 15.2019 121.055 16.3732 121.055 17.8948V20.4016H121.058Z" fill="white"/>
<path d="M131.673 21.5218C131.673 22.7697 131.709 23.7039 131.782 24.3279C131.855 24.9518 132.009 25.4044 132.242 25.6927C132.476 25.9772 132.833 26.1195 133.318 26.1195C133.972 26.1195 134.424 25.8641 134.665 25.3569C134.909 24.8497 135.041 24.0032 135.063 22.8209L138.836 23.0434C138.858 23.2113 138.869 23.4448 138.869 23.7403C138.869 25.5356 138.376 26.8785 137.394 27.7652C136.413 28.6519 135.023 29.0971 133.227 29.0971C131.071 29.0971 129.56 28.422 128.695 27.0683C127.827 25.7145 127.396 23.6237 127.396 20.7919V17.3984C127.396 14.4829 127.845 12.3519 128.743 11.0091C129.64 9.66629 131.177 8.99487 133.355 8.99487C134.855 8.99487 136.008 9.26855 136.811 9.81955C137.613 10.3705 138.179 11.2244 138.507 12.3884C138.836 13.5524 139 15.158 139 17.2087V20.5366H131.673V21.5218ZM132.227 12.3629C132.005 12.6365 131.859 13.0854 131.782 13.7093C131.709 14.3333 131.673 15.2784 131.673 16.5483V17.9422H134.873V16.5483C134.873 15.3003 134.829 14.3552 134.745 13.7093C134.661 13.0635 134.508 12.611 134.285 12.3446C134.063 12.0819 133.72 11.9469 133.256 11.9469C132.789 11.9505 132.446 12.0892 132.227 12.3629Z" fill="white"/>
</svg>
